<svg width="24" height="24" viewBox="0 0 24 24" fill="none" xmlns="http://www.w3.org/2000/svg">
<path d="M15.0948 15.1923C15.0948 16.8723 14.4868 18.3043 13.2708 19.4883C12.0708 20.6563 10.6228 21.2403 8.92679 21.2403C7.23079 21.2403 5.77479 20.6723 4.55879 19.5363C3.35879 18.4003 2.75879 17.0403 2.75879 15.4563V14.9523H3.50279V15.3363C3.50279 16.7923 4.02279 18.0323 5.06279 19.0563C6.11879 20.0643 7.39079 20.5683 8.87879 20.5683C10.3668 20.5683 11.6388 20.0643 12.6948 19.0563C13.7668 18.0323 14.3028 16.7843 14.3028 15.3123C14.3028 14.3043 14.0308 13.3283 13.4868 12.3843C12.9588 11.4403 12.2628 10.7843 11.3988 10.4163L10.9428 10.2243L11.3748 9.88833C11.7908 9.56833 12.1108 9.15233 12.3348 8.64033C12.5748 8.11233 12.6948 7.57633 12.6948 7.03233C12.6948 6.05633 12.3268 5.20833 11.5908 4.48833C10.8708 3.76833 9.99879 3.40833 8.97479 3.40833C7.96679 3.40833 7.07879 3.78433 6.31079 4.53633C5.55879 5.27233 5.16679 6.16033 5.13479 7.20033H4.36679C4.39879 5.96833 4.85479 4.92033 5.73479 4.05633C6.63079 3.17633 7.70279 2.73633 8.95079 2.73633C10.2148 2.73633 11.2788 3.14433 12.1428 3.96033C13.0228 4.77633 13.4628 5.77633 13.4628 6.96033C13.4628 8.12833 13.0388 9.17633 12.1908 10.1043C13.0708 10.6323 13.7748 11.3523 14.3028 12.2643C14.8308 13.1603 15.0948 14.1363 15.0948 15.1923ZM19.3636 21.0003V3.74433H16.5316V3.04833H20.1556V21.0003H19.3636Z" fill="white" fill-opacity="0.6"/>
<path d="M13.271 19.4875L13.4802 19.7025V19.7024L13.271 19.4875ZM4.55898 19.5355L4.35274 19.7534L4.35418 19.7547L4.55898 19.5355ZM2.75898 14.9515V14.6515H2.45898V14.9515H2.75898ZM3.50298 14.9515H3.80298V14.6515H3.50298V14.9515ZM5.06298 19.0555L4.85248 19.2693L4.85584 19.2725L5.06298 19.0555ZM12.695 19.0555L12.9021 19.2725L12.9022 19.2724L12.695 19.0555ZM13.487 12.3835L13.2251 12.53L13.227 12.5333L13.487 12.3835ZM11.399 10.4155L11.5165 10.1395L11.5154 10.139L11.399 10.4155ZM10.943 10.2235L10.7588 9.98674L10.3544 10.3012L10.8265 10.5L10.943 10.2235ZM11.375 9.88755L11.192 9.64976L11.1908 9.65074L11.375 9.88755ZM12.335 8.63955L12.0618 8.5154L12.0601 8.5193L12.335 8.63955ZM11.591 4.48755L11.3788 4.69969L11.3812 4.702L11.591 4.48755ZM6.31098 4.53555L6.52082 4.74995L6.52087 4.7499L6.31098 4.53555ZM5.13498 7.19955V7.49955H5.42589L5.43484 7.20878L5.13498 7.19955ZM4.36698 7.19955L4.06708 7.19176L4.05909 7.49955H4.36698V7.19955ZM5.73498 4.05555L5.94516 4.26962L5.9452 4.26958L5.73498 4.05555ZM12.143 3.95955L11.937 4.17766L11.939 4.17953L12.143 3.95955ZM12.191 10.1035L11.9695 9.90118L11.722 10.172L12.0366 10.3607L12.191 10.1035ZM14.303 12.2635L14.0433 12.4138L14.0445 12.4158L14.303 12.2635ZM14.795 15.1915C14.795 16.7896 14.2203 18.1444 13.0617 19.2726L13.4802 19.7024C14.7536 18.4626 15.395 16.9534 15.395 15.1915H14.795ZM13.0617 19.2725C11.9185 20.3852 10.5459 20.9395 8.92698 20.9395V21.5395C10.7 21.5395 12.2234 20.9258 13.4802 19.7025L13.0617 19.2725ZM8.92698 20.9395C7.3054 20.9395 5.92305 20.3993 4.76378 19.3163L4.35418 19.7547C5.62692 20.9437 7.15657 21.5395 8.92698 21.5395V20.9395ZM4.76523 19.3176C3.62217 18.2355 3.05898 16.9532 3.05898 15.4555H2.45898C2.45898 17.1258 3.0958 18.5635 4.35274 19.7534L4.76523 19.3176ZM3.05898 15.4555V14.9515H2.45898V15.4555H3.05898ZM2.75898 15.2515H3.50298V14.6515H2.75898V15.2515ZM3.20298 14.9515V15.3355H3.80298V14.9515H3.20298ZM3.20298 15.3355C3.20298 16.8721 3.75539 18.189 4.8525 19.2693L5.27346 18.8417C4.29058 17.874 3.80298 16.7109 3.80298 15.3355H3.20298ZM4.85584 19.2725C5.96883 20.3349 7.31549 20.8675 8.87898 20.8675V20.2675C7.46648 20.2675 6.26913 19.7921 5.27013 18.8385L4.85584 19.2725ZM8.87898 20.8675C10.4425 20.8675 11.7891 20.3349 12.9021 19.2725L12.4878 18.8385C11.4888 19.7921 10.2915 20.2675 8.87898 20.2675V20.8675ZM12.9022 19.2724C14.033 18.1923 14.603 16.8661 14.603 15.3115H14.003C14.003 16.7009 13.501 17.8707 12.4877 18.8386L12.9022 19.2724ZM14.603 15.3115C14.603 14.2467 14.315 13.2195 13.7469 12.2337L13.227 12.5333C13.747 13.4355 14.003 14.3603 14.003 15.3115H14.603ZM13.7488 12.2371C13.1935 11.2443 12.4507 10.5374 11.5165 10.1395L11.2814 10.6915C12.0753 11.0296 12.7244 11.6347 13.2251 12.5299L13.7488 12.2371ZM11.5154 10.139L11.0594 9.94706L10.8265 10.5L11.2825 10.692L11.5154 10.139ZM11.1271 10.4603L11.5591 10.1243L11.1908 9.65074L10.7588 9.98674L11.1271 10.4603ZM11.5579 10.1253C12.0165 9.77253 12.3669 9.315 12.6098 8.75979L12.0601 8.5193C11.855 8.9881 11.5654 9.36257 11.1921 9.64976L11.5579 10.1253ZM12.6081 8.76369C12.8646 8.19933 12.995 7.62117 12.995 7.03155H12.395C12.395 7.52993 12.2853 8.02377 12.0619 8.51541L12.6081 8.76369ZM12.995 7.03155C12.995 5.97003 12.5909 5.04608 11.8008 4.2731L11.3812 4.702C12.063 5.36902 12.395 6.14107 12.395 7.03155H12.995ZM11.8031 4.27542C11.0265 3.4988 10.078 3.10755 8.97499 3.10755V3.70755C9.91993 3.70755 10.7154 4.0363 11.3788 4.69968L11.8031 4.27542ZM8.97499 3.10755C7.88295 3.10755 6.92106 3.51832 6.1011 4.3212L6.52087 4.7499C7.23691 4.04878 8.05103 3.70755 8.97499 3.70755V3.10755ZM6.10114 4.32115C5.29446 5.11066 4.86954 6.0719 4.83512 7.19032L5.43484 7.20878C5.46443 6.2472 5.8235 5.43243 6.52082 4.74995L6.10114 4.32115ZM5.13498 6.89955H4.36698V7.49955H5.13498V6.89955ZM4.66688 7.20734C4.69686 6.05319 5.12065 5.07914 5.94516 4.26962L5.52481 3.84148C4.58932 4.75996 4.10111 5.88191 4.06708 7.19176L4.66688 7.20734ZM5.9452 4.26958C6.78549 3.44429 7.78218 3.03555 8.95098 3.03555V2.43555C7.62381 2.43555 6.47647 2.90681 5.52477 3.84151L5.9452 4.26958ZM8.95098 3.03555C10.1437 3.03555 11.1324 3.41781 11.937 4.17765L12.349 3.74145C11.4255 2.86928 10.2862 2.43555 8.95098 2.43555V3.03555ZM11.939 4.17953C12.7587 4.93964 13.163 5.86033 13.163 6.95955H13.763C13.763 5.69077 13.2872 4.61146 12.3469 3.73957L11.939 4.17953ZM13.163 6.95955C13.163 8.04665 12.7712 9.02387 11.9695 9.90118L12.4124 10.3059C13.3067 9.32723 13.763 8.20845 13.763 6.95955H13.163ZM12.0366 10.3607C12.8718 10.8619 13.5401 11.5446 14.0433 12.4138L14.5626 12.1132C14.0098 11.1584 13.2701 10.4011 12.3453 9.8463L12.0366 10.3607ZM14.0445 12.4158C14.5449 13.2649 14.795 14.1882 14.795 15.1915H15.395C15.395 14.0828 15.1171 13.0541 14.5614 12.1112L14.0445 12.4158ZM19.3638 20.9995H19.0638V21.2995H19.3638V20.9995ZM19.3638 3.74355H19.6638V3.44355H19.3638V3.74355ZM16.5318 3.74355H16.2318V4.04355H16.5318V3.74355ZM16.5318 3.04755V2.74755H16.2318V3.04755H16.5318ZM20.1558 3.04755H20.4558V2.74755H20.1558V3.04755ZM20.1558 20.9995V21.2995H20.4558V20.9995H20.1558ZM19.6638 20.9995V3.74355H19.0638V20.9995H19.6638ZM19.3638 3.44355H16.5318V4.04355H19.3638V3.44355ZM16.8318 3.74355V3.04755H16.2318V3.74355H16.8318ZM16.5318 3.34755H20.1558V2.74755H16.5318V3.34755ZM19.8558 3.04755V20.9995H20.4558V3.04755H19.8558ZM20.1558 20.6995H19.3638V21.2995H20.1558V20.6995Z" fill="white" fill-opacity="0.6"/>
</svg>
