<svg width="24" height="24" viewBox="0 0 24 24" fill="none" xmlns="http://www.w3.org/2000/svg">
<path fill-rule="evenodd" clip-rule="evenodd" d="M9.25382 11.6835C11.5329 12.0069 14.2304 12.0372 16.0189 11.9638L16.0722 13.2627C14.2374 13.338 11.4552 13.3089 9.0712 12.9706C7.88401 12.8022 6.75453 12.5517 5.8823 12.1778C5.05294 11.8224 4.23259 11.2574 4.08688 10.3359L5.37092 10.1328C5.40389 10.3414 5.63455 10.6573 6.39443 10.983C7.11144 11.2903 8.10942 11.5211 9.25382 11.6835ZM2.04067 15.3376C2.34722 14.2377 2.80256 13.1731 3.26131 12.3086L4.40965 12.918C3.98737 13.7137 3.5704 14.6911 3.29295 15.6866C3.01341 16.6897 2.88838 17.6657 3.00644 18.4783C3.12168 19.2715 3.45918 19.873 4.09432 20.2484C4.75766 20.6405 5.85337 20.8508 7.61299 20.5937L7.80096 21.88C5.89755 22.1582 4.45755 21.9732 3.43285 21.3676C2.37994 20.7452 1.87707 19.7466 1.71994 18.6652C1.56563 17.6031 1.73624 16.43 2.04067 15.3376Z" fill="white" fill-opacity="0.4"/>
<path fill-rule="evenodd" clip-rule="evenodd" d="M7.17488 5.35315C6.99772 6.00932 7.01006 6.56518 7.09987 6.84263L5.86304 7.24296C5.66776 6.63963 5.70562 5.80763 5.91982 5.01429C6.13843 4.20461 6.56692 3.33453 7.26139 2.67007C7.96959 1.99246 8.93823 1.54705 10.1642 1.59766C11.3698 1.64743 12.7659 2.17371 14.3692 3.31223C16.3323 4.7062 17.7799 5.41139 18.8264 5.70293C19.8694 5.9935 20.4465 5.85705 20.7568 5.66985C21.0701 5.4809 21.2457 5.15945 21.3168 4.8041C21.352 4.62842 21.3571 4.46232 21.3453 4.33296C21.3353 4.22249 21.3167 4.17616 21.318 4.17563C21.3184 4.17543 21.3217 4.18171 21.3293 4.19349L22.4231 3.49092C22.5623 3.7077 22.6189 3.98439 22.64 4.21492C22.6631 4.46813 22.6514 4.75993 22.5915 5.05925C22.4725 5.65392 22.1447 6.35091 21.4283 6.78303C20.7089 7.2169 19.7299 7.30415 18.4775 6.95524C17.2285 6.6073 15.6411 5.80984 13.6166 4.37218C12.1364 3.32111 10.9806 2.93247 10.1106 2.89656C9.26087 2.86148 8.63018 3.15962 8.16011 3.60937C7.67632 4.07226 7.34762 4.71333 7.17488 5.35315ZM16.7711 15.604C16.4785 15.4831 16.115 15.3986 15.7689 15.3539L15.9354 14.0646C16.3578 14.1192 16.8396 14.2257 17.2676 14.4026C17.6714 14.5694 18.1487 14.8484 18.3905 15.3214C18.6726 15.873 18.5347 16.4641 18.1451 16.9853C17.7738 17.4822 17.127 17.9952 16.1787 18.5463L15.5256 17.4223C16.4217 16.9016 16.8892 16.4942 17.1038 16.207C17.2072 16.0687 17.2318 15.9849 17.2372 15.952C17.241 15.9291 17.2382 15.9232 17.2331 15.9133C17.206 15.8603 17.0877 15.7349 16.7711 15.604ZM8.57815 17.9629C6.69627 19.3755 4.78206 19.0286 4.02734 18.525L4.74886 17.4436C5.03533 17.6348 6.34781 18.0116 7.79773 16.9232L8.57815 17.9629Z" fill="white" fill-opacity="0.4"/>
</svg>
