<svg width="32" height="32" viewBox="0 0 32 32" fill="none" xmlns="http://www.w3.org/2000/svg">
<rect x="31.5" y="0.5" width="31" height="31" rx="15.5" transform="rotate(90 31.5 0.5)" fill="#4A40FF" fill-opacity="0.1" stroke="black"/>
<path d="M13.75 13.2363C13.75 13.5462 13.6611 13.7855 13.4834 13.9541C13.3102 14.1227 13.0915 14.207 12.8271 14.207C12.5674 14.207 12.3509 14.1227 12.1777 13.9541C12.0091 13.7855 11.9248 13.5462 11.9248 13.2363C11.9248 12.9401 12.0091 12.7054 12.1777 12.5322C12.3464 12.359 12.5628 12.2725 12.8271 12.2725C13.0915 12.2725 13.3102 12.3568 13.4834 12.5254C13.6611 12.694 13.75 12.931 13.75 13.2363ZM19.5537 13.2363C19.5537 13.5462 19.4648 13.7855 19.2871 13.9541C19.1139 14.1227 18.8952 14.207 18.6309 14.207C18.3711 14.207 18.1546 14.1227 17.9814 13.9541C17.8128 13.7855 17.7285 13.5462 17.7285 13.2363C17.7285 12.9401 17.8128 12.7054 17.9814 12.5322C18.1501 12.359 18.3665 12.2725 18.6309 12.2725C18.8952 12.2725 19.1139 12.3568 19.2871 12.5254C19.4648 12.694 19.5537 12.931 19.5537 13.2363ZM10.1543 17.4336L10.1543 16.292L21.9531 16.292L21.9531 17.4336L10.1543 17.4336Z" fill="black"/>
</svg>
