<svg width="32" height="32" viewBox="0 0 32 32" fill="none" xmlns="http://www.w3.org/2000/svg">
<rect x="31.5" y="0.5" width="31" height="31" rx="15.5" transform="rotate(90 31.5 0.5)" fill="#4A40FF" fill-opacity="0.3" stroke="black"/>
<path d="M13.75 13.0254C13.75 13.3353 13.6611 13.5745 13.4834 13.7432C13.3102 13.9118 13.0915 13.9961 12.8271 13.9961C12.5674 13.9961 12.3509 13.9118 12.1777 13.7432C12.0091 13.5745 11.9248 13.3353 11.9248 13.0254C11.9248 12.7292 12.0091 12.4945 12.1777 12.3213C12.3464 12.1481 12.5628 12.0615 12.8271 12.0615C13.0915 12.0615 13.3102 12.1458 13.4834 12.3145C13.6611 12.4831 13.75 12.7201 13.75 13.0254ZM19.5537 13.0254C19.5537 13.3353 19.4648 13.5745 19.2871 13.7432C19.1139 13.9118 18.8952 13.9961 18.6309 13.9961C18.3711 13.9961 18.1546 13.9118 17.9814 13.7432C17.8128 13.5745 17.7285 13.3353 17.7285 13.0254C17.7285 12.7292 17.8128 12.4945 17.9814 12.3213C18.1501 12.1481 18.3665 12.0615 18.6309 12.0615C18.8952 12.0615 19.1139 12.1458 19.2871 12.3145C19.4648 12.4831 19.5537 12.7201 19.5537 13.0254ZM15.9375 18.9453C14.9258 18.9453 13.9482 18.8063 13.0049 18.5283C12.0661 18.2503 11.2116 17.8288 10.4414 17.2637C9.66667 16.6986 9.13118 16.1084 8.83496 15.4932L9.75781 15.165C10.2865 15.8486 11.0931 16.3887 12.1777 16.7852C13.2669 17.1862 14.5088 17.3867 15.9033 17.3867L16.0605 17.3867C17.3275 17.3867 18.4805 17.2135 19.5195 16.8672C20.5632 16.5208 21.3994 16.0241 22.0283 15.377L22.2197 15.165L23.1494 15.4932C22.8669 16.0765 22.3656 16.6416 21.6455 17.1885C20.9255 17.7354 20.1188 18.1546 19.2256 18.4463C18.3369 18.738 17.4186 18.902 16.4707 18.9385L15.9375 18.9453Z" fill="black"/>
</svg>
