<svg width="19" height="18" viewBox="0 0 19 18" fill="none" xmlns="http://www.w3.org/2000/svg">
<path fill-rule="evenodd" clip-rule="evenodd" d="M3.17391 4.3551C2.99675 5.01127 3.00909 5.56713 3.0989 5.84458L1.86207 6.24491C1.66679 5.64158 1.70465 4.80958 1.91885 4.01624C2.13746 3.20656 2.56595 2.33648 3.26042 1.67202C3.96862 0.994412 4.93726 0.549002 6.1632 0.599612C7.3688 0.649382 8.7649 1.17566 10.3682 2.31418C12.3313 3.70815 13.7789 4.41334 14.8254 4.70488C15.8684 4.99545 16.4455 4.859 16.7558 4.6718C17.0691 4.48285 17.2447 4.1614 17.3158 3.80605C17.351 3.63037 17.3561 3.46427 17.3443 3.33491C17.3343 3.22444 17.3157 3.17811 17.317 3.17758C17.3174 3.17738 17.3207 3.18366 17.3283 3.19544L18.4221 2.49287C18.5613 2.70965 18.6179 2.98634 18.639 3.21687C18.6621 3.47008 18.6504 3.76188 18.5905 4.0612C18.4715 4.65587 18.1437 5.35286 17.4273 5.78498C16.7079 6.21885 15.7289 6.3061 14.4765 5.95719C13.2275 5.60925 11.6401 4.81179 9.6156 3.37413C8.1354 2.32306 6.9796 1.93442 6.1096 1.89851C5.2599 1.86343 4.62921 2.16157 4.15914 2.61132C3.67535 3.07421 3.34665 3.71528 3.17391 4.3551ZM12.7701 14.606C12.4775 14.4851 12.114 14.4006 11.7679 14.3559L11.9344 13.0666C12.3568 13.1212 12.8386 13.2277 13.2666 13.4046C13.6704 13.5714 14.1477 13.8504 14.3895 14.3234C14.6716 14.875 14.5337 15.4661 14.1441 15.9873C13.7728 16.4841 13.126 16.9972 12.1777 17.5483L11.5246 16.4243C12.4207 15.9036 12.8882 15.4962 13.1028 15.209C13.2062 15.0707 13.2308 14.9869 13.2362 14.954C13.24 14.9311 13.2372 14.9252 13.2321 14.9153C13.205 14.8623 13.0867 14.7369 12.7701 14.606ZM4.57718 16.9649C2.6953 18.3775 0.781087 18.0306 0.0263672 17.527L0.747887 16.4456C1.03436 16.6368 2.34684 17.0136 3.79676 15.9252L4.57718 16.9649Z" fill="white" fill-opacity="0.6"/>
</svg>
