<svg width="32" height="32" viewBox="0 0 32 32" fill="none" xmlns="http://www.w3.org/2000/svg">
<path fill-rule="evenodd" clip-rule="evenodd" d="M11.3327 22.668C15.3828 22.668 18.666 19.3848 18.666 15.3346C18.666 11.2845 15.3828 8.0013 11.3327 8.0013C7.28259 8.0013 3.99935 11.2845 3.99935 15.3346C3.99935 19.3848 7.28259 22.668 11.3327 22.668ZM11.3327 24.0013C16.1192 24.0013 19.9993 20.1212 19.9993 15.3346C19.9993 10.5482 16.1192 6.66797 11.3327 6.66797C6.54622 6.66797 2.66602 10.5482 2.66602 15.3346C2.66602 20.1212 6.54622 24.0013 11.3327 24.0013Z" fill="#fff" fill-opacity="0.4"/>
<path fill-rule="evenodd" clip-rule="evenodd" d="M16 22.6389C18.4056 21.0988 20 18.4029 20 15.3346C20 12.2664 18.4056 9.57049 16 8.0304C17.3471 7.16797 18.9485 6.66797 20.6667 6.66797C25.4531 6.66797 29.3333 10.5482 29.3333 15.3346C29.3333 20.1212 25.4531 24.0013 20.6667 24.0013C18.9485 24.0013 17.3471 23.5013 16 22.6389Z" fill="#fff" fill-opacity="0.4"/>
<path fill-rule="evenodd" clip-rule="evenodd" d="M8.43264 13.4616C6.6943 14.6777 4.71182 15.2095 3.39414 15.3292L3.27344 14.0013C4.4002 13.8989 6.15106 13.4305 7.66828 12.3691C9.16649 11.3208 10.4264 9.70573 10.6704 7.26562H11.9971C12.2412 9.70573 13.5011 11.3208 14.9993 12.3691C16.5165 13.4305 18.2673 13.8989 19.3941 14.0013L19.2735 15.3292C17.9557 15.2095 15.9733 14.6777 14.2349 13.4616C13.0641 12.6423 11.9995 11.5075 11.3338 9.98554C10.6681 11.5075 9.60352 12.6423 8.43264 13.4616Z" fill="#fff" fill-opacity="0.4"/>
<path d="M10.0007 16.0013C10.3688 16.0013 10.6673 15.7028 10.6673 15.3346C10.6673 14.9664 10.3688 14.668 10.0007 14.668C9.63246 14.668 9.33398 14.9664 9.33398 15.3346C9.33398 15.7028 9.63246 16.0013 10.0007 16.0013Z" fill="#fff" fill-opacity="0.4"/>
<path d="M12.6667 16.0013C13.0349 16.0013 13.3333 15.7028 13.3333 15.3346C13.3333 14.9664 13.0349 14.668 12.6667 14.668C12.2985 14.668 12 14.9664 12 15.3346C12 15.7028 12.2985 16.0013 12.6667 16.0013Z" fill="#fff" fill-opacity="0.4"/>
</svg>