<svg width="411" height="823" viewBox="0 0 411 823" fill="none" xmlns="http://www.w3.org/2000/svg">
<g clip-path="url(#clip0)">
<rect width="411" height="823" fill="#F7F7FA"/>
<path d="M140.895 377.316H76.8945C113.526 541.948 207.842 606.949 284.895 630.79C191 601.737 136.263 451.843 140.895 377.316Z" fill="#4A40FF" fill-opacity="0.3"/>
<path d="M156.046 378C128.046 431.5 118.8 482.015 187.257 470.539L156.046 378Z" fill="#F7F7FA"/>
<path d="M254.579 395.503C223.03 396.797 159.155 394.467 156.043 374.789M148.264 395.503C132.922 424.415 118.185 479.91 181.974 470.589" stroke="black" stroke-width="2"/>
<path d="M116.053 385.902H56.6836C59.0579 443.15 98.181 603.141 249.449 682.467L345.934 711.632L288.302 636.453L274.261 650.506M252.892 413.77C266.274 415.498 285.01 423.621 252.892 442.286M146.046 442.286C150.578 445.311 163.27 448.637 177.776 437.749M177.776 431.269C177.344 434.941 178.035 442.286 184.251 442.286M171.3 347.017C166.336 331.679 172.466 304.632 236.703 319.149C300.94 333.666 309.229 325.198 305.343 319.149M225.694 464.969C314.409 463.241 448.322 491.282 274.261 617.27M274.261 499.966C258.288 515.736 231.652 555.442 252.892 588.106" stroke="black" stroke-width="2"/>
<path d="M109.3 548C38.6177 567.751 -50.0969 631.962 150.5 728C124.431 718.509 78 677.5 63.5 737.5" stroke="black" stroke-width="2"/>
<path d="M138.5 721.5C-22.1154 640.626 67.1035 589.633 123.698 573C140.632 601.5 200.501 662 245.001 680L360.501 717.5L83.0008 734C89.7147 702.895 117.627 713.508 138.5 721.5Z" fill="black" stroke="black" stroke-width="2"/>
<path d="M318.999 664.473L292.473 688.473L348.052 711.631L318.999 664.473Z" fill="#4A40FF"/>
<path d="M199 193V175H306V193H199Z" fill="#4A40FF" fill-opacity="0.3"/>
<mask id="path-9-outside-1" maskUnits="userSpaceOnUse" x="97" y="153" width="207" height="48" fill="black">
<rect fill="white" x="97" y="153" width="207" height="48"/>
<path d="M119.264 168.4H120.8V187.984C120.8 191.696 119.776 194.624 117.728 196.768C115.68 198.912 112.992 199.984 109.664 199.984C107.84 199.984 106.064 199.568 104.336 198.736C102.608 197.904 101.264 196.816 100.304 195.472V193.264C101.136 194.8 102.432 196.08 104.192 197.104C105.984 198.128 107.808 198.64 109.664 198.64C112.48 198.64 114.784 197.68 116.576 195.76C118.368 193.872 119.264 191.28 119.264 187.984V184.768C118.4 186.528 117.04 187.936 115.184 188.992C113.328 190.048 111.408 190.576 109.424 190.576C106.288 190.576 103.6 189.472 101.36 187.264C99.12 185.024 98 182.352 98 179.248C98 176.144 99.12 173.488 101.36 171.28C103.6 169.04 106.288 167.92 109.424 167.92C111.504 167.92 113.44 168.448 115.232 169.504C117.056 170.528 118.4 171.952 119.264 173.776V168.4ZM99.536 179.248C99.536 181.968 100.512 184.32 102.464 186.304C104.448 188.256 106.784 189.232 109.472 189.232C112.192 189.232 114.512 188.256 116.432 186.304C118.352 184.32 119.312 181.968 119.312 179.248C119.312 176.528 118.352 174.192 116.432 172.24C114.512 170.256 112.192 169.264 109.472 169.264C106.784 169.264 104.448 170.256 102.464 172.24C100.512 174.192 99.536 176.528 99.536 179.248Z"/>
<path d="M136.607 190.528C133.535 190.528 130.895 189.392 128.687 187.12C126.479 184.816 125.375 182.144 125.375 179.104C125.375 176.064 126.495 173.44 128.735 171.232C130.975 168.992 133.663 167.872 136.799 167.872C139.967 167.872 142.655 168.992 144.863 171.232C147.103 173.44 148.223 176.08 148.223 179.152C148.223 182.192 147.135 184.848 144.959 187.12C142.783 189.392 140.143 190.528 137.039 190.528H136.607ZM146.687 179.248C146.687 176.528 145.711 174.176 143.759 172.192C141.839 170.208 139.535 169.216 136.847 169.216C134.159 169.216 131.823 170.224 129.839 172.24C127.887 174.224 126.911 176.56 126.911 179.248C126.911 181.936 127.887 184.272 129.839 186.256C131.823 188.208 134.159 189.184 136.847 189.184C139.567 189.184 141.887 188.208 143.807 186.256C145.727 184.272 146.687 181.936 146.687 179.248Z"/>
<path d="M162.81 190.528C159.738 190.528 157.098 189.392 154.89 187.12C152.682 184.816 151.578 182.144 151.578 179.104C151.578 176.064 152.698 173.44 154.938 171.232C157.178 168.992 159.866 167.872 163.002 167.872C166.17 167.872 168.858 168.992 171.066 171.232C173.306 173.44 174.426 176.08 174.426 179.152C174.426 182.192 173.338 184.848 171.162 187.12C168.986 189.392 166.346 190.528 163.242 190.528H162.81ZM172.89 179.248C172.89 176.528 171.914 174.176 169.962 172.192C168.042 170.208 165.738 169.216 163.05 169.216C160.362 169.216 158.026 170.224 156.042 172.24C154.09 174.224 153.114 176.56 153.114 179.248C153.114 181.936 154.09 184.272 156.042 186.256C158.026 188.208 160.362 189.184 163.05 189.184C165.77 189.184 168.09 188.208 170.01 186.256C171.93 184.272 172.89 181.936 172.89 179.248Z"/>
<path d="M200.533 154V190H198.997V184.768C198.037 186.528 196.645 187.936 194.821 188.992C192.997 190.016 191.125 190.528 189.205 190.528C186.037 190.528 183.333 189.424 181.093 187.216C178.885 184.976 177.781 182.304 177.781 179.2C177.781 176.096 178.885 173.44 181.093 171.232C183.333 168.992 186.037 167.872 189.205 167.872C191.189 167.872 193.093 168.4 194.917 169.456C196.773 170.512 198.133 171.92 198.997 173.68V154H200.533ZM179.317 179.248C179.317 181.936 180.277 184.272 182.197 186.256C184.117 188.208 186.421 189.184 189.109 189.184C191.829 189.184 194.165 188.208 196.117 186.256C198.101 184.272 199.093 181.936 199.093 179.248C199.093 176.56 198.101 174.224 196.117 172.24C194.165 170.224 191.845 169.216 189.157 169.216C186.469 169.216 184.149 170.208 182.197 172.192C180.277 174.176 179.317 176.528 179.317 179.248Z"/>
<path d="M225.253 154H226.837V190H225.253V176.272H200.581V190H198.997V154H200.581V174.88H225.253V154Z"/>
<path d="M243.372 190.528C240.3 190.528 237.66 189.392 235.452 187.12C233.244 184.816 232.14 182.144 232.14 179.104C232.14 176.064 233.26 173.44 235.5 171.232C237.74 168.992 240.428 167.872 243.564 167.872C246.732 167.872 249.42 168.992 251.628 171.232C253.868 173.44 254.988 176.08 254.988 179.152C254.988 182.192 253.9 184.848 251.724 187.12C249.548 189.392 246.908 190.528 243.804 190.528H243.372ZM253.452 179.248C253.452 176.528 252.476 174.176 250.524 172.192C248.604 170.208 246.3 169.216 243.612 169.216C240.924 169.216 238.588 170.224 236.604 172.24C234.652 174.224 233.676 176.56 233.676 179.248C233.676 181.936 234.652 184.272 236.604 186.256C238.588 188.208 240.924 189.184 243.612 189.184C246.332 189.184 248.652 188.208 250.572 186.256C252.492 184.272 253.452 181.936 253.452 179.248Z"/>
<path d="M274.519 172.96C274.999 171.424 275.911 170.192 277.255 169.264C278.631 168.336 280.295 167.872 282.247 167.872C284.199 167.872 285.911 168.576 287.383 169.984C288.855 171.392 289.591 173.296 289.591 175.696V190H288.055V175.696C288.055 173.84 287.447 172.304 286.231 171.088C285.015 169.84 283.543 169.216 281.815 169.216C280.119 169.216 278.599 169.856 277.255 171.136C275.943 172.416 275.287 173.904 275.287 175.6V190H273.751V175.6C273.751 173.872 273.143 172.384 271.927 171.136C270.711 169.856 269.239 169.216 267.511 169.216C265.783 169.216 264.279 169.856 262.999 171.136C261.719 172.416 261.079 173.904 261.079 175.6V190H259.543V168.4H261.079V171.424C261.719 170.464 262.663 169.632 263.911 168.928C265.191 168.224 266.503 167.872 267.847 167.872C269.223 167.872 270.535 168.352 271.783 169.312C273.031 170.24 273.943 171.456 274.519 172.96Z"/>
<path d="M303.083 188.944V190.288C300.811 190.288 298.875 189.536 297.275 188.032C295.675 186.496 294.875 184.544 294.875 182.176V159.712H296.411V168.448H303.035V169.792H296.411V182.176C296.411 184.128 297.051 185.744 298.331 187.024C299.643 188.304 301.227 188.944 303.083 188.944Z"/>
</mask>
<path d="M119.264 168.4H120.8V187.984C120.8 191.696 119.776 194.624 117.728 196.768C115.68 198.912 112.992 199.984 109.664 199.984C107.84 199.984 106.064 199.568 104.336 198.736C102.608 197.904 101.264 196.816 100.304 195.472V193.264C101.136 194.8 102.432 196.08 104.192 197.104C105.984 198.128 107.808 198.64 109.664 198.64C112.48 198.64 114.784 197.68 116.576 195.76C118.368 193.872 119.264 191.28 119.264 187.984V184.768C118.4 186.528 117.04 187.936 115.184 188.992C113.328 190.048 111.408 190.576 109.424 190.576C106.288 190.576 103.6 189.472 101.36 187.264C99.12 185.024 98 182.352 98 179.248C98 176.144 99.12 173.488 101.36 171.28C103.6 169.04 106.288 167.92 109.424 167.92C111.504 167.92 113.44 168.448 115.232 169.504C117.056 170.528 118.4 171.952 119.264 173.776V168.4ZM99.536 179.248C99.536 181.968 100.512 184.32 102.464 186.304C104.448 188.256 106.784 189.232 109.472 189.232C112.192 189.232 114.512 188.256 116.432 186.304C118.352 184.32 119.312 181.968 119.312 179.248C119.312 176.528 118.352 174.192 116.432 172.24C114.512 170.256 112.192 169.264 109.472 169.264C106.784 169.264 104.448 170.256 102.464 172.24C100.512 174.192 99.536 176.528 99.536 179.248Z" fill="black"/>
<path d="M136.607 190.528C133.535 190.528 130.895 189.392 128.687 187.12C126.479 184.816 125.375 182.144 125.375 179.104C125.375 176.064 126.495 173.44 128.735 171.232C130.975 168.992 133.663 167.872 136.799 167.872C139.967 167.872 142.655 168.992 144.863 171.232C147.103 173.44 148.223 176.08 148.223 179.152C148.223 182.192 147.135 184.848 144.959 187.12C142.783 189.392 140.143 190.528 137.039 190.528H136.607ZM146.687 179.248C146.687 176.528 145.711 174.176 143.759 172.192C141.839 170.208 139.535 169.216 136.847 169.216C134.159 169.216 131.823 170.224 129.839 172.24C127.887 174.224 126.911 176.56 126.911 179.248C126.911 181.936 127.887 184.272 129.839 186.256C131.823 188.208 134.159 189.184 136.847 189.184C139.567 189.184 141.887 188.208 143.807 186.256C145.727 184.272 146.687 181.936 146.687 179.248Z" fill="black"/>
<path d="M162.81 190.528C159.738 190.528 157.098 189.392 154.89 187.12C152.682 184.816 151.578 182.144 151.578 179.104C151.578 176.064 152.698 173.44 154.938 171.232C157.178 168.992 159.866 167.872 163.002 167.872C166.17 167.872 168.858 168.992 171.066 171.232C173.306 173.44 174.426 176.08 174.426 179.152C174.426 182.192 173.338 184.848 171.162 187.12C168.986 189.392 166.346 190.528 163.242 190.528H162.81ZM172.89 179.248C172.89 176.528 171.914 174.176 169.962 172.192C168.042 170.208 165.738 169.216 163.05 169.216C160.362 169.216 158.026 170.224 156.042 172.24C154.09 174.224 153.114 176.56 153.114 179.248C153.114 181.936 154.09 184.272 156.042 186.256C158.026 188.208 160.362 189.184 163.05 189.184C165.77 189.184 168.09 188.208 170.01 186.256C171.93 184.272 172.89 181.936 172.89 179.248Z" fill="black"/>
<path d="M200.533 154V190H198.997V184.768C198.037 186.528 196.645 187.936 194.821 188.992C192.997 190.016 191.125 190.528 189.205 190.528C186.037 190.528 183.333 189.424 181.093 187.216C178.885 184.976 177.781 182.304 177.781 179.2C177.781 176.096 178.885 173.44 181.093 171.232C183.333 168.992 186.037 167.872 189.205 167.872C191.189 167.872 193.093 168.4 194.917 169.456C196.773 170.512 198.133 171.92 198.997 173.68V154H200.533ZM179.317 179.248C179.317 181.936 180.277 184.272 182.197 186.256C184.117 188.208 186.421 189.184 189.109 189.184C191.829 189.184 194.165 188.208 196.117 186.256C198.101 184.272 199.093 181.936 199.093 179.248C199.093 176.56 198.101 174.224 196.117 172.24C194.165 170.224 191.845 169.216 189.157 169.216C186.469 169.216 184.149 170.208 182.197 172.192C180.277 174.176 179.317 176.528 179.317 179.248Z" fill="black"/>
<path d="M225.253 154H226.837V190H225.253V176.272H200.581V190H198.997V154H200.581V174.88H225.253V154Z" fill="black"/>
<path d="M243.372 190.528C240.3 190.528 237.66 189.392 235.452 187.12C233.244 184.816 232.14 182.144 232.14 179.104C232.14 176.064 233.26 173.44 235.5 171.232C237.74 168.992 240.428 167.872 243.564 167.872C246.732 167.872 249.42 168.992 251.628 171.232C253.868 173.44 254.988 176.08 254.988 179.152C254.988 182.192 253.9 184.848 251.724 187.12C249.548 189.392 246.908 190.528 243.804 190.528H243.372ZM253.452 179.248C253.452 176.528 252.476 174.176 250.524 172.192C248.604 170.208 246.3 169.216 243.612 169.216C240.924 169.216 238.588 170.224 236.604 172.24C234.652 174.224 233.676 176.56 233.676 179.248C233.676 181.936 234.652 184.272 236.604 186.256C238.588 188.208 240.924 189.184 243.612 189.184C246.332 189.184 248.652 188.208 250.572 186.256C252.492 184.272 253.452 181.936 253.452 179.248Z" fill="black"/>
<path d="M274.519 172.96C274.999 171.424 275.911 170.192 277.255 169.264C278.631 168.336 280.295 167.872 282.247 167.872C284.199 167.872 285.911 168.576 287.383 169.984C288.855 171.392 289.591 173.296 289.591 175.696V190H288.055V175.696C288.055 173.84 287.447 172.304 286.231 171.088C285.015 169.84 283.543 169.216 281.815 169.216C280.119 169.216 278.599 169.856 277.255 171.136C275.943 172.416 275.287 173.904 275.287 175.6V190H273.751V175.6C273.751 173.872 273.143 172.384 271.927 171.136C270.711 169.856 269.239 169.216 267.511 169.216C265.783 169.216 264.279 169.856 262.999 171.136C261.719 172.416 261.079 173.904 261.079 175.6V190H259.543V168.4H261.079V171.424C261.719 170.464 262.663 169.632 263.911 168.928C265.191 168.224 266.503 167.872 267.847 167.872C269.223 167.872 270.535 168.352 271.783 169.312C273.031 170.24 273.943 171.456 274.519 172.96Z" fill="black"/>
<path d="M303.083 188.944V190.288C300.811 190.288 298.875 189.536 297.275 188.032C295.675 186.496 294.875 184.544 294.875 182.176V159.712H296.411V168.448H303.035V169.792H296.411V182.176C296.411 184.128 297.051 185.744 298.331 187.024C299.643 188.304 301.227 188.944 303.083 188.944Z" fill="black"/>
<path d="M119.264 168.4V168.2H119.064V168.4H119.264ZM120.8 168.4H121V168.2H120.8V168.4ZM117.728 196.768L117.583 196.63L117.728 196.768ZM104.336 198.736L104.249 198.916L104.336 198.736ZM100.304 195.472H100.104V195.536L100.141 195.588L100.304 195.472ZM100.304 193.264L100.48 193.169L100.104 193.264H100.304ZM104.192 197.104L104.091 197.277L104.093 197.278L104.192 197.104ZM116.576 195.76L116.431 195.622L116.43 195.624L116.576 195.76ZM119.264 184.768H119.464L119.084 184.68L119.264 184.768ZM115.184 188.992L115.085 188.818L115.184 188.992ZM101.36 187.264L101.219 187.405L101.22 187.406L101.36 187.264ZM101.36 171.28L101.5 171.422L101.501 171.421L101.36 171.28ZM115.232 169.504L115.13 169.676L115.134 169.678L115.232 169.504ZM119.264 173.776L119.083 173.862L119.464 173.776H119.264ZM102.464 186.304L102.321 186.444L102.324 186.447L102.464 186.304ZM116.432 186.304L116.575 186.444L116.576 186.443L116.432 186.304ZM116.432 172.24L116.288 172.379L116.289 172.38L116.432 172.24ZM102.464 172.24L102.605 172.381L102.464 172.24ZM128.687 187.12L128.543 187.258L128.544 187.259L128.687 187.12ZM128.735 171.232L128.875 171.374L128.876 171.373L128.735 171.232ZM144.863 171.232L144.721 171.372L144.723 171.374L144.863 171.232ZM144.959 187.12L144.815 186.982L144.959 187.12ZM143.759 172.192L143.615 172.331L143.616 172.332L143.759 172.192ZM129.839 172.24L129.696 172.1L129.696 172.1L129.839 172.24ZM129.839 186.256L129.696 186.396L129.699 186.399L129.839 186.256ZM143.807 186.256L143.95 186.396L143.951 186.395L143.807 186.256ZM154.89 187.12L154.746 187.258L154.747 187.259L154.89 187.12ZM154.938 171.232L155.079 171.374L155.08 171.373L154.938 171.232ZM171.066 171.232L170.924 171.372L170.926 171.374L171.066 171.232ZM171.162 187.12L171.018 186.982L171.162 187.12ZM169.962 172.192L169.818 172.331L169.82 172.332L169.962 172.192ZM156.042 172.24L155.9 172.1L155.9 172.1L156.042 172.24ZM156.042 186.256L155.9 186.396L155.902 186.399L156.042 186.256ZM170.01 186.256L170.153 186.396L170.154 186.395L170.01 186.256ZM200.533 154H200.733V153.8H200.533V154ZM200.533 190V190.2H200.733V190H200.533ZM198.997 190H198.797V190.2H198.997V190ZM198.997 184.768H199.197L198.822 184.672L198.997 184.768ZM194.821 188.992L194.919 189.166L194.921 189.165L194.821 188.992ZM181.093 187.216L180.951 187.356L180.953 187.358L181.093 187.216ZM181.093 171.232L180.952 171.091L181.093 171.232ZM194.917 169.456L194.817 169.629L194.818 169.63L194.917 169.456ZM198.997 173.68L198.818 173.768L199.197 173.68H198.997ZM198.997 154V153.8H198.797V154H198.997ZM182.197 186.256L182.054 186.395L182.055 186.396L182.197 186.256ZM196.117 186.256L196.259 186.397L196.117 186.256ZM196.117 172.24L195.974 172.379L195.976 172.381L196.117 172.24ZM182.197 172.192L182.055 172.052L182.054 172.053L182.197 172.192ZM225.253 154V153.8H225.053V154H225.253ZM226.837 154H227.037V153.8H226.837V154ZM226.837 190V190.2H227.037V190H226.837ZM225.253 190H225.053V190.2H225.253V190ZM225.253 176.272H225.453V176.072H225.253V176.272ZM200.581 176.272V176.072H200.381V176.272H200.581ZM200.581 190V190.2H200.781V190H200.581ZM200.581 154H200.781V153.8H200.581V154ZM200.581 174.88H200.381V175.08H200.581V174.88ZM225.253 174.88V175.08H225.453V174.88H225.253ZM235.452 187.12L235.307 187.258L235.308 187.259L235.452 187.12ZM235.5 171.232L235.64 171.374L235.641 171.373L235.5 171.232ZM251.628 171.232L251.485 171.372L251.487 171.374L251.628 171.232ZM251.724 187.12L251.579 186.982L251.724 187.12ZM250.524 172.192L250.38 172.331L250.381 172.332L250.524 172.192ZM236.604 172.24L236.461 172.1L236.461 172.1L236.604 172.24ZM236.604 186.256L236.461 186.396L236.463 186.399L236.604 186.256ZM250.572 186.256L250.714 186.396L250.715 186.395L250.572 186.256ZM274.519 172.96L274.332 173.032L274.538 173.569L274.71 173.02L274.519 172.96ZM277.255 169.264L277.143 169.098L277.141 169.099L277.255 169.264ZM289.591 190V190.2H289.791V190H289.591ZM288.055 190H287.855V190.2H288.055V190ZM286.231 171.088L286.088 171.228L286.089 171.229L286.231 171.088ZM277.255 171.136L277.117 170.991L277.115 170.993L277.255 171.136ZM275.287 190V190.2H275.487V190H275.287ZM273.751 190H273.551V190.2H273.751V190ZM271.927 171.136L271.782 171.274L271.784 171.276L271.927 171.136ZM262.999 171.136L263.14 171.277L262.999 171.136ZM261.079 190V190.2H261.279V190H261.079ZM259.543 190H259.343V190.2H259.543V190ZM259.543 168.4V168.2H259.343V168.4H259.543ZM261.079 168.4H261.279V168.2H261.079V168.4ZM261.079 171.424H260.879V172.085L261.245 171.535L261.079 171.424ZM263.911 168.928L263.814 168.753L263.813 168.754L263.911 168.928ZM271.783 169.312L271.661 169.471L271.664 169.472L271.783 169.312ZM303.083 188.944H303.283V188.744H303.083V188.944ZM303.083 190.288V190.488H303.283V190.288H303.083ZM297.275 188.032L297.137 188.176L297.138 188.178L297.275 188.032ZM294.875 159.712V159.512H294.675V159.712H294.875ZM296.411 159.712H296.611V159.512H296.411V159.712ZM296.411 168.448H296.211V168.648H296.411V168.448ZM303.035 168.448H303.235V168.248H303.035V168.448ZM303.035 169.792V169.992H303.235V169.792H303.035ZM296.411 169.792V169.592H296.211V169.792H296.411ZM298.331 187.024L298.19 187.165L298.192 187.167L298.331 187.024ZM119.264 168.6H120.8V168.2H119.264V168.6ZM120.6 168.4V187.984H121V168.4H120.6ZM120.6 187.984C120.6 191.658 119.587 194.532 117.583 196.63L117.873 196.906C119.965 194.716 121 191.734 121 187.984H120.6ZM117.583 196.63C115.578 198.729 112.945 199.784 109.664 199.784V200.184C113.039 200.184 115.782 199.095 117.873 196.906L117.583 196.63ZM109.664 199.784C107.872 199.784 106.125 199.375 104.423 198.556L104.249 198.916C106.003 199.761 107.808 200.184 109.664 200.184V199.784ZM104.423 198.556C102.72 197.736 101.404 196.668 100.467 195.356L100.141 195.588C101.124 196.964 102.496 198.072 104.249 198.916L104.423 198.556ZM100.504 195.472V193.264H100.104V195.472H100.504ZM100.128 193.359C100.98 194.933 102.305 196.238 104.091 197.277L104.293 196.931C102.559 195.922 101.292 194.667 100.48 193.169L100.128 193.359ZM104.093 197.278C105.912 198.317 107.769 198.84 109.664 198.84V198.44C107.847 198.44 106.056 197.939 104.291 196.93L104.093 197.278ZM109.664 198.84C112.531 198.84 114.889 197.86 116.722 195.896L116.43 195.624C114.679 197.5 112.429 198.44 109.664 198.44V198.84ZM116.721 195.898C118.557 193.963 119.464 191.317 119.464 187.984H119.064C119.064 191.243 118.179 193.781 116.431 195.622L116.721 195.898ZM119.464 187.984V184.768H119.064V187.984H119.464ZM119.084 184.68C118.24 186.401 116.909 187.78 115.085 188.818L115.283 189.166C117.171 188.092 118.56 186.655 119.444 184.856L119.084 184.68ZM115.085 188.818C113.257 189.858 111.371 190.376 109.424 190.376V190.776C111.445 190.776 113.399 190.238 115.283 189.166L115.085 188.818ZM109.424 190.376C106.341 190.376 103.703 189.293 101.5 187.122L101.22 187.406C103.497 189.651 106.235 190.776 109.424 190.776V190.376ZM101.501 187.123C99.2981 184.919 98.2 182.298 98.2 179.248H97.8C97.8 182.406 98.9419 185.129 101.219 187.405L101.501 187.123ZM98.2 179.248C98.2 176.198 99.298 173.593 101.5 171.422L101.22 171.138C98.942 173.383 97.8 176.09 97.8 179.248H98.2ZM101.501 171.421C103.704 169.219 106.342 168.12 109.424 168.12V167.72C106.234 167.72 103.496 168.862 101.219 171.139L101.501 171.421ZM109.424 168.12C111.468 168.12 113.369 168.638 115.13 169.676L115.334 169.332C113.511 168.258 111.54 167.72 109.424 167.72V168.12ZM115.134 169.678C116.923 170.683 118.238 172.077 119.083 173.862L119.445 173.69C118.562 171.827 117.189 170.373 115.33 169.33L115.134 169.678ZM119.464 173.776V168.4H119.064V173.776H119.464ZM99.336 179.248C99.336 182.022 100.334 184.424 102.321 186.444L102.607 186.164C100.69 184.216 99.736 181.914 99.736 179.248H99.336ZM102.324 186.447C104.344 188.434 106.729 189.432 109.472 189.432V189.032C106.839 189.032 104.552 188.078 102.604 186.161L102.324 186.447ZM109.472 189.432C112.246 189.432 114.617 188.434 116.575 186.444L116.289 186.164C114.407 188.078 112.138 189.032 109.472 189.032V189.432ZM116.576 186.443C118.531 184.422 119.512 182.021 119.512 179.248H119.112C119.112 181.915 118.173 184.218 116.288 186.165L116.576 186.443ZM119.512 179.248C119.512 176.475 118.531 174.089 116.575 172.1L116.289 172.38C118.173 174.295 119.112 176.581 119.112 179.248H119.512ZM116.576 172.101C114.619 170.079 112.247 169.064 109.472 169.064V169.464C112.137 169.464 114.405 170.433 116.288 172.379L116.576 172.101ZM109.472 169.064C106.728 169.064 104.342 170.079 102.323 172.099L102.605 172.381C104.554 170.433 106.84 169.464 109.472 169.464V169.064ZM102.323 172.099C100.334 174.087 99.336 176.474 99.336 179.248H99.736C99.736 176.582 100.69 174.297 102.605 172.381L102.323 172.099ZM136.607 190.328C133.591 190.328 131.002 189.215 128.83 186.981L128.544 187.259C130.788 189.569 133.479 190.728 136.607 190.728V190.328ZM128.831 186.982C126.657 184.713 125.575 182.09 125.575 179.104H125.175C125.175 182.198 126.301 184.919 128.543 187.258L128.831 186.982ZM125.575 179.104C125.575 176.12 126.672 173.546 128.875 171.374L128.595 171.09C126.318 173.334 125.175 176.008 125.175 179.104H125.575ZM128.876 171.373C131.079 169.171 133.717 168.072 136.799 168.072V167.672C133.609 167.672 130.871 168.814 128.594 171.091L128.876 171.373ZM136.799 168.072C139.914 168.072 142.55 169.171 144.721 171.372L145.005 171.092C142.76 168.813 140.02 167.672 136.799 167.672V168.072ZM144.723 171.374C146.925 173.546 148.023 176.135 148.023 179.152H148.423C148.423 176.025 147.281 173.334 145.003 171.09L144.723 171.374ZM148.023 179.152C148.023 182.138 146.956 184.745 144.815 186.982L145.103 187.258C147.314 184.951 148.423 182.246 148.423 179.152H148.023ZM144.815 186.982C142.676 189.215 140.088 190.328 137.039 190.328V190.728C140.198 190.728 142.89 189.569 145.103 187.258L144.815 186.982ZM137.039 190.328H136.607V190.728H137.039V190.328ZM146.887 179.248C146.887 176.474 145.889 174.072 143.902 172.052L143.616 172.332C145.533 174.28 146.487 176.582 146.487 179.248H146.887ZM143.903 172.053C141.946 170.031 139.591 169.016 136.847 169.016V169.416C139.479 169.416 141.732 170.385 143.615 172.331L143.903 172.053ZM136.847 169.016C134.102 169.016 131.716 170.048 129.696 172.1L129.982 172.38C131.93 170.4 134.216 169.416 136.847 169.416V169.016ZM129.696 172.1C127.709 174.12 126.711 176.505 126.711 179.248H127.111C127.111 176.615 128.065 174.328 129.982 172.38L129.696 172.1ZM126.711 179.248C126.711 181.991 127.709 184.376 129.696 186.396L129.982 186.116C128.065 184.168 127.111 181.881 127.111 179.248H126.711ZM129.699 186.399C131.719 188.386 134.104 189.384 136.847 189.384V188.984C134.214 188.984 131.927 188.03 129.979 186.113L129.699 186.399ZM136.847 189.384C139.621 189.384 141.992 188.386 143.95 186.396L143.664 186.116C141.782 188.03 139.513 188.984 136.847 188.984V189.384ZM143.951 186.395C145.906 184.375 146.887 181.989 146.887 179.248H146.487C146.487 181.883 145.548 184.169 143.663 186.117L143.951 186.395ZM162.81 190.328C159.794 190.328 157.205 189.215 155.034 186.981L154.747 187.259C156.991 189.569 159.682 190.728 162.81 190.728V190.328ZM155.035 186.982C152.86 184.713 151.778 182.09 151.778 179.104H151.378C151.378 182.198 152.504 184.919 154.746 187.258L155.035 186.982ZM151.778 179.104C151.778 176.12 152.875 173.546 155.079 171.374L154.798 171.09C152.521 173.334 151.378 176.008 151.378 179.104H151.778ZM155.08 171.373C157.282 169.171 159.92 168.072 163.002 168.072V167.672C159.812 167.672 157.074 168.814 154.797 171.091L155.08 171.373ZM163.002 168.072C166.117 168.072 168.754 169.171 170.924 171.372L171.209 171.092C168.963 168.813 166.223 167.672 163.002 167.672V168.072ZM170.926 171.374C173.129 173.546 174.226 176.135 174.226 179.152H174.626C174.626 176.025 173.484 173.334 171.207 171.09L170.926 171.374ZM174.226 179.152C174.226 182.138 173.159 184.745 171.018 186.982L171.307 187.258C173.517 184.951 174.626 182.246 174.626 179.152H174.226ZM171.018 186.982C168.879 189.215 166.291 190.328 163.242 190.328V190.728C166.401 190.728 169.093 189.569 171.307 187.258L171.018 186.982ZM163.242 190.328H162.81V190.728H163.242V190.328ZM173.09 179.248C173.09 176.474 172.093 174.072 170.105 172.052L169.82 172.332C171.736 174.28 172.69 176.582 172.69 179.248H173.09ZM170.106 172.053C168.149 170.031 165.794 169.016 163.05 169.016V169.416C165.682 169.416 167.935 170.385 169.818 172.331L170.106 172.053ZM163.05 169.016C160.305 169.016 157.919 170.048 155.9 172.1L156.185 172.38C158.133 170.4 160.419 169.416 163.05 169.416V169.016ZM155.9 172.1C153.912 174.12 152.914 176.505 152.914 179.248H153.314C153.314 176.615 154.268 174.328 156.185 172.38L155.9 172.1ZM152.914 179.248C152.914 181.991 153.912 184.376 155.9 186.396L156.185 186.116C154.268 184.168 153.314 181.881 153.314 179.248H152.914ZM155.902 186.399C157.922 188.386 160.308 189.384 163.05 189.384V188.984C160.417 188.984 158.13 188.03 156.182 186.113L155.902 186.399ZM163.05 189.384C165.824 189.384 168.195 188.386 170.153 186.396L169.868 186.116C167.985 188.03 165.716 188.984 163.05 188.984V189.384ZM170.154 186.395C172.109 184.375 173.09 181.989 173.09 179.248H172.69C172.69 181.883 171.751 184.169 169.866 186.117L170.154 186.395ZM200.333 154V190H200.733V154H200.333ZM200.533 189.8H198.997V190.2H200.533V189.8ZM199.197 190V184.768H198.797V190H199.197ZM198.822 184.672C197.88 186.398 196.515 187.78 194.721 188.819L194.921 189.165C196.775 188.092 198.194 186.658 199.173 184.864L198.822 184.672ZM194.723 188.818C192.926 189.826 191.088 190.328 189.205 190.328V190.728C191.163 190.728 193.068 190.206 194.919 189.166L194.723 188.818ZM189.205 190.328C186.089 190.328 183.436 189.244 181.234 187.074L180.953 187.358C183.231 189.604 185.985 190.728 189.205 190.728V190.328ZM181.236 187.076C179.064 184.872 177.981 182.251 177.981 179.2H177.581C177.581 182.357 178.706 185.08 180.951 187.356L181.236 187.076ZM177.981 179.2C177.981 176.149 179.064 173.544 181.235 171.373L180.952 171.091C178.707 173.336 177.581 176.043 177.581 179.2H177.981ZM181.235 171.373C183.437 169.171 186.09 168.072 189.205 168.072V167.672C185.984 167.672 183.229 168.813 180.952 171.091L181.235 171.373ZM189.205 168.072C191.152 168.072 193.022 168.59 194.817 169.629L195.017 169.283C193.165 168.21 191.227 167.672 189.205 167.672V168.072ZM194.818 169.63C196.643 170.668 197.973 172.047 198.818 173.768L199.177 173.592C198.294 171.793 196.904 170.356 195.016 169.282L194.818 169.63ZM199.197 173.68V154H198.797V173.68H199.197ZM198.997 154.2H200.533V153.8H198.997V154.2ZM179.117 179.248C179.117 181.989 180.099 184.375 182.054 186.395L182.341 186.117C180.456 184.169 179.517 181.883 179.517 179.248H179.117ZM182.055 186.396C184.011 188.386 186.367 189.384 189.109 189.384V188.984C186.476 188.984 184.223 188.03 182.34 186.116L182.055 186.396ZM189.109 189.384C191.883 189.384 194.27 188.386 196.259 186.397L195.976 186.115C194.061 188.03 191.775 188.984 189.109 188.984V189.384ZM196.259 186.397C198.278 184.378 199.293 181.992 199.293 179.248H198.893C198.893 181.88 197.924 184.166 195.976 186.115L196.259 186.397ZM199.293 179.248C199.293 176.504 198.278 174.118 196.259 172.099L195.976 172.381C197.924 174.33 198.893 176.616 198.893 179.248H199.293ZM196.261 172.101C194.273 170.048 191.902 169.016 189.157 169.016V169.416C191.788 169.416 194.057 170.4 195.974 172.379L196.261 172.101ZM189.157 169.016C186.414 169.016 184.043 170.031 182.055 172.052L182.34 172.332C184.256 170.385 186.525 169.416 189.157 169.416V169.016ZM182.054 172.053C180.098 174.074 179.117 176.475 179.117 179.248H179.517C179.517 176.581 180.456 174.278 182.341 172.331L182.054 172.053ZM225.253 154.2H226.837V153.8H225.253V154.2ZM226.637 154V190H227.037V154H226.637ZM226.837 189.8H225.253V190.2H226.837V189.8ZM225.453 190V176.272H225.053V190H225.453ZM225.253 176.072H200.581V176.472H225.253V176.072ZM200.381 176.272V190H200.781V176.272H200.381ZM200.581 189.8H198.997V190.2H200.581V189.8ZM199.197 190V154H198.797V190H199.197ZM198.997 154.2H200.581V153.8H198.997V154.2ZM200.381 154V174.88H200.781V154H200.381ZM200.581 175.08H225.253V174.68H200.581V175.08ZM225.453 174.88V154H225.053V174.88H225.453ZM243.372 190.328C240.356 190.328 237.767 189.215 235.595 186.981L235.308 187.259C237.553 189.569 240.244 190.728 243.372 190.728V190.328ZM235.596 186.982C233.422 184.713 232.34 182.09 232.34 179.104H231.94C231.94 182.198 233.066 184.919 235.307 187.258L235.596 186.982ZM232.34 179.104C232.34 176.12 233.437 173.546 235.64 171.374L235.359 171.09C233.083 173.334 231.94 176.008 231.94 179.104H232.34ZM235.641 171.373C237.844 169.171 240.481 168.072 243.564 168.072V167.672C240.374 167.672 237.635 168.814 235.358 171.091L235.641 171.373ZM243.564 168.072C246.679 168.072 249.315 169.171 251.485 171.372L251.77 171.092C249.524 168.813 246.785 167.672 243.564 167.672V168.072ZM251.487 171.374C253.69 173.546 254.788 176.135 254.788 179.152H255.188C255.188 176.025 254.045 173.334 251.768 171.09L251.487 171.374ZM254.788 179.152C254.788 182.138 253.721 184.745 251.579 186.982L251.868 187.258C254.078 184.951 255.188 182.246 255.188 179.152H254.788ZM251.579 186.982C249.44 189.215 246.852 190.328 243.804 190.328V190.728C246.963 190.728 249.655 189.569 251.868 187.258L251.579 186.982ZM243.804 190.328H243.372V190.728H243.804V190.328ZM253.652 179.248C253.652 176.474 252.654 174.072 250.666 172.052L250.381 172.332C252.297 174.28 253.252 176.582 253.252 179.248H253.652ZM250.667 172.053C248.711 170.031 246.356 169.016 243.612 169.016V169.416C246.244 169.416 248.497 170.385 250.38 172.331L250.667 172.053ZM243.612 169.016C240.867 169.016 238.481 170.048 236.461 172.1L236.746 172.38C238.695 170.4 240.98 169.416 243.612 169.416V169.016ZM236.461 172.1C234.474 174.12 233.476 176.505 233.476 179.248H233.876C233.876 176.615 234.83 174.328 236.746 172.38L236.461 172.1ZM233.476 179.248C233.476 181.991 234.474 184.376 236.461 186.396L236.746 186.116C234.83 184.168 233.876 181.881 233.876 179.248H233.476ZM236.463 186.399C238.483 188.386 240.869 189.384 243.612 189.384V188.984C240.978 188.984 238.692 188.03 236.744 186.113L236.463 186.399ZM243.612 189.384C246.386 189.384 248.757 188.386 250.714 186.396L250.429 186.116C248.546 188.03 246.278 188.984 243.612 188.984V189.384ZM250.715 186.395C252.67 184.375 253.652 181.989 253.652 179.248H253.252C253.252 181.883 252.313 184.169 250.428 186.117L250.715 186.395ZM274.71 173.02C275.176 171.527 276.061 170.332 277.369 169.429L277.141 169.099C275.761 170.052 274.822 171.321 274.328 172.9L274.71 173.02ZM277.367 169.43C278.704 168.528 280.328 168.072 282.247 168.072V167.672C280.262 167.672 278.558 168.144 277.143 169.098L277.367 169.43ZM282.247 168.072C284.145 168.072 285.808 168.754 287.245 170.129L287.521 169.839C286.014 168.398 284.253 167.672 282.247 167.672V168.072ZM287.245 170.129C288.67 171.492 289.391 173.34 289.391 175.696H289.791C289.791 173.252 289.04 171.292 287.521 169.839L287.245 170.129ZM289.391 175.696V190H289.791V175.696H289.391ZM289.591 189.8H288.055V190.2H289.591V189.8ZM288.255 190V175.696H287.855V190H288.255ZM288.255 175.696C288.255 173.792 287.629 172.203 286.372 170.947L286.089 171.229C287.265 172.405 287.855 173.888 287.855 175.696H288.255ZM286.374 170.948C285.121 169.662 283.597 169.016 281.815 169.016V169.416C283.488 169.416 284.909 170.018 286.088 171.228L286.374 170.948ZM281.815 169.016C280.062 169.016 278.494 169.679 277.117 170.991L277.393 171.281C278.703 170.033 280.175 169.416 281.815 169.416V169.016ZM277.115 170.993C275.768 172.307 275.087 173.845 275.087 175.6H275.487C275.487 173.963 276.118 172.525 277.395 171.279L277.115 170.993ZM275.087 175.6V190H275.487V175.6H275.087ZM275.287 189.8H273.751V190.2H275.287V189.8ZM273.951 190V175.6H273.551V190H273.951ZM273.951 175.6C273.951 173.819 273.322 172.281 272.07 170.996L271.784 171.276C272.964 172.487 273.551 173.925 273.551 175.6H273.951ZM272.072 170.998C270.819 169.679 269.295 169.016 267.511 169.016V169.416C269.183 169.416 270.603 170.033 271.782 171.274L272.072 170.998ZM267.511 169.016C265.727 169.016 264.173 169.679 262.857 170.995L263.14 171.277C264.385 170.033 265.839 169.416 267.511 169.416V169.016ZM262.857 170.995C261.543 172.309 260.879 173.847 260.879 175.6H261.279C261.279 173.961 261.895 172.523 263.14 171.277L262.857 170.995ZM260.879 175.6V190H261.279V175.6H260.879ZM261.079 189.8H259.543V190.2H261.079V189.8ZM259.743 190V168.4H259.343V190H259.743ZM259.543 168.6H261.079V168.2H259.543V168.6ZM260.879 168.4V171.424H261.279V168.4H260.879ZM261.245 171.535C261.864 170.607 262.782 169.794 264.009 169.102L263.813 168.754C262.544 169.47 261.574 170.321 260.912 171.313L261.245 171.535ZM264.007 169.103C265.26 168.414 266.539 168.072 267.847 168.072V167.672C266.466 167.672 265.121 168.034 263.814 168.753L264.007 169.103ZM267.847 168.072C269.173 168.072 270.443 168.533 271.661 169.471L271.905 169.153C270.627 168.171 269.273 167.672 267.847 167.672V168.072ZM271.664 169.472C272.88 170.377 273.769 171.562 274.332 173.032L274.706 172.888C274.117 171.35 273.182 170.103 271.902 169.152L271.664 169.472ZM302.883 188.944V190.288H303.283V188.944H302.883ZM303.083 190.088C300.86 190.088 298.974 189.354 297.412 187.886L297.138 188.178C298.777 189.718 300.762 190.488 303.083 190.488V190.088ZM297.414 187.888C295.856 186.392 295.075 184.494 295.075 182.176H294.675C294.675 184.594 295.495 186.6 297.137 188.176L297.414 187.888ZM295.075 182.176V159.712H294.675V182.176H295.075ZM294.875 159.912H296.411V159.512H294.875V159.912ZM296.211 159.712V168.448H296.611V159.712H296.211ZM296.411 168.648H303.035V168.248H296.411V168.648ZM302.835 168.448V169.792H303.235V168.448H302.835ZM303.035 169.592H296.411V169.992H303.035V169.592ZM296.211 169.792V182.176H296.611V169.792H296.211ZM296.211 182.176C296.211 184.176 296.869 185.845 298.19 187.165L298.473 186.883C297.233 185.643 296.611 184.08 296.611 182.176H296.211ZM298.192 187.167C299.542 188.484 301.176 189.144 303.083 189.144V188.744C301.279 188.744 299.745 188.124 298.471 186.881L298.192 187.167Z" fill="black" mask="url(#path-9-outside-1)"/>
<path d="M0 739L411 707.5V826L0 828V739Z" fill="black"/>
</g>
<defs>
<clipPath id="clip0">
<rect width="411" height="823" fill="white"/>
</clipPath>
</defs>
</svg>
