<svg width="411" height="734" viewBox="0 0 411 734" fill="none" xmlns="http://www.w3.org/2000/svg">
<mask id="path-1-outside-1" maskUnits="userSpaceOnUse" x="71.0835" y="0.189453" width="259" height="59" fill="black">
<rect fill="white" x="71.0835" y="0.189453" width="259" height="59"/>
<path d="M98.7218 19.2289H100.646V43.7626C100.646 48.4128 99.3632 52.0809 96.7976 54.7667C94.232 57.4526 90.8646 58.7955 86.6955 58.7955C84.4105 58.7955 82.1856 58.2744 80.0209 57.2321C77.8561 56.1898 76.1724 54.8269 74.9698 53.1432V50.3771C76.0121 52.3013 77.6356 53.9048 79.8405 55.1877C82.0854 56.4705 84.3704 57.1119 86.6955 57.1119C90.2232 57.1119 93.1095 55.9092 95.3544 53.504C97.5993 51.1388 98.7218 47.8917 98.7218 43.7626V39.7338C97.6394 41.9387 95.9357 43.7025 93.6106 45.0254C91.2855 46.3483 88.8803 47.0098 86.3948 47.0098C82.4662 47.0098 79.0989 45.6267 76.2927 42.8607C73.4866 40.0545 72.0835 36.7072 72.0835 32.8187C72.0835 28.9302 73.4866 25.6029 76.2927 22.8368C79.0989 20.0307 82.4662 18.6276 86.3948 18.6276C89.0005 18.6276 91.4258 19.2891 93.6707 20.612C95.9557 21.8948 97.6394 23.6787 98.7218 25.9637V19.2289ZM74.0077 32.8187C74.0077 36.2261 75.2304 39.1726 77.6757 41.658C80.1612 44.1034 83.0876 45.3261 86.455 45.3261C89.8624 45.3261 92.7688 44.1034 95.174 41.658C97.5793 39.1726 98.7819 36.2261 98.7819 32.8187C98.7819 29.4112 97.5793 26.4848 95.174 24.0395C92.7688 21.554 89.8624 20.3113 86.455 20.3113C83.0876 20.3113 80.1612 21.554 77.6757 24.0395C75.2304 26.4848 74.0077 29.4112 74.0077 32.8187Z"/>
<path d="M120.448 46.9496C116.6 46.9496 113.292 45.5265 110.526 42.6803C107.76 39.794 106.377 36.4466 106.377 32.6383C106.377 28.83 107.78 25.5428 110.587 22.7767C113.393 19.9706 116.76 18.5675 120.689 18.5675C124.657 18.5675 128.025 19.9706 130.791 22.7767C133.597 25.5428 135 28.85 135 32.6984C135 36.5068 133.637 39.834 130.911 42.6803C128.185 45.5265 124.878 46.9496 120.989 46.9496H120.448ZM133.076 32.8187C133.076 29.4112 131.853 26.4648 129.408 23.9793C127.002 21.4939 124.116 20.2512 120.749 20.2512C117.381 20.2512 114.455 21.5139 111.97 24.0395C109.524 26.5249 108.302 29.4513 108.302 32.8187C108.302 36.1861 109.524 39.1125 111.97 41.5979C114.455 44.0433 117.381 45.2659 120.749 45.2659C124.156 45.2659 127.063 44.0433 129.468 41.5979C131.873 39.1125 133.076 36.1861 133.076 32.8187Z"/>
<path d="M153.274 46.9496C149.425 46.9496 146.118 45.5265 143.352 42.6803C140.586 39.794 139.203 36.4466 139.203 32.6383C139.203 28.83 140.606 25.5428 143.412 22.7767C146.218 19.9706 149.586 18.5675 153.514 18.5675C157.483 18.5675 160.85 19.9706 163.617 22.7767C166.423 25.5428 167.826 28.85 167.826 32.6984C167.826 36.5068 166.463 39.834 163.737 42.6803C161.011 45.5265 157.704 46.9496 153.815 46.9496H153.274ZM165.902 32.8187C165.902 29.4112 164.679 26.4648 162.233 23.9793C159.828 21.4939 156.942 20.2512 153.575 20.2512C150.207 20.2512 147.281 21.5139 144.795 24.0395C142.35 26.5249 141.127 29.4513 141.127 32.8187C141.127 36.1861 142.35 39.1125 144.795 41.5979C147.281 44.0433 150.207 45.2659 153.575 45.2659C156.982 45.2659 159.888 44.0433 162.294 41.5979C164.699 39.1125 165.902 36.1861 165.902 32.8187Z"/>
<path d="M200.531 1.18945V46.2882H198.607V39.7338C197.404 41.9387 195.661 43.7025 193.376 45.0254C191.091 46.3082 188.745 46.9496 186.34 46.9496C182.371 46.9496 178.984 45.5666 176.178 42.8005C173.412 39.9944 172.029 36.6471 172.029 32.7586C172.029 28.87 173.412 25.5428 176.178 22.7767C178.984 19.9706 182.371 18.5675 186.34 18.5675C188.826 18.5675 191.211 19.2289 193.496 20.5518C195.821 21.8747 197.525 23.6386 198.607 25.8434V1.18945H200.531ZM173.953 32.8187C173.953 36.1861 175.156 39.1125 177.561 41.5979C179.966 44.0433 182.853 45.2659 186.22 45.2659C189.627 45.2659 192.554 44.0433 194.999 41.5979C197.485 39.1125 198.727 36.1861 198.727 32.8187C198.727 29.4513 197.485 26.5249 194.999 24.0395C192.554 21.5139 189.647 20.2512 186.28 20.2512C182.913 20.2512 180.006 21.4939 177.561 23.9793C175.156 26.4648 173.953 29.4112 173.953 32.8187Z"/>
<path d="M231.499 1.18945H233.483V46.2882H231.499V29.0905H200.591V46.2882H198.607V1.18945H200.591V27.3467H231.499V1.18945Z"/>
<path d="M254.197 46.9496C250.348 46.9496 247.041 45.5265 244.275 42.6803C241.509 39.794 240.126 36.4466 240.126 32.6383C240.126 28.83 241.529 25.5428 244.335 22.7767C247.141 19.9706 250.509 18.5675 254.437 18.5675C258.406 18.5675 261.773 19.9706 264.539 22.7767C267.346 25.5428 268.749 28.85 268.749 32.6984C268.749 36.5068 267.386 39.834 264.66 42.6803C261.934 45.5265 258.627 46.9496 254.738 46.9496H254.197ZM266.824 32.8187C266.824 29.4112 265.602 26.4648 263.156 23.9793C260.751 21.4939 257.865 20.2512 254.497 20.2512C251.13 20.2512 248.204 21.5139 245.718 24.0395C243.273 26.5249 242.05 29.4513 242.05 32.8187C242.05 36.1861 243.273 39.1125 245.718 41.5979C248.204 44.0433 251.13 45.2659 254.497 45.2659C257.905 45.2659 260.811 44.0433 263.217 41.5979C265.622 39.1125 266.824 36.1861 266.824 32.8187Z"/>
<path d="M293.216 24.9414C293.817 23.0172 294.96 21.4739 296.644 20.3113C298.367 19.1488 300.452 18.5675 302.897 18.5675C305.343 18.5675 307.487 19.4494 309.331 21.2133C311.175 22.9771 312.097 25.3624 312.097 28.3689V46.2882H310.173V28.3689C310.173 26.0439 309.412 24.1196 307.888 22.5963C306.365 21.0329 304.521 20.2512 302.356 20.2512C300.231 20.2512 298.327 21.0529 296.644 22.6564C295 24.26 294.178 26.124 294.178 28.2487V46.2882H292.254V28.2487C292.254 26.0839 291.492 24.2199 289.969 22.6564C288.446 21.0529 286.602 20.2512 284.437 20.2512C282.272 20.2512 280.388 21.0529 278.785 22.6564C277.181 24.26 276.379 26.124 276.379 28.2487V46.2882H274.455V19.2289H276.379V23.0172C277.181 21.8146 278.364 20.7723 279.927 19.8904C281.531 19.0085 283.174 18.5675 284.858 18.5675C286.582 18.5675 288.225 19.1688 289.789 20.3714C291.352 21.534 292.495 23.0573 293.216 24.9414Z"/>
<path d="M329 44.9653V46.649C326.154 46.649 323.729 45.7069 321.724 43.8228C319.72 41.8986 318.718 39.4532 318.718 36.4867V8.34512H320.642V19.2891H328.94V20.9728H320.642V36.4867C320.642 38.9321 321.444 40.9565 323.047 42.56C324.691 44.1635 326.675 44.9653 329 44.9653Z"/>
</mask>
<path d="M98.7218 19.2289H100.646V43.7626C100.646 48.4128 99.3632 52.0809 96.7976 54.7667C94.232 57.4526 90.8646 58.7955 86.6955 58.7955C84.4105 58.7955 82.1856 58.2744 80.0209 57.2321C77.8561 56.1898 76.1724 54.8269 74.9698 53.1432V50.3771C76.0121 52.3013 77.6356 53.9048 79.8405 55.1877C82.0854 56.4705 84.3704 57.1119 86.6955 57.1119C90.2232 57.1119 93.1095 55.9092 95.3544 53.504C97.5993 51.1388 98.7218 47.8917 98.7218 43.7626V39.7338C97.6394 41.9387 95.9357 43.7025 93.6106 45.0254C91.2855 46.3483 88.8803 47.0098 86.3948 47.0098C82.4662 47.0098 79.0989 45.6267 76.2927 42.8607C73.4866 40.0545 72.0835 36.7072 72.0835 32.8187C72.0835 28.9302 73.4866 25.6029 76.2927 22.8368C79.0989 20.0307 82.4662 18.6276 86.3948 18.6276C89.0005 18.6276 91.4258 19.2891 93.6707 20.612C95.9557 21.8948 97.6394 23.6787 98.7218 25.9637V19.2289ZM74.0077 32.8187C74.0077 36.2261 75.2304 39.1726 77.6757 41.658C80.1612 44.1034 83.0876 45.3261 86.455 45.3261C89.8624 45.3261 92.7688 44.1034 95.174 41.658C97.5793 39.1726 98.7819 36.2261 98.7819 32.8187C98.7819 29.4112 97.5793 26.4848 95.174 24.0395C92.7688 21.554 89.8624 20.3113 86.455 20.3113C83.0876 20.3113 80.1612 21.554 77.6757 24.0395C75.2304 26.4848 74.0077 29.4112 74.0077 32.8187Z" fill="black"/>
<path d="M120.448 46.9496C116.6 46.9496 113.292 45.5265 110.526 42.6803C107.76 39.794 106.377 36.4466 106.377 32.6383C106.377 28.83 107.78 25.5428 110.587 22.7767C113.393 19.9706 116.76 18.5675 120.689 18.5675C124.657 18.5675 128.025 19.9706 130.791 22.7767C133.597 25.5428 135 28.85 135 32.6984C135 36.5068 133.637 39.834 130.911 42.6803C128.185 45.5265 124.878 46.9496 120.989 46.9496H120.448ZM133.076 32.8187C133.076 29.4112 131.853 26.4648 129.408 23.9793C127.002 21.4939 124.116 20.2512 120.749 20.2512C117.381 20.2512 114.455 21.5139 111.97 24.0395C109.524 26.5249 108.302 29.4513 108.302 32.8187C108.302 36.1861 109.524 39.1125 111.97 41.5979C114.455 44.0433 117.381 45.2659 120.749 45.2659C124.156 45.2659 127.063 44.0433 129.468 41.5979C131.873 39.1125 133.076 36.1861 133.076 32.8187Z" fill="black"/>
<path d="M153.274 46.9496C149.425 46.9496 146.118 45.5265 143.352 42.6803C140.586 39.794 139.203 36.4466 139.203 32.6383C139.203 28.83 140.606 25.5428 143.412 22.7767C146.218 19.9706 149.586 18.5675 153.514 18.5675C157.483 18.5675 160.85 19.9706 163.617 22.7767C166.423 25.5428 167.826 28.85 167.826 32.6984C167.826 36.5068 166.463 39.834 163.737 42.6803C161.011 45.5265 157.704 46.9496 153.815 46.9496H153.274ZM165.902 32.8187C165.902 29.4112 164.679 26.4648 162.233 23.9793C159.828 21.4939 156.942 20.2512 153.575 20.2512C150.207 20.2512 147.281 21.5139 144.795 24.0395C142.35 26.5249 141.127 29.4513 141.127 32.8187C141.127 36.1861 142.35 39.1125 144.795 41.5979C147.281 44.0433 150.207 45.2659 153.575 45.2659C156.982 45.2659 159.888 44.0433 162.294 41.5979C164.699 39.1125 165.902 36.1861 165.902 32.8187Z" fill="black"/>
<path d="M200.531 1.18945V46.2882H198.607V39.7338C197.404 41.9387 195.661 43.7025 193.376 45.0254C191.091 46.3082 188.745 46.9496 186.34 46.9496C182.371 46.9496 178.984 45.5666 176.178 42.8005C173.412 39.9944 172.029 36.6471 172.029 32.7586C172.029 28.87 173.412 25.5428 176.178 22.7767C178.984 19.9706 182.371 18.5675 186.34 18.5675C188.826 18.5675 191.211 19.2289 193.496 20.5518C195.821 21.8747 197.525 23.6386 198.607 25.8434V1.18945H200.531ZM173.953 32.8187C173.953 36.1861 175.156 39.1125 177.561 41.5979C179.966 44.0433 182.853 45.2659 186.22 45.2659C189.627 45.2659 192.554 44.0433 194.999 41.5979C197.485 39.1125 198.727 36.1861 198.727 32.8187C198.727 29.4513 197.485 26.5249 194.999 24.0395C192.554 21.5139 189.647 20.2512 186.28 20.2512C182.913 20.2512 180.006 21.4939 177.561 23.9793C175.156 26.4648 173.953 29.4112 173.953 32.8187Z" fill="black"/>
<path d="M231.499 1.18945H233.483V46.2882H231.499V29.0905H200.591V46.2882H198.607V1.18945H200.591V27.3467H231.499V1.18945Z" fill="black"/>
<path d="M254.197 46.9496C250.348 46.9496 247.041 45.5265 244.275 42.6803C241.509 39.794 240.126 36.4466 240.126 32.6383C240.126 28.83 241.529 25.5428 244.335 22.7767C247.141 19.9706 250.509 18.5675 254.437 18.5675C258.406 18.5675 261.773 19.9706 264.539 22.7767C267.346 25.5428 268.749 28.85 268.749 32.6984C268.749 36.5068 267.386 39.834 264.66 42.6803C261.934 45.5265 258.627 46.9496 254.738 46.9496H254.197ZM266.824 32.8187C266.824 29.4112 265.602 26.4648 263.156 23.9793C260.751 21.4939 257.865 20.2512 254.497 20.2512C251.13 20.2512 248.204 21.5139 245.718 24.0395C243.273 26.5249 242.05 29.4513 242.05 32.8187C242.05 36.1861 243.273 39.1125 245.718 41.5979C248.204 44.0433 251.13 45.2659 254.497 45.2659C257.905 45.2659 260.811 44.0433 263.217 41.5979C265.622 39.1125 266.824 36.1861 266.824 32.8187Z" fill="black"/>
<path d="M293.216 24.9414C293.817 23.0172 294.96 21.4739 296.644 20.3113C298.367 19.1488 300.452 18.5675 302.897 18.5675C305.343 18.5675 307.487 19.4494 309.331 21.2133C311.175 22.9771 312.097 25.3624 312.097 28.3689V46.2882H310.173V28.3689C310.173 26.0439 309.412 24.1196 307.888 22.5963C306.365 21.0329 304.521 20.2512 302.356 20.2512C300.231 20.2512 298.327 21.0529 296.644 22.6564C295 24.26 294.178 26.124 294.178 28.2487V46.2882H292.254V28.2487C292.254 26.0839 291.492 24.2199 289.969 22.6564C288.446 21.0529 286.602 20.2512 284.437 20.2512C282.272 20.2512 280.388 21.0529 278.785 22.6564C277.181 24.26 276.379 26.124 276.379 28.2487V46.2882H274.455V19.2289H276.379V23.0172C277.181 21.8146 278.364 20.7723 279.927 19.8904C281.531 19.0085 283.174 18.5675 284.858 18.5675C286.582 18.5675 288.225 19.1688 289.789 20.3714C291.352 21.534 292.495 23.0573 293.216 24.9414Z" fill="black"/>
<path d="M329 44.9653V46.649C326.154 46.649 323.729 45.7069 321.724 43.8228C319.72 41.8986 318.718 39.4532 318.718 36.4867V8.34512H320.642V19.2891H328.94V20.9728H320.642V36.4867C320.642 38.9321 321.444 40.9565 323.047 42.56C324.691 44.1635 326.675 44.9653 329 44.9653Z" fill="black"/>
<path d="M98.7218 19.2289V19.0289H98.5218V19.2289H98.7218ZM100.646 19.2289H100.846V19.0289H100.646V19.2289ZM96.7976 54.7667L96.653 54.6286L96.653 54.6286L96.7976 54.7667ZM80.0209 57.2321L79.9341 57.4123L79.9341 57.4123L80.0209 57.2321ZM74.9698 53.1432H74.7698V53.2073L74.8071 53.2594L74.9698 53.1432ZM74.9698 50.3771L75.1457 50.2819L74.7698 50.3771H74.9698ZM79.8405 55.1877L79.7399 55.3605L79.7412 55.3613L79.8405 55.1877ZM95.3544 53.504L95.2094 53.3663L95.2082 53.3675L95.3544 53.504ZM98.7218 39.7338H98.9218L98.5423 39.6457L98.7218 39.7338ZM93.6106 45.0254L93.5117 44.8516L93.5117 44.8516L93.6106 45.0254ZM76.2927 42.8607L76.1513 43.0021L76.1523 43.0031L76.2927 42.8607ZM76.2927 22.8368L76.4331 22.9793L76.4341 22.9783L76.2927 22.8368ZM93.6707 20.612L93.5692 20.7843L93.5728 20.7864L93.6707 20.612ZM98.7218 25.9637L98.5411 26.0493L98.9218 25.9637H98.7218ZM77.6757 41.658L77.5332 41.7983L77.5355 41.8006L77.6757 41.658ZM95.174 41.658L95.3166 41.7983L95.3178 41.7971L95.174 41.658ZM95.174 24.0395L95.0303 24.1786L95.0315 24.1797L95.174 24.0395ZM77.6757 24.0395L77.8172 24.1809L77.8172 24.1809L77.6757 24.0395ZM110.526 42.6803L110.382 42.8187L110.383 42.8197L110.526 42.6803ZM110.587 22.7767L110.727 22.9191L110.728 22.9181L110.587 22.7767ZM130.791 22.7767L130.648 22.9171L130.65 22.9191L130.791 22.7767ZM130.911 42.6803L130.767 42.5419L130.767 42.5419L130.911 42.6803ZM129.408 23.9793L129.264 24.1184L129.265 24.1196L129.408 23.9793ZM111.97 24.0395L111.827 23.8992L111.827 23.8992L111.97 24.0395ZM111.97 41.5979L111.827 41.7382L111.829 41.7405L111.97 41.5979ZM129.468 41.5979L129.61 41.7382L129.612 41.737L129.468 41.5979ZM143.352 42.6803L143.208 42.8187L143.209 42.8197L143.352 42.6803ZM143.412 22.7767L143.553 22.9191L143.554 22.9181L143.412 22.7767ZM163.617 22.7767L163.474 22.9171L163.476 22.9191L163.617 22.7767ZM163.737 42.6803L163.592 42.5419L163.592 42.5419L163.737 42.6803ZM162.233 23.9793L162.09 24.1184L162.091 24.1196L162.233 23.9793ZM144.795 24.0395L144.653 23.8992L144.653 23.8992L144.795 24.0395ZM144.795 41.5979L144.653 41.7382L144.655 41.7405L144.795 41.5979ZM162.294 41.5979L162.436 41.7382L162.437 41.737L162.294 41.5979ZM200.531 1.18945H200.731V0.989453H200.531V1.18945ZM200.531 46.2882V46.4882H200.731V46.2882H200.531ZM198.607 46.2882H198.407V46.4882H198.607V46.2882ZM198.607 39.7338H198.807L198.431 39.6381L198.607 39.7338ZM193.376 45.0254L193.473 45.1998L193.476 45.1985L193.376 45.0254ZM176.178 42.8005L176.035 42.941L176.037 42.943L176.178 42.8005ZM176.178 22.7767L176.036 22.6353L176.036 22.6353L176.178 22.7767ZM193.496 20.5518L193.396 20.7249L193.397 20.7257L193.496 20.5518ZM198.607 25.8434L198.427 25.9316L198.807 25.8434H198.607ZM198.607 1.18945V0.989453H198.407V1.18945H198.607ZM177.561 41.5979L177.417 41.737L177.418 41.7382L177.561 41.5979ZM194.999 41.5979L195.141 41.7393L195.141 41.7393L194.999 41.5979ZM194.999 24.0395L194.855 24.1786L194.858 24.1809L194.999 24.0395ZM177.561 23.9793L177.418 23.8391L177.417 23.8403L177.561 23.9793ZM231.499 1.18945V0.989453H231.299V1.18945H231.499ZM233.483 1.18945H233.683V0.989453H233.483V1.18945ZM233.483 46.2882V46.4882H233.683V46.2882H233.483ZM231.499 46.2882H231.299V46.4882H231.499V46.2882ZM231.499 29.0905H231.699V28.8905H231.499V29.0905ZM200.591 29.0905V28.8905H200.391V29.0905H200.591ZM200.591 46.2882V46.4882H200.791V46.2882H200.591ZM200.591 1.18945H200.791V0.989453H200.591V1.18945ZM200.591 27.3467H200.391V27.5467H200.591V27.3467ZM231.499 27.3467V27.5467H231.699V27.3467H231.499ZM244.275 42.6803L244.131 42.8187L244.132 42.8197L244.275 42.6803ZM244.335 22.7767L244.476 22.9191L244.477 22.9181L244.335 22.7767ZM264.539 22.7767L264.397 22.9171L264.399 22.9191L264.539 22.7767ZM264.66 42.6803L264.515 42.5419L264.515 42.5419L264.66 42.6803ZM263.156 23.9793L263.013 24.1184L263.014 24.1196L263.156 23.9793ZM245.718 24.0395L245.576 23.8992L245.576 23.8992L245.718 24.0395ZM245.718 41.5979L245.576 41.7382L245.578 41.7405L245.718 41.5979ZM263.217 41.5979L263.359 41.7382L263.36 41.737L263.217 41.5979ZM293.216 24.9414L293.029 25.013L293.235 25.5507L293.407 25.0011L293.216 24.9414ZM296.644 20.3113L296.532 20.1455L296.53 20.1467L296.644 20.3113ZM312.097 46.2882V46.4882H312.297V46.2882H312.097ZM310.173 46.2882H309.973V46.4882H310.173V46.2882ZM307.888 22.5963L307.745 22.7359L307.747 22.7377L307.888 22.5963ZM296.644 22.6564L296.506 22.5116L296.504 22.5133L296.644 22.6564ZM294.178 46.2882V46.4882H294.378V46.2882H294.178ZM292.254 46.2882H292.054V46.4882H292.254V46.2882ZM289.969 22.6564L289.824 22.7942L289.826 22.796L289.969 22.6564ZM278.785 22.6564L278.926 22.7979L278.926 22.7979L278.785 22.6564ZM276.379 46.2882V46.4882H276.579V46.2882H276.379ZM274.455 46.2882H274.255V46.4882H274.455V46.2882ZM274.455 19.2289V19.0289H274.255V19.2289H274.455ZM276.379 19.2289H276.579V19.0289H276.379V19.2289ZM276.379 23.0172H276.179V23.6778L276.546 23.1282L276.379 23.0172ZM279.927 19.8904L279.831 19.7151L279.829 19.7162L279.927 19.8904ZM289.789 20.3714L289.667 20.53L289.669 20.5319L289.789 20.3714ZM329 44.9653H329.2V44.7653H329V44.9653ZM329 46.649V46.849H329.2V46.649H329ZM321.724 43.8228L321.586 43.9671L321.587 43.9685L321.724 43.8228ZM318.718 8.34512V8.14512H318.518V8.34512H318.718ZM320.642 8.34512H320.842V8.14512H320.642V8.34512ZM320.642 19.2891H320.442V19.4891H320.642V19.2891ZM328.94 19.2891H329.14V19.0891H328.94V19.2891ZM328.94 20.9728V21.1728H329.14V20.9728H328.94ZM320.642 20.9728V20.7728H320.442V20.9728H320.642ZM323.047 42.56L322.906 42.7014L322.907 42.7032L323.047 42.56ZM98.7218 19.4289H100.646V19.0289H98.7218V19.4289ZM100.446 19.2289V43.7626H100.846V19.2289H100.446ZM100.446 43.7626C100.446 48.375 99.1746 51.9887 96.653 54.6286L96.9422 54.9049C99.5518 52.173 100.846 48.4507 100.846 43.7626H100.446ZM96.653 54.6286C94.1299 57.2699 90.8173 58.5955 86.6955 58.5955V58.9955C90.9119 58.9955 94.3341 57.6353 96.9422 54.9049L96.653 54.6286ZM86.6955 58.5955C84.4421 58.5955 82.2467 58.0819 80.1076 57.0519L79.9341 57.4123C82.1245 58.467 84.3789 58.9955 86.6955 58.9955V58.5955ZM80.1076 57.0519C77.9683 56.0219 76.3127 54.6791 75.1326 53.0269L74.8071 53.2594C76.0322 54.9746 77.744 56.3578 79.9341 57.4123L80.1076 57.0519ZM75.1698 53.1432V50.3771H74.7698V53.1432H75.1698ZM74.794 50.4724C75.8565 52.4339 77.5087 54.0623 79.7399 55.3605L79.9411 55.0148C77.7626 53.7473 76.1677 52.1688 75.1457 50.2819L74.794 50.4724ZM79.7412 55.3613C82.0129 56.6594 84.3318 57.3119 86.6955 57.3119V56.9119C84.409 56.9119 82.1579 56.2815 79.9397 55.014L79.7412 55.3613ZM86.6955 57.3119C90.2742 57.3119 93.215 56.0894 95.5006 53.6404L95.2082 53.3675C93.0041 55.7291 90.1722 56.9119 86.6955 56.9119V57.3119ZM95.4995 53.6417C97.7884 51.2301 98.9218 47.9287 98.9218 43.7626H98.5218C98.5218 47.8547 97.4103 51.0474 95.2094 53.3663L95.4995 53.6417ZM98.9218 43.7626V39.7338H98.5218V43.7626H98.9218ZM98.5423 39.6457C97.4792 41.8113 95.8052 43.5467 93.5117 44.8516L93.7095 45.1992C96.0662 43.8584 97.7997 42.066 98.9013 39.822L98.5423 39.6457ZM93.5117 44.8516C91.2144 46.1587 88.8429 46.8098 86.3948 46.8098V47.2098C88.9176 47.2098 91.3567 46.5379 93.7095 45.1992L93.5117 44.8516ZM86.3948 46.8098C82.5189 46.8098 79.202 45.4475 76.4331 42.7182L76.1523 43.0031C78.9957 45.8059 82.4135 47.2098 86.3948 47.2098V46.8098ZM76.4341 42.7192C73.6646 39.9497 72.2835 36.6529 72.2835 32.8187H71.8835C71.8835 36.7615 73.3085 40.1593 76.1513 43.0021L76.4341 42.7192ZM72.2835 32.8187C72.2835 28.9845 73.6645 25.7083 76.4331 22.9793L76.1523 22.6944C73.3086 25.4975 71.8835 28.8758 71.8835 32.8187H72.2835ZM76.4341 22.9783C79.2032 20.2092 82.5199 18.8276 86.3948 18.8276V18.4276C82.4126 18.4276 78.9945 19.8522 76.1513 22.6954L76.4341 22.9783ZM86.3948 18.8276C88.9648 18.8276 91.3551 19.4795 93.5692 20.7843L93.7723 20.4397C91.4966 19.0986 89.0362 18.4276 86.3948 18.4276V18.8276ZM93.5728 20.7864C95.8231 22.0497 97.4771 23.8032 98.5411 26.0493L98.9026 25.8781C97.8018 23.5542 96.0884 21.7399 93.7687 20.4376L93.5728 20.7864ZM98.9218 25.9637V19.2289H98.5218V25.9637H98.9218ZM73.8077 32.8187C73.8077 36.28 75.052 39.2764 77.5332 41.7983L77.8183 41.5178C75.4088 39.0688 74.2077 36.1723 74.2077 32.8187H73.8077ZM77.5355 41.8006C80.0568 44.2813 83.0331 45.5261 86.455 45.5261V45.1261C83.1421 45.1261 80.2655 43.9255 77.816 41.5155L77.5355 41.8006ZM86.455 45.5261C89.9164 45.5261 92.874 44.2816 95.3166 41.7983L95.0315 41.5178C92.6635 43.9252 89.8084 45.1261 86.455 45.1261V45.5261ZM95.3178 41.7971C97.7585 39.275 98.9819 36.2789 98.9819 32.8187H98.5819C98.5819 36.1734 97.4001 39.0702 95.0303 41.519L95.3178 41.7971ZM98.9819 32.8187C98.9819 29.3584 97.7584 26.3817 95.3166 23.8992L95.0315 24.1797C97.4002 26.5879 98.5819 29.4641 98.5819 32.8187H98.9819ZM95.3178 23.9004C92.8755 21.3767 89.9175 20.1113 86.455 20.1113V20.5113C89.8073 20.5113 92.6621 21.7314 95.0303 24.1786L95.3178 23.9004ZM86.455 20.1113C83.032 20.1113 80.0554 21.3769 77.5343 23.898L77.8172 24.1809C80.2669 21.7311 83.1432 20.5113 86.455 20.5113V20.1113ZM77.5343 23.898C75.0521 26.3803 73.8077 29.3573 73.8077 32.8187H74.2077C74.2077 29.4652 75.4087 26.5894 77.8172 24.1809L77.5343 23.898ZM120.448 46.7496C116.656 46.7496 113.4 45.3497 110.67 42.5409L110.383 42.8197C113.185 45.7033 116.544 47.1496 120.448 47.1496V46.7496ZM110.671 42.5419C107.938 39.6908 106.577 36.3923 106.577 32.6383H106.177C106.177 36.501 107.582 39.8972 110.382 42.8187L110.671 42.5419ZM106.577 32.6383C106.577 28.8855 107.957 25.6491 110.727 22.9191L110.446 22.6343C107.603 25.4365 106.177 28.7744 106.177 32.6383H106.577ZM110.728 22.9181C113.497 20.1491 116.814 18.7675 120.689 18.7675V18.3675C116.706 18.3675 113.288 19.7921 110.445 22.6353L110.728 22.9181ZM120.689 18.7675C124.604 18.7675 127.92 20.1494 130.648 22.9171L130.933 22.6363C128.129 19.7917 124.71 18.3675 120.689 18.3675V18.7675ZM130.65 22.9191C133.419 25.6486 134.8 28.905 134.8 32.6984H135.2C135.2 28.795 133.774 25.4369 130.931 22.6343L130.65 22.9191ZM134.8 32.6984C134.8 36.4533 133.458 39.7315 130.767 42.5419L131.055 42.8186C133.816 39.9366 135.2 36.5603 135.2 32.6984H134.8ZM130.767 42.5419C128.078 45.3494 124.822 46.7496 120.989 46.7496V47.1496C124.933 47.1496 128.292 45.7036 131.055 42.8186L130.767 42.5419ZM120.989 46.7496H120.448V47.1496H120.989V46.7496ZM133.276 32.8187C133.276 29.3574 132.031 26.3609 129.55 23.8391L129.265 24.1196C131.675 26.5686 132.876 29.4651 132.876 32.8187H133.276ZM129.551 23.8403C127.11 21.3171 124.172 20.0512 120.749 20.0512V20.4512C124.06 20.4512 126.895 21.6707 129.264 24.1184L129.551 23.8403ZM120.749 20.0512C117.325 20.0512 114.348 21.3377 111.827 23.8992L112.112 24.1798C114.562 21.6902 117.438 20.4512 120.749 20.4512V20.0512ZM111.827 23.8992C109.346 26.4206 108.102 29.3968 108.102 32.8187H108.502C108.502 29.5058 109.702 26.6292 112.112 24.1797L111.827 23.8992ZM108.102 32.8187C108.102 36.2406 109.346 39.2168 111.827 41.7382L112.112 41.4576C109.702 39.0081 108.502 36.1315 108.502 32.8187H108.102ZM111.829 41.7405C114.351 44.2212 117.327 45.4659 120.749 45.4659V45.0659C117.436 45.0659 114.559 43.8653 112.11 41.4553L111.829 41.7405ZM120.749 45.4659C124.21 45.4659 127.168 44.2214 129.61 41.7382L129.325 41.4577C126.957 43.8651 124.102 45.0659 120.749 45.0659V45.4659ZM129.612 41.737C132.052 39.2154 133.276 36.2395 133.276 32.8187H132.876C132.876 36.1326 131.694 39.0096 129.324 41.4588L129.612 41.737ZM153.274 46.7496C149.481 46.7496 146.225 45.3497 143.496 42.5409L143.209 42.8197C146.011 45.7033 149.37 47.1496 153.274 47.1496V46.7496ZM143.497 42.5419C140.764 39.6908 139.403 36.3923 139.403 32.6383H139.003C139.003 36.501 140.408 39.8972 143.208 42.8187L143.497 42.5419ZM139.403 32.6383C139.403 28.8855 140.783 25.6491 143.553 22.9191L143.272 22.6343C140.429 25.4365 139.003 28.7744 139.003 32.6383H139.403ZM143.554 22.9181C146.323 20.1491 149.639 18.7675 153.514 18.7675V18.3675C149.532 18.3675 146.114 19.7921 143.271 22.6353L143.554 22.9181ZM153.514 18.7675C157.43 18.7675 160.746 20.1494 163.474 22.9171L163.759 22.6363C160.955 19.7917 157.536 18.3675 153.514 18.3675V18.7675ZM163.476 22.9191C166.245 25.6486 167.626 28.905 167.626 32.6984H168.026C168.026 28.795 166.6 25.4369 163.757 22.6343L163.476 22.9191ZM167.626 32.6984C167.626 36.4533 166.284 39.7315 163.592 42.5419L163.881 42.8186C166.641 39.9366 168.026 36.5603 168.026 32.6984H167.626ZM163.592 42.5419C160.904 45.3494 157.648 46.7496 153.815 46.7496V47.1496C157.759 47.1496 161.118 45.7036 163.881 42.8186L163.592 42.5419ZM153.815 46.7496H153.274V47.1496H153.815V46.7496ZM166.102 32.8187C166.102 29.3574 164.857 26.3609 162.376 23.8391L162.091 24.1196C164.5 26.5686 165.702 29.4651 165.702 32.8187H166.102ZM162.377 23.8403C159.935 21.3171 156.998 20.0512 153.575 20.0512V20.4512C156.886 20.4512 159.721 21.6707 162.09 24.1184L162.377 23.8403ZM153.575 20.0512C150.151 20.0512 147.174 21.3377 144.653 23.8992L144.938 24.1798C147.388 21.6902 150.264 20.4512 153.575 20.4512V20.0512ZM144.653 23.8992C142.172 26.4206 140.927 29.3968 140.927 32.8187H141.327C141.327 29.5058 142.528 26.6292 144.938 24.1797L144.653 23.8992ZM140.927 32.8187C140.927 36.2406 142.172 39.2168 144.653 41.7382L144.938 41.4576C142.528 39.0081 141.327 36.1315 141.327 32.8187H140.927ZM144.655 41.7405C147.176 44.2212 150.153 45.4659 153.575 45.4659V45.0659C150.262 45.0659 147.385 43.8653 144.936 41.4553L144.655 41.7405ZM153.575 45.4659C157.036 45.4659 159.994 44.2214 162.436 41.7382L162.151 41.4577C159.783 43.8651 156.928 45.0659 153.575 45.0659V45.4659ZM162.437 41.737C164.878 39.2154 166.102 36.2395 166.102 32.8187H165.702C165.702 36.1326 164.52 39.0096 162.15 41.4588L162.437 41.737ZM200.331 1.18945V46.2882H200.731V1.18945H200.331ZM200.531 46.0882H198.607V46.4882H200.531V46.0882ZM198.807 46.2882V39.7338H198.407V46.2882H198.807ZM198.431 39.6381C197.247 41.809 195.53 43.5468 193.275 44.8523L193.476 45.1985C195.791 43.8582 197.561 42.0683 198.783 39.8296L198.431 39.6381ZM193.278 44.851C191.02 46.1186 188.708 46.7496 186.34 46.7496V47.1496C188.783 47.1496 191.161 46.4979 193.473 45.1998L193.278 44.851ZM186.34 46.7496C182.424 46.7496 179.087 45.387 176.318 42.6581L176.037 42.943C178.881 45.7462 182.319 47.1496 186.34 47.1496V46.7496ZM176.32 42.6601C173.591 39.8909 172.229 36.5937 172.229 32.7586H171.829C171.829 36.7004 173.233 40.0979 176.035 42.9409L176.32 42.6601ZM172.229 32.7586C172.229 28.9234 173.591 25.6469 176.319 22.9181L176.036 22.6353C173.233 25.4386 171.829 28.8166 171.829 32.7586H172.229ZM176.319 22.9181C179.088 20.1495 182.425 18.7675 186.34 18.7675V18.3675C182.318 18.3675 178.88 19.7916 176.036 22.6353L176.319 22.9181ZM186.34 18.7675C188.788 18.7675 191.139 19.4185 193.396 20.7249L193.596 20.3787C191.283 19.0394 188.863 18.3675 186.34 18.3675V18.7675ZM193.397 20.7257C195.69 22.0306 197.364 23.766 198.427 25.9316L198.787 25.7553C197.685 23.5112 195.951 21.7189 193.595 20.378L193.397 20.7257ZM198.807 25.8434V1.18945H198.407V25.8434H198.807ZM198.607 1.38945H200.531V0.989453H198.607V1.38945ZM173.753 32.8187C173.753 36.2395 174.977 39.2154 177.417 41.737L177.705 41.4588C175.334 39.0096 174.153 36.1326 174.153 32.8187H173.753ZM177.418 41.7382C179.86 44.2209 182.798 45.4659 186.22 45.4659V45.0659C182.907 45.0659 180.072 43.8656 177.704 41.4577L177.418 41.7382ZM186.22 45.4659C189.681 45.4659 192.658 44.2216 195.141 41.7393L194.858 41.4565C192.449 43.865 189.573 45.0659 186.22 45.0659V45.4659ZM195.141 41.7393C197.662 39.2182 198.927 36.2416 198.927 32.8187H198.527C198.527 36.1305 197.307 39.0067 194.858 41.4565L195.141 41.7393ZM198.927 32.8187C198.927 29.3957 197.662 26.4192 195.141 23.898L194.858 24.1809C197.307 26.6307 198.527 29.5069 198.527 32.8187H198.927ZM195.143 23.9003C192.662 21.3378 189.704 20.0512 186.28 20.0512V20.4512C189.591 20.4512 192.446 21.6901 194.855 24.1786L195.143 23.9003ZM186.28 20.0512C182.857 20.0512 179.9 21.3169 177.418 23.8391L177.703 24.1196C180.113 21.6709 182.968 20.4512 186.28 20.4512V20.0512ZM177.417 23.8403C174.976 26.3624 173.753 29.3585 173.753 32.8187H174.153C174.153 29.464 175.335 26.5672 177.705 24.1184L177.417 23.8403ZM231.499 1.38945H233.483V0.989453H231.499V1.38945ZM233.283 1.18945V46.2882H233.683V1.18945H233.283ZM233.483 46.0882H231.499V46.4882H233.483V46.0882ZM231.699 46.2882V29.0905H231.299V46.2882H231.699ZM231.499 28.8905H200.591V29.2905H231.499V28.8905ZM200.391 29.0905V46.2882H200.791V29.0905H200.391ZM200.591 46.0882H198.607V46.4882H200.591V46.0882ZM198.807 46.2882V1.18945H198.407V46.2882H198.807ZM198.607 1.38945H200.591V0.989453H198.607V1.38945ZM200.391 1.18945V27.3467H200.791V1.18945H200.391ZM200.591 27.5467H231.499V27.1467H200.591V27.5467ZM231.699 27.3467V1.18945H231.299V27.3467H231.699ZM254.197 46.7496C250.404 46.7496 247.148 45.3497 244.419 42.5409L244.132 42.8197C246.934 45.7033 250.292 47.1496 254.197 47.1496V46.7496ZM244.42 42.5419C241.687 39.6908 240.326 36.3923 240.326 32.6383H239.926C239.926 36.501 241.331 39.8972 244.131 42.8187L244.42 42.5419ZM240.326 32.6383C240.326 28.8855 241.706 25.6491 244.476 22.9191L244.195 22.6343C241.352 25.4365 239.926 28.7744 239.926 32.6383H240.326ZM244.477 22.9181C247.246 20.1491 250.562 18.7675 254.437 18.7675V18.3675C250.455 18.3675 247.037 19.7921 244.194 22.6353L244.477 22.9181ZM254.437 18.7675C258.353 18.7675 261.669 20.1494 264.397 22.9171L264.682 22.6363C261.878 19.7917 258.459 18.3675 254.437 18.3675V18.7675ZM264.399 22.9191C267.168 25.6486 268.549 28.905 268.549 32.6984H268.949C268.949 28.795 267.523 25.4369 264.68 22.6343L264.399 22.9191ZM268.549 32.6984C268.549 36.4533 267.207 39.7315 264.515 42.5419L264.804 42.8186C267.564 39.9366 268.949 36.5603 268.949 32.6984H268.549ZM264.515 42.5419C261.826 45.3494 258.571 46.7496 254.738 46.7496V47.1496C258.682 47.1496 262.041 45.7036 264.804 42.8186L264.515 42.5419ZM254.738 46.7496H254.197V47.1496H254.738V46.7496ZM267.024 32.8187C267.024 29.3574 265.78 26.3609 263.299 23.8391L263.014 24.1196C265.423 26.5686 266.624 29.4651 266.624 32.8187H267.024ZM263.3 23.8403C260.858 21.3171 257.921 20.0512 254.497 20.0512V20.4512C257.809 20.4512 260.644 21.6707 263.013 24.1184L263.3 23.8403ZM254.497 20.0512C251.073 20.0512 248.097 21.3377 245.576 23.8992L245.861 24.1798C248.311 21.6902 251.187 20.4512 254.497 20.4512V20.0512ZM245.576 23.8992C243.095 26.4206 241.85 29.3968 241.85 32.8187H242.25C242.25 29.5058 243.451 26.6292 245.861 24.1797L245.576 23.8992ZM241.85 32.8187C241.85 36.2406 243.095 39.2168 245.576 41.7382L245.861 41.4576C243.451 39.0081 242.25 36.1315 242.25 32.8187H241.85ZM245.578 41.7405C248.099 44.2212 251.076 45.4659 254.497 45.4659V45.0659C251.185 45.0659 248.308 43.8653 245.859 41.4553L245.578 41.7405ZM254.497 45.4659C257.959 45.4659 260.917 44.2214 263.359 41.7382L263.074 41.4577C260.706 43.8651 257.851 45.0659 254.497 45.0659V45.4659ZM263.36 41.737C265.801 39.2154 267.024 36.2395 267.024 32.8187H266.624C266.624 36.1326 265.443 39.0096 263.073 41.4588L263.36 41.737ZM293.407 25.0011C293.995 23.1202 295.11 21.6135 296.757 20.4759L296.53 20.1467C294.81 21.3342 293.64 22.9143 293.025 24.8818L293.407 25.0011ZM296.755 20.4771C298.441 19.3406 300.485 18.7675 302.897 18.7675V18.3675C300.419 18.3675 298.294 18.957 296.532 20.1455L296.755 20.4771ZM302.897 18.7675C305.289 18.7675 307.385 19.6278 309.193 21.3578L309.47 21.0688C307.59 19.271 305.397 18.3675 302.897 18.3675V18.7675ZM309.193 21.3578C310.991 23.0772 311.897 25.4064 311.897 28.3689H312.297C312.297 25.3183 311.36 22.8771 309.47 21.0688L309.193 21.3578ZM311.897 28.3689V46.2882H312.297V28.3689H311.897ZM312.097 46.0882H310.173V46.4882H312.097V46.0882ZM310.373 46.2882V28.3689H309.973V46.2882H310.373ZM310.373 28.3689C310.373 25.9955 309.594 24.0189 308.03 22.4549L307.747 22.7377C309.229 24.2204 309.973 26.0923 309.973 28.3689H310.373ZM308.032 22.4567C306.471 20.855 304.575 20.0512 302.356 20.0512V20.4512C304.466 20.4512 306.259 21.2107 307.745 22.7359L308.032 22.4567ZM302.356 20.0512C300.175 20.0512 298.223 20.8763 296.506 22.5116L296.782 22.8013C298.432 21.2295 300.288 20.4512 302.356 20.4512V20.0512ZM296.504 22.5133C294.825 24.1511 293.978 26.0655 293.978 28.2487H294.378C294.378 26.1826 295.175 24.3688 296.783 22.7996L296.504 22.5133ZM293.978 28.2487V46.2882H294.378V28.2487H293.978ZM294.178 46.0882H292.254V46.4882H294.178V46.0882ZM292.454 46.2882V28.2487H292.054V46.2882H292.454ZM292.454 28.2487C292.454 26.0313 291.672 24.1173 290.112 22.5169L289.826 22.796C291.313 24.3224 292.054 26.1366 292.054 28.2487H292.454ZM290.114 22.5187C288.554 20.8764 286.658 20.0512 284.437 20.0512V20.4512C286.546 20.4512 288.338 21.2295 289.824 22.7942L290.114 22.5187ZM284.437 20.0512C282.216 20.0512 280.282 20.876 278.643 22.515L278.926 22.7979C280.494 21.2299 282.328 20.4512 284.437 20.4512V20.0512ZM278.643 22.515C277.005 24.1532 276.179 26.0672 276.179 28.2487H276.579C276.579 26.1809 277.357 24.3667 278.926 22.7979L278.643 22.515ZM276.179 28.2487V46.2882H276.579V28.2487H276.179ZM276.379 46.0882H274.455V46.4882H276.379V46.0882ZM274.655 46.2882V19.2289H274.255V46.2882H274.655ZM274.455 19.4289H276.379V19.0289H274.455V19.4289ZM276.179 19.2289V23.0172H276.579V19.2289H276.179ZM276.546 23.1282C277.326 21.9573 278.483 20.9347 280.025 20.0646L279.829 19.7162C278.244 20.6099 277.036 21.672 276.213 22.9063L276.546 23.1282ZM280.023 20.0656C281.6 19.1985 283.211 18.7675 284.858 18.7675V18.3675C283.138 18.3675 281.461 18.8184 279.831 19.7151L280.023 20.0656ZM284.858 18.7675C286.531 18.7675 288.133 19.3502 289.667 20.53L289.911 20.2129C288.317 18.9875 286.632 18.3675 284.858 18.3675V18.7675ZM289.669 20.5319C291.201 21.671 292.321 23.163 293.029 25.013L293.403 24.8699C292.668 22.9517 291.503 21.397 289.908 20.2109L289.669 20.5319ZM328.8 44.9653V46.649H329.2V44.9653H328.8ZM329 46.449C326.203 46.449 323.827 45.525 321.861 43.6771L321.587 43.9685C323.63 45.8888 326.105 46.849 329 46.849V46.449ZM321.863 43.6785C319.9 41.7948 318.918 39.4029 318.918 36.4867H318.518C318.518 39.5036 319.539 42.0024 321.586 43.9671L321.863 43.6785ZM318.918 36.4867V8.34512H318.518V36.4867H318.918ZM318.718 8.54512H320.642V8.14512H318.718V8.54512ZM320.442 8.34512V19.2891H320.842V8.34512H320.442ZM320.642 19.4891H328.94V19.0891H320.642V19.4891ZM328.74 19.2891V20.9728H329.14V19.2891H328.74ZM328.94 20.7728H320.642V21.1728H328.94V20.7728ZM320.442 20.9728V36.4867H320.842V20.9728H320.442ZM320.442 36.4867C320.442 38.9805 321.261 41.0573 322.906 42.7014L323.188 42.4186C321.626 40.8557 320.842 38.8836 320.842 36.4867H320.442ZM322.907 42.7032C324.589 44.3436 326.624 45.1653 329 45.1653V44.7653C326.726 44.7653 324.792 43.9834 323.187 42.4169L322.907 42.7032Z" fill="black" mask="url(#path-1-outside-1)"/>
<path d="M142.784 213.592H82.6074C117.051 368.388 205.732 429.505 278.181 451.922C189.896 424.606 138.429 283.666 142.784 213.592Z" fill="#C4C4C4" fill-opacity="0.3"/>
<path d="M157.031 214.236C130.704 264.54 122.01 312.037 186.377 301.247L157.031 214.236Z" fill="#F7F7FA"/>
<path d="M249.677 230.693C220.013 231.91 159.954 229.719 157.028 211.217M149.714 230.693C135.288 257.878 121.432 310.058 181.41 301.293" stroke="black" stroke-width="2"/>
<path d="M140.533 537.214C-10.4879 461.172 73.4009 413.225 126.614 397.586C142.537 424.383 203.53 483.62 245.371 500.544L410 557.168H83.8737C90.1864 527.921 120.906 529.699 140.533 537.214Z" fill="#4A40FF" stroke="#4A40FF" stroke-width="2"/>
<path d="M119.428 221.666H63.605C65.8375 275.494 102.623 425.927 244.854 500.514L335.564 530.393L281.386 457.249L268.184 470.462M248.091 247.869C260.674 249.494 278.291 257.132 248.091 274.682M147.628 274.682C151.89 277.526 163.824 280.654 177.463 270.416M177.463 264.322C177.057 267.776 177.706 274.682 183.551 274.682M171.374 185.104C166.706 170.682 172.47 145.251 232.869 158.901C293.269 172.551 301.062 164.588 297.409 158.901M222.519 296.01C305.933 294.385 431.847 320.75 268.184 439.212M268.184 328.916C253.165 343.744 228.12 381.078 248.091 411.791" stroke="black" stroke-width="2"/>
<path d="M304.504 487.018L280.941 511.651L336.099 530.93L304.504 487.018Z" fill="black"/>
<path d="M111.384 372.199C44.9252 390.771 -40.9477 452.086 147.665 542.386C123.154 533.462 76.6224 501.288 62.9886 557.704" stroke="black" stroke-width="2"/>
<rect x="-15" y="557.996" width="430" height="182" fill="#4A40FF"/>
</svg>
