<svg width="30" height="29" viewBox="0 0 30 29" fill="none" xmlns="http://www.w3.org/2000/svg">
<path fill-rule="evenodd" clip-rule="evenodd" d="M10.4933 13.9403C13.6436 14.3873 17.3721 14.4292 19.8441 14.3277L19.9178 16.1231C17.3817 16.2271 13.5362 16.1869 10.2409 15.7193C8.59998 15.4865 7.0388 15.1403 5.83319 14.6235C4.68685 14.1323 3.55295 13.3513 3.35155 12.0776L5.12636 11.7969C5.17193 12.0852 5.49075 12.5218 6.54107 12.972C7.53212 13.3968 8.91154 13.7158 10.4933 13.9403ZM0.523256 18.991C0.946973 17.4707 1.57635 15.9992 2.21044 14.8043L3.79768 15.6466C3.214 16.7464 2.63766 18.0974 2.25417 19.4734C1.86779 20.8599 1.69497 22.2089 1.85815 23.3321C2.01744 24.4285 2.48393 25.2599 3.36183 25.7788C4.27871 26.3207 5.79321 26.6114 8.22537 26.256L8.48519 28.034C5.85427 28.4185 3.86389 28.1628 2.44754 27.3257C0.992199 26.4654 0.297127 25.0852 0.07994 23.5904C-0.133349 22.1224 0.10247 20.5009 0.523256 18.991Z" fill="white"/>
<path fill-rule="evenodd" clip-rule="evenodd" d="M7.61985 5.19628C7.37498 6.10324 7.39203 6.87156 7.51617 7.25505L5.80661 7.80839C5.53669 6.97446 5.58902 5.82446 5.88509 4.7279C6.18726 3.60875 6.77952 2.40612 7.73942 1.4877C8.7183 0.551099 10.0572 -0.0645511 11.7517 0.00540257C13.4181 0.0741951 15.3478 0.801624 17.5639 2.3753C20.2773 4.30206 22.2782 5.27678 23.7247 5.67975C25.1663 6.08138 25.964 5.89277 26.3929 5.63402C26.8259 5.37285 27.0686 4.92854 27.1669 4.43737C27.2156 4.19455 27.2226 3.96496 27.2063 3.78616C27.1925 3.63347 27.1668 3.56943 27.1686 3.5687C27.1691 3.56842 27.1737 3.5771 27.1842 3.59338L28.696 2.62228C28.8884 2.92192 28.9667 3.30436 28.9958 3.623C29.0278 3.97299 29.0116 4.37632 28.9288 4.79005C28.7643 5.612 28.3112 6.57539 27.321 7.17267C26.3267 7.77237 24.9735 7.89297 23.2424 7.4107C21.516 6.92978 19.3219 5.82752 16.5236 3.84037C14.4777 2.38757 12.8801 1.85039 11.6776 1.80075C10.5031 1.75227 9.63138 2.16436 8.98164 2.78601C8.31294 3.42582 7.85861 4.31191 7.61985 5.19628ZM20.8838 19.3652C20.4794 19.1981 19.9769 19.0813 19.4985 19.0195L19.7287 17.2374C20.3125 17.3129 20.9785 17.4601 21.5701 17.7046C22.1282 17.9351 22.7879 18.3208 23.1221 18.9746C23.5121 19.737 23.3215 20.554 22.783 21.2744C22.2697 21.9611 21.3757 22.6703 20.065 23.432L19.1623 21.8784C20.4009 21.1587 21.047 20.5956 21.3437 20.1986C21.4866 20.0075 21.5206 19.8917 21.528 19.8462C21.5333 19.8145 21.5294 19.8064 21.5224 19.7927C21.4849 19.7194 21.3214 19.5461 20.8838 19.3652ZM9.55946 22.6257C6.95831 24.5782 4.31247 24.0987 3.26929 23.4026L4.26658 21.9079C4.66254 22.1722 6.47666 22.693 8.48076 21.1886L9.55946 22.6257Z" fill="white"/>
</svg>
