<svg width="28" height="28" viewBox="0 0 28 28" fill="none" xmlns="http://www.w3.org/2000/svg">
<path d="M10.0221 14.1979L10.0221 14.1979C12.8166 14.5945 16.055 14.6659 18.4334 14.6037L18.443 14.8377C16.0555 14.9004 12.8018 14.8289 9.98922 14.4298L9.98918 14.4298C8.43023 14.2087 6.99934 13.8859 5.92531 13.4254L5.92522 13.4254C5.19336 13.1118 4.60995 12.7266 4.27347 12.2527L4.53622 12.2111C4.84328 12.5907 5.34724 12.9229 6.01753 13.2102L6.01755 13.2103C7.06366 13.6586 8.47089 13.9778 10.0221 14.1979ZM1.45311 18.5942L1.4531 18.5942C1.06584 19.9839 0.872743 21.3996 1.05116 22.6276C1.22923 23.8533 1.77558 24.884 2.86298 25.5267C3.84078 26.1047 5.27214 26.3785 7.3025 26.1759L7.3364 26.4078C5.27154 26.6155 3.78145 26.3417 2.74379 25.7285C1.58078 25.0409 1.00492 23.9383 0.81936 22.6612C0.634422 21.3883 0.835733 19.9371 1.22748 18.5314C1.54423 17.3948 1.98699 16.2826 2.45695 15.3101L2.664 15.4199C2.20075 16.3796 1.7648 17.4759 1.45311 18.5942Z" fill="white" stroke="white" stroke-width="1.5"/>
<path d="M5.68085 4.56305L6.40492 4.75855C6.23197 5.39911 6.16296 6.02735 6.19177 6.55794L6.42277 6.48317C6.40404 5.99763 6.46915 5.41924 6.63104 4.8196C6.88798 3.86794 7.38409 2.88068 8.15093 2.14696L8.15094 2.14695C8.91557 1.41538 9.95193 0.932855 11.3023 0.988605C12.6564 1.0445 14.3369 1.64231 16.3827 3.09496L16.3827 3.09497C19.0479 4.9876 21.0848 5.9982 22.6342 6.42982L22.433 7.15231L22.6342 6.42982C24.1849 6.86182 25.2587 6.71656 25.982 6.28034C26.7044 5.84459 27.0544 5.1321 27.1857 4.47586L27.9211 4.62303L27.1857 4.47586C27.2398 4.20559 27.2573 3.94304 27.2483 3.71011L27.0161 3.85925C27.0142 4.03748 26.9958 4.23126 26.956 4.43001M5.68085 4.56305C5.97248 3.48293 6.54409 2.32223 7.47052 1.43583C8.41527 0.531884 9.70746 -0.0623003 11.3429 0.0052142C12.9512 0.0716082 14.8136 0.773674 16.9524 2.29248C19.5712 4.15206 21.5023 5.09279 22.8984 5.48171C24.2898 5.86933 25.0596 5.68731 25.4736 5.43758M5.68085 4.56305L6.40492 4.75855C6.67012 3.77632 7.18419 2.74778 7.98902 1.97774L7.98902 1.97773C8.79649 1.20514 9.89374 0.696029 11.3119 0.754576C12.7266 0.812975 14.4503 1.43559 16.5182 2.90398L16.5182 2.90399C19.1725 4.78875 21.1842 5.78273 22.6971 6.2042C24.2104 6.62577 25.2117 6.47142 25.8609 6.07982M5.68085 4.56305L25.8609 6.07982M26.956 4.43001L26.3245 4.30347L26.1978 4.38484C26.0909 4.81786 25.8613 5.20376 25.4736 5.43758M26.956 4.43001C26.8331 5.04428 26.51 5.68839 25.8609 6.07982M26.956 4.43001C26.956 4.42994 26.956 4.42987 26.956 4.4298L26.3245 4.30345L25.8609 6.07982M25.4736 5.43758L25.8609 6.07982M25.4736 5.43758L25.861 6.07977C25.861 6.07978 25.8609 6.0798 25.8609 6.07982M26.2221 3.44449C26.2221 3.44527 26.2229 3.44799 26.2242 3.45282C26.2256 3.45751 26.2274 3.4642 26.2297 3.473C26.2377 3.50445 26.2504 3.56289 26.2586 3.65415M26.2221 3.44449L27.0056 3.58653C26.9959 3.48001 26.9813 3.39522 26.9664 3.32933C26.959 3.29618 26.9521 3.27083 26.9476 3.25478C26.9435 3.24014 26.9467 3.25143 26.948 3.2565C26.9489 3.25967 26.9506 3.26615 26.9525 3.27452C26.9542 3.28165 26.958 3.29808 26.9616 3.31936L26.9617 3.32023C26.964 3.33362 26.9737 3.39031 26.9719 3.46297C26.9714 3.48538 26.9695 3.53138 26.9578 3.59037L26.3514 3.64569L26.3241 3.64818L26.306 3.64982L26.2586 3.65415M26.2221 3.44449L26.2226 3.44525L26.223 3.44588L26.2359 3.46592M26.2221 3.44449L26.2359 3.46592M26.2586 3.65415C26.2724 3.80483 26.2689 3.99288 26.2366 4.19418C26.321 4.19284 26.4156 4.17704 26.5141 4.13523L26.5054 4.13876C26.5138 4.13531 26.5221 4.13176 26.5303 4.1281C26.5393 4.12403 26.5483 4.11973 26.5574 4.11521L26.5483 4.11977C26.5766 4.10619 26.603 4.0914 26.6276 4.07571C26.8186 3.95386 26.9002 3.7778 26.9304 3.6911C26.9429 3.65522 26.9516 3.62132 26.9577 3.59087L26.3514 3.64575L26.3241 3.64822L26.306 3.64986L26.2586 3.65415ZM26.2359 3.46592C26.2364 3.46663 26.2368 3.46735 26.2373 3.46809L26.8683 3.06277C26.8687 3.06337 26.869 3.0638 26.869 3.0638L26.8683 3.06276L27.0654 2.93618C27.1549 3.07566 27.2149 3.30292 27.2389 3.56482L26.2359 3.46592ZM20.443 17.9968L20.4432 17.9969C20.7004 18.1032 20.9028 18.2178 21.0592 18.335C21.2005 18.4408 21.3483 18.5815 21.4396 18.7591C21.4398 18.7595 21.4401 18.76 21.4405 18.7607C21.4485 18.7758 21.5007 18.874 21.5213 19.0072C21.5404 19.1309 21.5257 19.2323 21.5183 19.2769M20.443 17.9968L20.7784 19.1542M20.443 17.9968C20.1971 17.8952 19.928 17.8124 19.6545 17.7472L19.6847 17.5137C19.9767 17.5822 20.2665 17.6705 20.5324 17.7804L20.5326 17.7805C21.021 17.9822 21.4505 18.2658 21.6491 18.6543L21.6492 18.6545C21.8533 19.0537 21.8003 19.5332 21.3888 20.0836L21.3888 20.0836C21.0591 20.5248 20.4946 21.0199 19.6299 21.5759L19.5122 21.3732C20.3587 20.8279 20.8954 20.3525 21.2012 19.9433M20.443 17.9968L20.6004 19.4944M21.5183 19.2769L20.7784 19.1542M21.5183 19.2769C21.5183 19.2765 21.5184 19.2761 21.5185 19.2757L20.7784 19.1542M21.5183 19.2769C21.4861 19.4714 21.3883 19.693 21.2012 19.9433M20.7784 19.1542C20.7712 19.1981 20.7384 19.3099 20.6004 19.4944M21.2012 19.9433L20.6004 19.4944M21.2012 19.9433C21.2012 19.9434 21.2011 19.9434 21.2011 19.9435L20.6004 19.4944M8.01041 21.4652L8.15195 21.6538C6.62067 22.5518 5.17631 22.5251 4.27141 22.2666L4.40824 22.0615C4.7439 22.149 5.14967 22.2013 5.59505 22.1866C6.30284 22.1633 7.1382 21.9716 8.01041 21.4652Z" fill="white" stroke="white" stroke-width="1.5"/>
</svg>
