<svg width="25" height="25" viewBox="0 0 25 25" fill="none" xmlns="http://www.w3.org/2000/svg">
<path fill-rule="evenodd" clip-rule="evenodd" d="M9.03855 12.0064C11.752 12.3914 14.9636 12.4275 17.093 12.3401L17.1564 13.8866C14.9719 13.9762 11.6595 13.9416 8.82113 13.5388C7.40768 13.3383 6.06294 13.0401 5.02448 12.5949C4.03706 12.1718 3.06037 11.4991 2.88689 10.402L4.41564 10.1602C4.4549 10.4085 4.72952 10.7846 5.63421 11.1724C6.48787 11.5383 7.67605 11.813 9.03855 12.0064ZM0.450712 16.3569C0.815685 15.0474 1.3578 13.7799 1.90398 12.7506L3.27117 13.4762C2.76842 14.4235 2.27198 15.5872 1.94165 16.7724C1.60884 17.9667 1.45998 19.1287 1.60054 20.0961C1.73774 21.0405 2.13956 21.7566 2.89575 22.2036C3.68551 22.6704 4.99004 22.9208 7.08501 22.6147L7.3088 24.1461C5.04264 24.4774 3.3282 24.2571 2.10821 23.5361C0.85464 22.7951 0.255933 21.6062 0.0688571 20.3187C-0.114861 19.0541 0.0882637 17.6575 0.450712 16.3569Z" fill="#4A40FF"/>
<path fill-rule="evenodd" clip-rule="evenodd" d="M6.56381 4.47587C6.35288 5.25709 6.36757 5.91889 6.4745 6.24921L5.00195 6.72584C4.76946 6.00752 4.81453 5.01696 5.06956 4.07243C5.32983 3.10844 5.83998 2.07254 6.6668 1.28144C7.50997 0.474695 8.66322 -0.0556017 10.1228 0.00465356C11.5582 0.0639087 13.2203 0.690487 15.1292 2.04599C17.4664 3.70562 19.1899 4.54521 20.4358 4.89231C21.6776 5.23826 22.3647 5.0758 22.7341 4.85292C23.1071 4.62796 23.3162 4.24525 23.4009 3.82218C23.4428 3.61302 23.4488 3.41526 23.4348 3.26125C23.4229 3.12972 23.4007 3.07457 23.4023 3.07393C23.4028 3.0737 23.4067 3.08117 23.4157 3.0952L24.718 2.25873C24.8837 2.51683 24.9511 2.84625 24.9762 3.12071C25.0037 3.42218 24.9898 3.76959 24.9185 4.12596C24.7768 4.83396 24.3865 5.66378 23.5336 6.17825C22.6771 6.69481 21.5115 6.79869 20.0204 6.38328C18.5334 5.96903 16.6435 5.01959 14.2332 3.30794C12.4709 2.05656 11.0948 1.59385 10.059 1.5511C9.04735 1.50933 8.29646 1.86429 7.7368 2.39976C7.16081 2.95086 6.76947 3.71411 6.56381 4.47587ZM17.9888 16.6804C17.6405 16.5364 17.2077 16.4358 16.7956 16.3826L16.9939 14.8476C17.4968 14.9126 18.0704 15.0394 18.58 15.25C19.0607 15.4486 19.629 15.7808 19.9169 16.3439C20.2527 17.0007 20.0886 17.7044 19.6247 18.3249C19.1826 18.9164 18.4126 19.5273 17.2835 20.1834L16.506 18.8452C17.5729 18.2253 18.1295 17.7402 18.3849 17.3983C18.5081 17.2336 18.5373 17.1339 18.5438 17.0947C18.5483 17.0674 18.545 17.0604 18.5389 17.0486C18.5066 16.9855 18.3658 16.8362 17.9888 16.6804ZM8.23451 19.4888C5.99398 21.1707 3.71496 20.7576 2.81641 20.1581L3.67543 18.8706C4.0165 19.0982 5.57911 19.5468 7.30536 18.251L8.23451 19.4888Z" fill="#4A40FF"/>
</svg>
