<svg width="24" height="24" viewBox="0 0 24 24" fill="none" xmlns="http://www.w3.org/2000/svg">
<path fill-rule="evenodd" clip-rule="evenodd" d="M12 10.7C14.0435 10.7 15.7 9.04345 15.7 7C15.7 4.95655 14.0435 3.3 12 3.3C9.95655 3.3 8.3 4.95655 8.3 7C8.3 9.04345 9.95655 10.7 12 10.7ZM12 12C14.7614 12 17 9.76142 17 7C17 4.23858 14.7614 2 12 2C9.23858 2 7 4.23858 7 7C7 9.76142 9.23858 12 12 12Z" fill="white" fill-opacity="0.6"/>
<path fill-rule="evenodd" clip-rule="evenodd" d="M10.0006 15.6496C6.49358 15.6496 3.65059 18.4926 3.65059 21.9996H2.35059C2.35059 17.7746 5.77561 14.3496 10.0006 14.3496H14.0006C18.2256 14.3496 21.6506 17.7746 21.6506 21.9996H20.3506C20.3506 18.4926 17.5076 15.6496 14.0006 15.6496H10.0006Z" fill="white" fill-opacity="0.6"/>
</svg>
