<svg width="48" height="48" viewBox="0 0 48 48" fill="none" xmlns="http://www.w3.org/2000/svg">
<rect x="47.6" y="0.4" width="47.2" height="47.2" rx="23.6" transform="rotate(90 47.6 0.4)" fill="#4A40FF" fill-opacity="0.1" stroke="black" stroke-width="0.8"/>
<path d="M21.75 21.2363C21.75 21.5462 21.6611 21.7855 21.4834 21.9541C21.3102 22.1227 21.0915 22.207 20.8271 22.207C20.5674 22.207 20.3509 22.1227 20.1777 21.9541C20.0091 21.7855 19.9248 21.5462 19.9248 21.2363C19.9248 20.9401 20.0091 20.7054 20.1777 20.5322C20.3464 20.359 20.5628 20.2725 20.8271 20.2725C21.0915 20.2725 21.3102 20.3568 21.4834 20.5254C21.6611 20.694 21.75 20.931 21.75 21.2363ZM27.5537 21.2363C27.5537 21.5462 27.4648 21.7855 27.2871 21.9541C27.1139 22.1227 26.8952 22.207 26.6309 22.207C26.3711 22.207 26.1546 22.1227 25.9814 21.9541C25.8128 21.7855 25.7285 21.5462 25.7285 21.2363C25.7285 20.9401 25.8128 20.7054 25.9814 20.5322C26.1501 20.359 26.3665 20.2725 26.6309 20.2725C26.8952 20.2725 27.1139 20.3568 27.2871 20.5254C27.4648 20.694 27.5537 20.931 27.5537 21.2363ZM18.1543 25.4336L18.1543 24.292L29.9531 24.292L29.9531 25.4336L18.1543 25.4336Z" fill="black"/>
</svg>
