<svg width="48" height="48" viewBox="0 0 48 48" fill="none" xmlns="http://www.w3.org/2000/svg">
<rect x="47.6" y="0.4" width="47.2" height="47.2" rx="23.6" transform="rotate(90 47.6 0.4)" fill="black" fill-opacity="0.1" stroke="black" stroke-width="0.8"/>
<path d="M21.75 21.0527C21.75 21.3626 21.6611 21.6019 21.4834 21.7705C21.3102 21.9391 21.0915 22.0234 20.8271 22.0234C20.5674 22.0234 20.3509 21.9391 20.1777 21.7705C20.0091 21.6019 19.9248 21.3626 19.9248 21.0527C19.9248 20.7565 20.0091 20.5218 20.1777 20.3486C20.3464 20.1755 20.5628 20.0889 20.8271 20.0889C21.0915 20.0889 21.3102 20.1732 21.4834 20.3418C21.6611 20.5104 21.75 20.7474 21.75 21.0527ZM27.5537 21.0527C27.5537 21.3626 27.4648 21.6019 27.2871 21.7705C27.1139 21.9391 26.8952 22.0234 26.6309 22.0234C26.3711 22.0234 26.1546 21.9391 25.9814 21.7705C25.8128 21.6019 25.7285 21.3626 25.7285 21.0527C25.7285 20.7565 25.8128 20.5218 25.9814 20.3486C26.1501 20.1755 26.3665 20.0889 26.6309 20.0889C26.8952 20.0889 27.1139 20.1732 27.2871 20.3418C27.4648 20.5104 27.5537 20.7474 27.5537 21.0527ZM24.0469 23.7939C25.0996 23.7939 26.0977 23.9352 27.041 24.2178C27.9889 24.5003 28.8343 24.915 29.5771 25.4619C30.3245 26.0088 30.8486 26.5876 31.1494 27.1982L30.1787 27.5264C29.6911 26.8838 28.946 26.362 27.9434 25.9609C26.9453 25.5645 25.8014 25.348 24.5117 25.3115L23.9238 25.3047C22.543 25.3047 21.3102 25.4984 20.2256 25.8857C19.1455 26.2777 18.3229 26.8245 17.7578 27.5264L16.835 27.1982C17.1357 26.5876 17.6621 26.0065 18.4141 25.4551C19.1615 24.9082 20.0046 24.4935 20.9434 24.2109C21.8867 23.9329 22.9212 23.7939 24.0469 23.7939Z" fill="black"/>
</svg>
