<svg width="48" height="48" viewBox="0 0 48 48" fill="none" xmlns="http://www.w3.org/2000/svg">
<rect x="47.6" y="0.4" width="47.2" height="47.2" rx="23.6" transform="rotate(90 47.6 0.4)" fill="#4A40FF" fill-opacity="0.3" stroke="black" stroke-width="0.8"/>
<path d="M21.75 21.0254C21.75 21.3353 21.6611 21.5745 21.4834 21.7432C21.3102 21.9118 21.0915 21.9961 20.8271 21.9961C20.5674 21.9961 20.3509 21.9118 20.1777 21.7432C20.0091 21.5745 19.9248 21.3353 19.9248 21.0254C19.9248 20.7292 20.0091 20.4945 20.1777 20.3213C20.3464 20.1481 20.5628 20.0615 20.8271 20.0615C21.0915 20.0615 21.3102 20.1458 21.4834 20.3145C21.6611 20.4831 21.75 20.7201 21.75 21.0254ZM27.5537 21.0254C27.5537 21.3353 27.4648 21.5745 27.2871 21.7432C27.1139 21.9118 26.8952 21.9961 26.6309 21.9961C26.3711 21.9961 26.1546 21.9118 25.9814 21.7432C25.8128 21.5745 25.7285 21.3353 25.7285 21.0254C25.7285 20.7292 25.8128 20.4945 25.9814 20.3213C26.1501 20.1481 26.3665 20.0615 26.6309 20.0615C26.8952 20.0615 27.1139 20.1458 27.2871 20.3145C27.4648 20.4831 27.5537 20.7201 27.5537 21.0254ZM23.9375 26.9453C22.9258 26.9453 21.9482 26.8063 21.0049 26.5283C20.0661 26.2503 19.2116 25.8288 18.4414 25.2637C17.6667 24.6986 17.1312 24.1084 16.835 23.4932L17.7578 23.165C18.2865 23.8486 19.0931 24.3887 20.1777 24.7852C21.2669 25.1862 22.5088 25.3867 23.9033 25.3867L24.0605 25.3867C25.3275 25.3867 26.4805 25.2135 27.5195 24.8672C28.5632 24.5208 29.3994 24.0241 30.0283 23.377L30.2197 23.165L31.1494 23.4932C30.8669 24.0765 30.3656 24.6416 29.6455 25.1885C28.9255 25.7354 28.1188 26.1546 27.2256 26.4463C26.3369 26.738 25.4186 26.902 24.4707 26.9385L23.9375 26.9453Z" fill="black"/>
</svg>
