<svg width="72" height="44" viewBox="0 0 72 44" fill="none" xmlns="http://www.w3.org/2000/svg">
<rect width="72" height="44" rx="22" fill="#8B83FF"/>
<mask id="mask0" mask-type="alpha" maskUnits="userSpaceOnUse" x="0" y="0" width="72" height="44">
<rect width="72" height="44" rx="22" fill="#8B83FF"/>
</mask>
<g mask="url(#mask0)">
<rect x="99" y="-8" width="78" height="78" rx="39" transform="rotate(90 99 -8)" fill="#4A40FF"/>
<path d="M33.626 20.4951C33.626 20.805 33.5371 21.0443 33.3594 21.2129C33.1862 21.3815 32.9674 21.4658 32.7031 21.4658C32.4434 21.4658 32.2269 21.3815 32.0537 21.2129C31.8851 21.0443 31.8008 20.805 31.8008 20.4951C31.8008 20.1989 31.8851 19.9642 32.0537 19.791C32.2223 19.6178 32.4388 19.5312 32.7031 19.5312C32.9674 19.5312 33.1862 19.6156 33.3594 19.7842C33.5371 19.9528 33.626 20.1898 33.626 20.4951ZM39.4297 20.4951C39.4297 20.805 39.3408 21.0443 39.1631 21.2129C38.9899 21.3815 38.7712 21.4658 38.5068 21.4658C38.2471 21.4658 38.0306 21.3815 37.8574 21.2129C37.6888 21.0443 37.6045 20.805 37.6045 20.4951C37.6045 20.1989 37.6888 19.9642 37.8574 19.791C38.026 19.6178 38.2425 19.5312 38.5068 19.5312C38.7712 19.5312 38.9899 19.6156 39.1631 19.7842C39.3408 19.9528 39.4297 20.1898 39.4297 20.4951Z" fill="white"/>
<path d="M42 24C39.8182 25.5092 35.2364 27.6222 30 24" stroke="white"/>
</g>
</svg>
