<svg width="72" height="44" viewBox="0 0 72 44" fill="none" xmlns="http://www.w3.org/2000/svg">
<rect width="72" height="44" rx="22" fill="#4A40FF"/>
<mask id="mask0" mask-type="alpha" maskUnits="userSpaceOnUse" x="0" y="0" width="72" height="44">
<rect width="72" height="44" rx="22" fill="#4A40FF" fill-opacity="0.8"/>
</mask>
<g mask="url(#mask0)">
<rect x="99" y="-8" width="78" height="78" rx="39" transform="rotate(90 99 -8)" fill="black" fill-opacity="0.9"/>
<path d="M33.8252 20.9639C33.8252 21.2738 33.7363 21.513 33.5586 21.6816C33.3854 21.8503 33.1667 21.9346 32.9023 21.9346C32.6426 21.9346 32.4261 21.8503 32.2529 21.6816C32.0843 21.513 32 21.2738 32 20.9639C32 20.6676 32.0843 20.4329 32.2529 20.2598C32.4215 20.0866 32.638 20 32.9023 20C33.1667 20 33.3854 20.0843 33.5586 20.2529C33.7363 20.4215 33.8252 20.6585 33.8252 20.9639ZM39.6289 20.9639C39.6289 21.2738 39.54 21.513 39.3623 21.6816C39.1891 21.8503 38.9704 21.9346 38.7061 21.9346C38.4463 21.9346 38.2298 21.8503 38.0566 21.6816C37.888 21.513 37.8037 21.2738 37.8037 20.9639C37.8037 20.6676 37.888 20.4329 38.0566 20.2598C38.2253 20.0866 38.4417 20 38.7061 20C38.9704 20 39.1891 20.0843 39.3623 20.2529C39.54 20.4215 39.6289 20.6585 39.6289 20.9639Z" fill="white"/>
<path d="M32 26C33.4545 24.4908 36.5091 22.3778 40 26" stroke="white"/>
</g>
</svg>
