<svg width="72" height="44" viewBox="0 0 72 44" fill="none" xmlns="http://www.w3.org/2000/svg">
<rect width="72" height="44" rx="22" fill="#4A40FF"/>
<mask id="mask0" mask-type="alpha" maskUnits="userSpaceOnUse" x="0" y="0" width="72" height="44">
<rect width="72" height="44" rx="22" fill="#4A40FF" fill-opacity="0.8"/>
</mask>
<g mask="url(#mask0)">
<rect x="99" y="-8" width="78" height="78" rx="39" transform="rotate(90 99 -8)" fill="#9B94FF"/>
<path d="M33.625 20.7363C33.625 21.0462 33.5361 21.2855 33.3584 21.4541C33.1852 21.6227 32.9665 21.707 32.7021 21.707C32.4424 21.707 32.2259 21.6227 32.0527 21.4541C31.8841 21.2855 31.7998 21.0462 31.7998 20.7363C31.7998 20.4401 31.8841 20.2054 32.0527 20.0322C32.2214 19.859 32.4378 19.7725 32.7021 19.7725C32.9665 19.7725 33.1852 19.8568 33.3584 20.0254C33.5361 20.194 33.625 20.431 33.625 20.7363ZM39.4287 20.7363C39.4287 21.0462 39.3398 21.2855 39.1621 21.4541C38.9889 21.6227 38.7702 21.707 38.5059 21.707C38.2461 21.707 38.0296 21.6227 37.8564 21.4541C37.6878 21.2855 37.6035 21.0462 37.6035 20.7363C37.6035 20.4401 37.6878 20.2054 37.8564 20.0322C38.0251 19.859 38.2415 19.7725 38.5059 19.7725C38.7702 19.7725 38.9889 19.8568 39.1621 20.0254C39.3398 20.194 39.4287 20.431 39.4287 20.7363ZM30.0293 24.9336L30.0293 23.792L41.8281 23.792L41.8281 24.9336L30.0293 24.9336Z" fill="white"/>
</g>
</svg>
