<svg width="44" height="44" viewBox="0 0 44 44" fill="none" xmlns="http://www.w3.org/2000/svg">
<circle cx="22" cy="22" r="22" fill="#999999" fill-opacity="0.5"/>
<path fill-rule="evenodd" clip-rule="evenodd" d="M22.5431 17.2191C22.2429 16.927 21.7579 16.927 21.4569 17.2191L14.3257 24.1532C13.8914 24.5749 13.8914 25.2612 14.3257 25.6837C14.76 26.1054 15.4649 26.1054 15.8992 25.6837L22.0004 19.752L28.1 25.6837C28.5351 26.1054 29.24 26.1054 29.6743 25.6837C30.1086 25.2612 30.1086 24.5749 29.6743 24.1532L22.5431 17.2191Z" fill="white"/>
<path fill-rule="evenodd" clip-rule="evenodd" d="M22.5431 17.2191C22.2429 16.927 21.7579 16.927 21.4569 17.2191L14.3257 24.1532C13.8914 24.5749 13.8914 25.2612 14.3257 25.6837C14.76 26.1054 15.4649 26.1054 15.8992 25.6837L22.0004 19.752L28.1 25.6837C28.5351 26.1054 29.24 26.1054 29.6743 25.6837C30.1086 25.2612 30.1086 24.5749 29.6743 24.1532L22.5431 17.2191Z" fill="white"/>
</svg>
