<svg width="19" height="21" viewBox="0 0 19 21" fill="none" xmlns="http://www.w3.org/2000/svg">
<path d="M12.0703 0.00976562H6.07031V2.00977H12.0703V0.00976562ZM8.07031 13.0098H10.0703V7.00977H8.07031V13.0098ZM16.1003 6.38977L17.5203 4.96977C17.0903 4.45977 16.6203 3.97977 16.1103 3.55977L14.6903 4.97977C13.1403 3.73977 11.1903 2.99977 9.07031 2.99977C4.10031 2.99977 0.0703125 7.02977 0.0703125 11.9998C0.0703125 16.9698 4.09031 20.9998 9.07031 20.9998C14.0503 20.9998 18.0703 16.9698 18.0703 11.9998C18.0703 9.88977 17.3303 7.93977 16.1003 6.38977ZM9.07031 19.0098C5.20031 19.0098 2.07031 15.8798 2.07031 12.0098C2.07031 8.13977 5.20031 5.00977 9.07031 5.00977C12.9403 5.00977 16.0703 8.13977 16.0703 12.0098C16.0703 15.8798 12.9403 19.0098 9.07031 19.0098Z" fill="white"/>
</svg>
