<svg width="103" height="52" viewBox="0 0 103 52" fill="none" xmlns="http://www.w3.org/2000/svg">
<g filter="url(#filter0_d)">
<rect x="4" width="95" height="44" rx="22" fill="#4A40FF"/>
</g>
<path fill-rule="evenodd" clip-rule="evenodd" d="M79.3332 22.0091C79.5895 21.7277 79.5895 21.273 79.3332 20.9909L73.2507 14.3054C72.8807 13.8982 72.2788 13.8982 71.9081 14.3054C71.5382 14.7125 71.5382 15.3733 71.9081 15.7805L77.1114 21.5004L71.9081 27.2188C71.5382 27.6267 71.5382 28.2875 71.9081 28.6946C72.2788 29.1018 72.8807 29.1018 73.2507 28.6946L79.3332 22.0091Z" fill="white"/>
<path d="M31.4192 26.084C30.8352 26.084 30.3072 25.984 29.8352 25.784C29.3712 25.584 29.0032 25.296 28.7312 24.92C28.4592 24.544 28.3192 24.1 28.3112 23.588H30.1112C30.1352 23.932 30.2552 24.204 30.4712 24.404C30.6952 24.604 30.9992 24.704 31.3832 24.704C31.7752 24.704 32.0832 24.612 32.3072 24.428C32.5312 24.236 32.6432 23.988 32.6432 23.684C32.6432 23.436 32.5672 23.232 32.4152 23.072C32.2632 22.912 32.0712 22.788 31.8392 22.7C31.6152 22.604 31.3032 22.5 30.9032 22.388C30.3592 22.228 29.9152 22.072 29.5712 21.92C29.2352 21.76 28.9432 21.524 28.6952 21.212C28.4552 20.892 28.3352 20.468 28.3352 19.94C28.3352 19.444 28.4592 19.012 28.7072 18.644C28.9552 18.276 29.3032 17.996 29.7512 17.804C30.1992 17.604 30.7112 17.504 31.2872 17.504C32.1512 17.504 32.8512 17.716 33.3872 18.14C33.9312 18.556 34.2312 19.14 34.2872 19.892H32.4392C32.4232 19.604 32.2992 19.368 32.0672 19.184C31.8432 18.992 31.5432 18.896 31.1672 18.896C30.8392 18.896 30.5752 18.98 30.3752 19.148C30.1832 19.316 30.0872 19.56 30.0872 19.88C30.0872 20.104 30.1592 20.292 30.3032 20.444C30.4552 20.588 30.6392 20.708 30.8552 20.804C31.0792 20.892 31.3912 20.996 31.7912 21.116C32.3352 21.276 32.7792 21.436 33.1232 21.596C33.4672 21.756 33.7632 21.996 34.0112 22.316C34.2592 22.636 34.3832 23.056 34.3832 23.576C34.3832 24.024 34.2672 24.44 34.0352 24.824C33.8032 25.208 33.4632 25.516 33.0152 25.748C32.5672 25.972 32.0352 26.084 31.4192 26.084ZM37.7957 20.732V23.948C37.7957 24.172 37.8477 24.336 37.9517 24.44C38.0637 24.536 38.2477 24.584 38.5037 24.584H39.2837V26H38.2277C36.8117 26 36.1037 25.312 36.1037 23.936V20.732H35.3117V19.352H36.1037V17.708H37.7957V19.352H39.2837V20.732H37.7957ZM40.0601 22.652C40.0601 21.98 40.1921 21.384 40.4561 20.864C40.7281 20.344 41.0921 19.944 41.5481 19.664C42.0121 19.384 42.5281 19.244 43.0961 19.244C43.5921 19.244 44.0241 19.344 44.3921 19.544C44.7681 19.744 45.0681 19.996 45.2921 20.3V19.352H46.9841V26H45.2921V25.028C45.0761 25.34 44.7761 25.6 44.3921 25.808C44.0161 26.008 43.5801 26.108 43.0841 26.108C42.5241 26.108 42.0121 25.964 41.5481 25.676C41.0921 25.388 40.7281 24.984 40.4561 24.464C40.1921 23.936 40.0601 23.332 40.0601 22.652ZM45.2921 22.676C45.2921 22.268 45.2121 21.92 45.0521 21.632C44.8921 21.336 44.6761 21.112 44.4041 20.96C44.1321 20.8 43.8401 20.72 43.5281 20.72C43.2161 20.72 42.9281 20.796 42.6641 20.948C42.4001 21.1 42.1841 21.324 42.0161 21.62C41.8561 21.908 41.7761 22.252 41.7761 22.652C41.7761 23.052 41.8561 23.404 42.0161 23.708C42.1841 24.004 42.4001 24.232 42.6641 24.392C42.9361 24.552 43.2241 24.632 43.5281 24.632C43.8401 24.632 44.1321 24.556 44.4041 24.404C44.6761 24.244 44.8921 24.02 45.0521 23.732C45.2121 23.436 45.2921 23.084 45.2921 22.676ZM50.3049 20.384C50.5209 20.032 50.8009 19.756 51.1449 19.556C51.4969 19.356 51.8969 19.256 52.3449 19.256V21.02H51.9009C51.3729 21.02 50.9729 21.144 50.7009 21.392C50.4369 21.64 50.3049 22.072 50.3049 22.688V26H48.6249V19.352H50.3049V20.384ZM55.4324 20.732V23.948C55.4324 24.172 55.4844 24.336 55.5884 24.44C55.7004 24.536 55.8844 24.584 56.1404 24.584H56.9204V26H55.8644C54.4484 26 53.7404 25.312 53.7404 23.936V20.732H52.9484V19.352H53.7404V17.708H55.4324V19.352H56.9204V20.732H55.4324Z" fill="white"/>
<defs>
<filter id="filter0_d" x="0" y="0" width="103" height="52" filterUnits="userSpaceOnUse" color-interpolation-filters="sRGB">
<feFlood flood-opacity="0" result="BackgroundImageFix"/>
<feColorMatrix in="SourceAlpha" type="matrix" values="0 0 0 0 0 0 0 0 0 0 0 0 0 0 0 0 0 0 127 0" result="hardAlpha"/>
<feOffset dy="4"/>
<feGaussianBlur stdDeviation="2"/>
<feComposite in2="hardAlpha" operator="out"/>
<feColorMatrix type="matrix" values="0 0 0 0 0 0 0 0 0 0 0 0 0 0 0 0 0 0 0.25 0"/>
<feBlend mode="normal" in2="BackgroundImageFix" result="effect1_dropShadow"/>
<feBlend mode="normal" in="SourceGraphic" in2="effect1_dropShadow" result="shape"/>
</filter>
</defs>
</svg>
