<svg width="411" height="823" preserveAspectRatio="none" viewBox="0 0 411 823" fill="none" xmlns="http://www.w3.org/2000/svg">
<g clip-path="url(#clip0)">
<rect width="411" height="823" fill="#F7F7FA"/>
<rect y="-4" width="411" height="395.294" fill="white"/>
<line x1="16.5" y1="33.4492" x2="16.5" y2="367.715" stroke="#F7F7FA"/>
<line x1="70.5" y1="33.4492" x2="70.5" y2="367.715" stroke="#F7F7FA"/>
<line x1="124.5" y1="33.4492" x2="124.5" y2="367.715" stroke="#F7F7FA"/>
<line x1="178.5" y1="33.4492" x2="178.5" y2="367.715" stroke="#F7F7FA"/>
<line x1="232.5" y1="33.4492" x2="232.5" y2="367.715" stroke="#F7F7FA"/>
<line x1="286.5" y1="33.4492" x2="286.5" y2="367.715" stroke="#F7F7FA"/>
<line x1="340.5" y1="33.4492" x2="340.5" y2="367.715" stroke="#F7F7FA"/>
<line x1="394.5" y1="33.4492" x2="394.5" y2="367.715" stroke="#F7F7FA"/>
<line y1="99.5234" x2="411" y2="99.5234" stroke="#F7F7FA"/>
<line y1="166.098" x2="411" y2="166.098" stroke="#F7F7FA"/>
<line y1="232.676" x2="411" y2="232.676" stroke="#F7F7FA"/>
<line y1="299.25" x2="411" y2="299.25" stroke="#F7F7FA"/>
<path d="M83.9494 297.004H82.8014V304.774H83.5994C84.9574 304.774 86.3994 304.704 88.0934 304.382L87.9814 303.388C86.4834 303.682 85.1534 303.766 83.9494 303.78V297.004ZM91.7334 295.478V300.588H89.9554V295.758H88.8774V307.392H89.9554V301.54H91.7334V308.022H92.8394V295.478H91.7334ZM108.109 298.376H100.647V301.806H109.551V300.868H101.795V299.258H109.271V295.982H100.605V296.892H108.109V298.376ZM110.643 303.094H99.2471V304.032H104.357V308.05H105.505V304.032H110.643V303.094ZM122.724 295.492H121.576V304.816H122.724V295.492ZM120.134 301.47C118.384 301.778 116.9 301.834 114.282 301.834V300.028H118.776V299.118H114.282V297.396H119.126V296.472H113.134V302.744H114.156C116.9 302.744 118.426 302.702 120.26 302.394L120.134 301.47ZM115.794 306.818V304.004H114.646V307.756H123.102V306.818H115.794ZM132.31 297.76H134.41V303.864C133.696 303.892 132.996 303.92 132.31 303.934V297.76ZM135.53 297.76H136.916V296.836H129.804V297.76H131.204V303.948C130.602 303.962 130.028 303.962 129.496 303.962L129.622 304.928C131.904 304.914 134.928 304.886 137.63 304.452L137.56 303.612C136.902 303.696 136.216 303.766 135.53 303.794V297.76ZM138.652 295.492V308.036H139.8V295.492H138.652ZM152.72 301.498H145.23V297.578H152.594V296.626H144.096V302.436H152.72V301.498ZM142.64 305.39V306.342H154.036V305.39H142.64ZM164.605 297.676H157.269V300.364H165.963V299.538H158.403V298.46H165.739V295.842H157.241V296.654H164.605V297.676ZM158.333 305.88H165.781V303.206H157.171V304.032H164.647V305.082H157.199V307.868H166.173V307.042H158.333V305.88ZM155.813 301.316V302.184H167.195V301.316H155.813ZM174.569 297.634H179.259V296.682H173.421V304.928H174.415C176.781 304.928 178.433 304.844 180.351 304.48L180.225 303.528C178.405 303.85 176.795 303.948 174.569 303.948V297.634ZM184.621 300.434H182.549V295.478H181.401V308.064H182.549V301.386H184.621V300.434ZM194.84 298.166H187.504V301.288H196.24V300.392H188.638V299.02H195.974V295.898H187.476V296.794H194.84V298.166ZM188.68 304.34H187.532V307.756H196.24V306.818H188.68V304.34ZM186.034 302.436V303.374H197.43V302.436H186.034ZM207.338 296.57H206.204V298.824C206.204 301.106 204.776 303.514 202.97 304.438L203.656 305.362C205.07 304.606 206.232 303.038 206.778 301.204C207.352 302.926 208.486 304.396 209.816 305.11L210.53 304.2C208.766 303.318 207.338 301.036 207.338 298.824V296.57ZM214.856 300.574H212.784V295.492H211.636V308.036H212.784V301.526H214.856V300.574ZM221.952 307.14C219.978 307.14 218.816 306.65 218.816 305.796C218.816 304.942 219.978 304.452 221.952 304.452C223.912 304.452 225.088 304.942 225.088 305.796C225.088 306.65 223.912 307.14 221.952 307.14ZM221.952 303.556C219.264 303.556 217.654 304.354 217.654 305.796C217.654 307.238 219.264 308.022 221.952 308.022C224.654 308.022 226.25 307.238 226.25 305.796C226.25 304.354 224.654 303.556 221.952 303.556ZM220.216 300.224C220.734 300.308 221.322 300.364 221.952 300.364C222.596 300.364 223.184 300.308 223.702 300.224V301.694H220.216V300.224ZM218.718 298.04C218.718 297.13 219.95 296.598 221.952 296.598C223.954 296.598 225.186 297.13 225.186 298.04C225.186 298.936 223.954 299.482 221.952 299.482C219.95 299.482 218.718 298.936 218.718 298.04ZM224.836 301.694V299.916C225.802 299.524 226.362 298.88 226.362 298.04C226.362 296.57 224.682 295.702 221.952 295.702C219.236 295.702 217.542 296.57 217.542 298.04C217.542 298.894 218.088 299.524 219.082 299.93V301.694H216.268V302.618H227.636V301.694H224.836ZM233.669 297.718H236.455V296.766H229.665V297.718H232.535V299.314C232.535 301.442 231.023 303.822 229.231 304.718L229.903 305.628C231.317 304.9 232.535 303.304 233.109 301.47C233.683 303.15 234.859 304.62 236.259 305.32L236.917 304.396C235.097 303.542 233.669 301.316 233.669 299.314V297.718ZM241.173 300.546H239.101V295.492H237.953V308.036H239.101V301.512H241.173V300.546ZM252.61 298.782H245.26V296.822H252.484V295.898H244.112V299.706H252.61V298.782ZM245.12 305.698H252.498V302.744H243.958V303.64H251.364V304.844H244V307.882H252.876V306.986H245.12V305.698ZM242.6 300.714V301.652H253.968V300.714H242.6ZM262.311 302.52C262.661 300.182 262.661 298.544 262.661 297.536V296.85H256.319V297.788H261.541C261.541 298.796 261.513 300.322 261.163 302.408L262.311 302.52ZM259.427 300.434H258.293V304.298C257.355 304.326 256.431 304.34 255.633 304.34L255.759 305.292C257.985 305.292 260.939 305.236 263.543 304.816L263.473 303.976C262.199 304.13 260.799 304.214 259.427 304.27V300.434ZM267.393 300.728H265.391V295.478H264.243V308.036H265.391V301.694H267.393V300.728ZM281.613 297.186C281.613 298.166 281.613 299.09 281.277 300.378L282.397 300.504C282.747 299.216 282.747 298.194 282.747 297.186V296.122H274.193V297.046H281.613V297.186ZM278.463 307.126C276.503 307.126 275.243 306.594 275.243 305.726C275.243 304.83 276.503 304.298 278.463 304.298C280.437 304.298 281.697 304.83 281.697 305.726C281.697 306.594 280.437 307.126 278.463 307.126ZM278.463 303.416C275.789 303.416 274.095 304.27 274.095 305.726C274.095 307.154 275.789 308.022 278.463 308.022C281.137 308.022 282.845 307.154 282.845 305.726C282.845 304.27 281.137 303.416 278.463 303.416ZM278.645 301.33V298.922H277.497V301.33H272.863V302.254H284.161V301.33H278.645ZM291.65 296.906C293.568 296.906 294.87 297.606 294.87 298.712C294.87 299.818 293.568 300.532 291.65 300.532C289.746 300.532 288.444 299.818 288.444 298.712C288.444 297.606 289.746 296.906 291.65 296.906ZM291.65 301.456C294.268 301.456 296.046 300.392 296.046 298.712C296.046 297.032 294.268 295.982 291.65 295.982C289.046 295.982 287.268 297.032 287.268 298.712C287.268 300.392 289.046 301.456 291.65 301.456ZM297.362 302.632H285.994V303.57H288.92V308.036H290.082V303.57H293.232V308.036H294.394V303.57H297.362V302.632ZM302.835 304.284C301.701 304.284 300.875 303.472 300.875 302.352C300.875 301.218 301.701 300.406 302.835 300.406C303.983 300.406 304.809 301.218 304.809 302.352C304.809 303.472 303.983 304.284 302.835 304.284ZM302.835 299.454C301.071 299.454 299.797 300.658 299.797 302.352C299.797 304.06 301.071 305.236 302.835 305.236C304.627 305.236 305.901 304.06 305.901 302.352C305.901 300.658 304.627 299.454 302.835 299.454ZM303.395 295.632H302.247V297.494H299.083V298.418H306.489V297.494H303.395V295.632ZM310.885 300.644H308.827V295.492H307.679V308.036H308.827V301.61H310.885V300.644ZM321.174 297.984C321.174 299.496 321.174 301.26 320.698 303.668L321.846 303.794C322.322 301.26 322.322 299.538 322.322 297.984V296.738H313.516V297.676H321.174V297.984ZM317.884 305.334V300.84H316.736V305.334H312.326V306.272H323.68V305.334H317.884ZM327.542 305.53C327.421 306.025 327.248 306.566 327.024 307.154C326.8 307.751 326.572 308.302 326.338 308.806H325.26C325.391 308.265 325.522 307.677 325.652 307.042C325.783 306.417 325.886 305.861 325.96 305.376H327.444L327.542 305.53ZM83.8654 318.634H88.5554V317.682H82.7174V325.928H83.7114C86.0774 325.928 87.7294 325.844 89.6474 325.48L89.5214 324.528C87.7014 324.85 86.0914 324.948 83.8654 324.948V318.634ZM93.9174 321.434H91.8454V316.478H90.6974V329.064H91.8454V322.386H93.9174V321.434ZM104.136 319.166H96.8003V322.288H105.536V321.392H97.9343V320.02H105.27V316.898H96.7723V317.794H104.136V319.166ZM97.9763 325.34H96.8283V328.756H105.536V327.818H97.9763V325.34ZM95.3303 323.436V324.374H106.726V323.436H95.3303ZM116.634 317.57H115.5V319.824C115.5 322.106 114.072 324.514 112.266 325.438L112.952 326.362C114.366 325.606 115.528 324.038 116.074 322.204C116.648 323.926 117.782 325.396 119.112 326.11L119.826 325.2C118.062 324.318 116.634 322.036 116.634 319.824V317.57ZM124.152 321.574H122.08V316.492H120.932V329.036H122.08V322.526H124.152V321.574ZM131.249 328.14C129.275 328.14 128.113 327.65 128.113 326.796C128.113 325.942 129.275 325.452 131.249 325.452C133.209 325.452 134.385 325.942 134.385 326.796C134.385 327.65 133.209 328.14 131.249 328.14ZM131.249 324.556C128.561 324.556 126.951 325.354 126.951 326.796C126.951 328.238 128.561 329.022 131.249 329.022C133.951 329.022 135.547 328.238 135.547 326.796C135.547 325.354 133.951 324.556 131.249 324.556ZM129.513 321.224C130.031 321.308 130.619 321.364 131.249 321.364C131.893 321.364 132.481 321.308 132.999 321.224V322.694H129.513V321.224ZM128.015 319.04C128.015 318.13 129.247 317.598 131.249 317.598C133.251 317.598 134.483 318.13 134.483 319.04C134.483 319.936 133.251 320.482 131.249 320.482C129.247 320.482 128.015 319.936 128.015 319.04ZM134.133 322.694V320.916C135.099 320.524 135.659 319.88 135.659 319.04C135.659 317.57 133.979 316.702 131.249 316.702C128.533 316.702 126.839 317.57 126.839 319.04C126.839 319.894 127.385 320.524 128.379 320.93V322.694H125.565V323.618H136.933V322.694H134.133ZM142.966 318.718H145.752V317.766H138.962V318.718H141.832V320.314C141.832 322.442 140.32 324.822 138.528 325.718L139.2 326.628C140.614 325.9 141.832 324.304 142.406 322.47C142.98 324.15 144.156 325.62 145.556 326.32L146.214 325.396C144.394 324.542 142.966 322.316 142.966 320.314V318.718ZM150.47 321.546H148.398V316.492H147.25V329.036H148.398V322.512H150.47V321.546ZM155.971 317.402C154.025 317.402 152.611 318.592 152.611 320.356C152.611 322.106 154.025 323.31 155.971 323.31C157.931 323.31 159.331 322.106 159.331 320.356C159.331 318.592 157.931 317.402 155.971 317.402ZM155.971 318.382C157.273 318.382 158.211 319.18 158.211 320.356C158.211 321.518 157.273 322.33 155.971 322.33C154.683 322.33 153.731 321.518 153.731 320.356C153.731 319.18 154.683 318.382 155.971 318.382ZM160.983 316.478V329.064H162.131V316.478H160.983ZM152.121 326.306C154.389 326.306 157.427 326.278 160.255 325.76L160.157 324.906C157.413 325.326 154.263 325.34 151.981 325.34L152.121 326.306ZM177.82 319.376H170.358V322.806H179.262V321.868H171.506V320.258H178.982V316.982H170.316V317.892H177.82V319.376ZM180.354 324.094H168.958V325.032H174.068V329.05H175.216V325.032H180.354V324.094ZM192.435 316.492H191.287V325.816H192.435V316.492ZM189.845 322.47C188.095 322.778 186.611 322.834 183.993 322.834V321.028H188.487V320.118H183.993V318.396H188.837V317.472H182.845V323.744H183.867C186.611 323.744 188.137 323.702 189.971 323.394L189.845 322.47ZM185.505 327.818V325.004H184.357V328.756H192.813V327.818H185.505ZM200.96 317.556C203.018 317.556 204.194 318.032 204.194 318.872C204.194 319.712 203.018 320.188 200.96 320.188C198.902 320.188 197.726 319.712 197.726 318.872C197.726 318.032 198.902 317.556 200.96 317.556ZM200.96 321.042C203.718 321.042 205.37 320.286 205.37 318.872C205.37 317.458 203.718 316.688 200.96 316.688C198.202 316.688 196.55 317.458 196.55 318.872C196.55 320.286 198.202 321.042 200.96 321.042ZM197.81 326.726H205.188V323.898H196.648V324.766H204.054V325.886H196.69V328.896H205.566V328H197.81V326.726ZM195.276 321.896V322.82H206.644V321.896H195.276ZM221.102 319.936H214.998V318.732H221.102V319.936ZM222.236 316.674H221.102V317.864H214.998V316.674H213.864V320.818H222.236V316.674ZM223.72 322.764V321.84H212.352V322.764H217.462V323.996H213.724V324.864H221.13V325.956H213.766V328.896H222.642V328.014H214.886V326.796H222.264V323.996H218.61V322.764H223.72ZM227.121 322.036H231.573V317.64H225.959V318.578H230.453V321.112H225.987V326.026H226.953C229.221 326.026 230.817 325.956 232.707 325.62L232.595 324.668C230.789 324.99 229.263 325.074 227.121 325.074V322.036ZM234.709 316.464V321.308H232.315V322.246H234.709V329.05H235.857V316.464H234.709ZM241.204 326.74H248.582V323.898H240.042V324.766H247.448V325.886H240.084V328.896H248.96V328H241.204V326.74ZM241.12 318.802C241.12 317.962 242.296 317.486 244.354 317.486C246.412 317.486 247.588 317.962 247.588 318.802C247.588 319.642 246.412 320.118 244.354 320.118C242.296 320.118 241.12 319.642 241.12 318.802ZM244.928 321.924V320.972C247.336 320.874 248.764 320.118 248.764 318.802C248.764 317.388 247.126 316.618 244.354 316.618C241.596 316.618 239.944 317.388 239.944 318.802C239.944 320.104 241.358 320.874 243.78 320.972V321.924H238.684V322.848H250.024V321.924H244.928ZM266.567 321.266C264.285 320.93 262.045 319.376 262.045 317.626V316.926H260.841V317.626C260.841 319.418 258.629 320.93 256.347 321.266L256.809 322.19C258.769 321.854 260.659 320.776 261.443 319.25C262.255 320.762 264.145 321.854 266.091 322.19L266.567 321.266ZM267.113 323.548H255.773V324.5H260.841V329.05H261.989V324.5H267.127L267.113 323.548ZM283.139 316.492H281.991V323.66H283.139V316.492ZM276.391 318.172C277.637 318.172 278.561 318.998 278.561 320.146C278.561 321.308 277.637 322.12 276.391 322.12C275.145 322.12 274.249 321.308 274.249 320.146C274.249 318.998 275.145 318.172 276.391 318.172ZM276.391 323.072C278.295 323.072 279.681 321.882 279.681 320.146C279.681 318.41 278.295 317.22 276.391 317.22C274.501 317.22 273.129 318.41 273.129 320.146C273.129 321.882 274.501 323.072 276.391 323.072ZM281.739 324.206H280.619V324.878C280.619 325.858 280.017 327.118 278.813 327.86C277.651 327.174 277.077 325.984 277.077 324.878V324.206H275.971V324.878C275.971 326.082 275.033 327.44 273.451 328L274.025 328.868C275.201 328.42 276.055 327.552 276.503 326.544C276.881 327.594 277.637 328.504 278.841 328.98C280.003 328.476 280.773 327.524 281.165 326.502C281.585 327.552 282.453 328.42 283.685 328.868L284.259 328C282.663 327.468 281.739 326.18 281.739 324.878V324.206ZM296.704 320.398C294.478 320.118 292.266 318.732 292.266 317.178V316.618H291.09V317.178C291.09 318.774 288.892 320.118 286.638 320.398L287.058 321.322C289.018 321.014 290.894 320.034 291.678 318.634C292.476 320.034 294.338 321.014 296.284 321.322L296.704 320.398ZM294.73 327.944H288.556V326.348H294.73V327.944ZM294.73 325.466H288.556V323.996H287.422V328.868H295.864V323.996H294.73V325.466ZM285.98 322.204V323.128H297.348V322.204H285.98ZM301.085 317.696H299.937V325.788H300.973C302.975 325.788 304.949 325.648 307.133 325.2L307.007 324.22C304.921 324.64 302.975 324.808 301.085 324.808V317.696ZM308.295 316.478V329.022H309.443V316.478H308.295ZM313.992 318.634H318.682V317.682H312.844V325.928H313.838C316.204 325.928 317.856 325.844 319.774 325.48L319.648 324.528C317.828 324.85 316.218 324.948 313.992 324.948V318.634ZM324.044 321.434H321.972V316.478H320.824V329.064H321.972V322.386H324.044V321.434ZM325.68 327.174C325.68 326.81 325.769 326.553 325.946 326.404C326.133 326.255 326.362 326.18 326.632 326.18C326.894 326.18 327.118 326.255 327.304 326.404C327.5 326.553 327.598 326.81 327.598 327.174C327.598 327.538 327.5 327.799 327.304 327.958C327.118 328.117 326.894 328.196 326.632 328.196C326.362 328.196 326.133 328.117 325.946 327.958C325.769 327.799 325.68 327.538 325.68 327.174Z" fill="black"/>
<path fill-rule="evenodd" clip-rule="evenodd" d="M189.627 171.572C203.004 171.572 213.849 160.727 213.849 147.349C213.849 133.971 203.004 123.127 189.627 123.127C176.249 123.127 165.404 133.971 165.404 147.349C165.404 160.727 176.249 171.572 189.627 171.572ZM189.627 175.976C205.437 175.976 218.253 163.159 218.253 147.349C218.253 131.539 205.437 118.723 189.627 118.723C173.817 118.723 161 131.539 161 147.349C161 163.159 173.817 175.976 189.627 175.976Z" fill="#4A40FF"/>
<path fill-rule="evenodd" clip-rule="evenodd" d="M203.41 171.476C211.636 166.388 217.087 157.484 217.087 147.349C217.087 137.214 211.636 128.31 203.41 123.223C208.016 120.374 213.492 118.723 219.367 118.723C235.733 118.723 249.001 131.539 249.001 147.349C249.001 163.159 235.733 175.976 219.367 175.976C213.492 175.976 208.016 174.324 203.41 171.476Z" fill="#4A40FF"/>
<path fill-rule="evenodd" clip-rule="evenodd" d="M180.426 141.211C174.595 145.208 167.946 146.956 163.526 147.35L163.121 142.985C166.9 142.648 172.773 141.109 177.862 137.619C182.888 134.174 187.114 128.865 187.932 120.844H192.382C193.201 128.865 197.427 134.174 202.452 137.619C207.541 141.109 213.414 142.648 217.193 142.985L216.789 147.35C212.369 146.956 205.719 145.208 199.888 141.211C195.961 138.518 192.39 134.787 190.157 129.784C187.924 134.787 184.354 138.518 180.426 141.211Z" fill="#4A40FF"/>
<path d="M185.386 149.471C186.557 149.471 187.507 148.522 187.507 147.351C187.507 146.18 186.557 145.23 185.386 145.23C184.215 145.23 183.266 146.18 183.266 147.351C183.266 148.522 184.215 149.471 185.386 149.471Z" fill="#4A40FF"/>
<path d="M193.869 149.471C195.04 149.471 195.989 148.522 195.989 147.351C195.989 146.18 195.04 145.23 193.869 145.23C192.697 145.23 191.748 146.18 191.748 147.351C191.748 148.522 192.697 149.471 193.869 149.471Z" fill="#4A40FF"/>
<rect x="171" y="230" width="69" height="24" fill="#4A40FF" fill-opacity="0.2"/>
<path d="M187.995 233.32V235.552H180.915V240.472H186.435V242.704H180.915V250H178.179V233.32H187.995ZM202.65 243.064C202.65 243.56 202.618 244.008 202.554 244.408H192.45C192.53 245.464 192.922 246.312 193.626 246.952C194.33 247.592 195.194 247.912 196.218 247.912C197.69 247.912 198.73 247.296 199.338 246.064H202.29C201.89 247.28 201.162 248.28 200.106 249.064C199.066 249.832 197.77 250.216 196.218 250.216C194.954 250.216 193.818 249.936 192.81 249.376C191.818 248.8 191.034 248 190.458 246.976C189.898 245.936 189.618 244.736 189.618 243.376C189.618 242.016 189.89 240.824 190.434 239.8C190.994 238.76 191.77 237.96 192.762 237.4C193.77 236.84 194.922 236.56 196.218 236.56C197.466 236.56 198.578 236.832 199.554 237.376C200.53 237.92 201.29 238.688 201.834 239.68C202.378 240.656 202.65 241.784 202.65 243.064ZM199.794 242.2C199.778 241.192 199.418 240.384 198.714 239.776C198.01 239.168 197.138 238.864 196.098 238.864C195.154 238.864 194.346 239.168 193.674 239.776C193.002 240.368 192.602 241.176 192.474 242.2H199.794ZM217.463 243.064C217.463 243.56 217.431 244.008 217.367 244.408H207.263C207.343 245.464 207.735 246.312 208.439 246.952C209.143 247.592 210.007 247.912 211.031 247.912C212.503 247.912 213.543 247.296 214.151 246.064H217.103C216.703 247.28 215.975 248.28 214.919 249.064C213.879 249.832 212.583 250.216 211.031 250.216C209.767 250.216 208.631 249.936 207.623 249.376C206.631 248.8 205.847 248 205.271 246.976C204.711 245.936 204.431 244.736 204.431 243.376C204.431 242.016 204.703 240.824 205.247 239.8C205.807 238.76 206.583 237.96 207.575 237.4C208.583 236.84 209.735 236.56 211.031 236.56C212.279 236.56 213.391 236.832 214.367 237.376C215.343 237.92 216.103 238.688 216.647 239.68C217.191 240.656 217.463 241.784 217.463 243.064ZM214.607 242.2C214.591 241.192 214.231 240.384 213.527 239.776C212.823 239.168 211.951 238.864 210.911 238.864C209.967 238.864 209.159 239.168 208.487 239.776C207.815 240.368 207.415 241.176 207.287 242.2H214.607ZM219.243 243.328C219.243 242 219.515 240.824 220.059 239.8C220.619 238.776 221.371 237.984 222.315 237.424C223.275 236.848 224.339 236.56 225.507 236.56C226.371 236.56 227.219 236.752 228.051 237.136C228.899 237.504 229.571 238 230.067 238.624V232.24H232.827V250H230.067V248.008C229.619 248.648 228.995 249.176 228.195 249.592C227.411 250.008 226.507 250.216 225.483 250.216C224.331 250.216 223.275 249.928 222.315 249.352C221.371 248.76 220.619 247.944 220.059 246.904C219.515 245.848 219.243 244.656 219.243 243.328ZM230.067 243.376C230.067 242.464 229.875 241.672 229.491 241C229.123 240.328 228.635 239.816 228.027 239.464C227.419 239.112 226.763 238.936 226.059 238.936C225.355 238.936 224.699 239.112 224.091 239.464C223.483 239.8 222.987 240.304 222.603 240.976C222.235 241.632 222.051 242.416 222.051 243.328C222.051 244.24 222.235 245.04 222.603 245.728C222.987 246.416 223.483 246.944 224.091 247.312C224.715 247.664 225.371 247.84 226.059 247.84C226.763 247.84 227.419 247.664 228.027 247.312C228.635 246.96 229.123 246.448 229.491 245.776C229.875 245.088 230.067 244.288 230.067 243.376Z" fill="black"/>
<g filter="url(#filter0_d)">
<rect x="16" y="437" width="379" height="219" rx="10" fill="white"/>
</g>
<path d="M16 575H395V645C395 650.523 390.523 655 385 655H26C20.4772 655 16 650.523 16 645V575Z" fill="#F6F5FF"/>
<path d="M35.708 467.48C34.964 467.48 34.412 466.976 34.412 466.136C34.412 465.296 34.964 464.78 35.708 464.78C36.452 464.78 36.992 465.296 36.992 466.124C36.992 466.976 36.452 467.48 35.708 467.48ZM35.708 463.496C34.1 463.496 32.9 464.588 32.9 466.124C32.9 467.684 34.1 468.776 35.708 468.776C37.304 468.776 38.492 467.684 38.492 466.124C38.492 464.588 37.304 463.496 35.708 463.496ZM36.488 460.172H34.904V461.612H32.456V462.872H38.888V461.612H36.488V460.172ZM42.776 464.3H41.192V459.98H39.608V471.032H41.192V465.608H42.776V464.3ZM47.2271 463.1H48.9191V461.828H47.2271V460.34H45.7271V461.828H43.9991V463.1H45.7271V463.328C45.7271 465.032 45.1631 466.844 43.5911 467.768L44.4791 468.956C45.4751 468.38 46.1231 467.396 46.4951 466.244C46.8911 467.3 47.5271 468.176 48.4991 468.692L49.3511 467.516C47.7911 466.688 47.2271 464.996 47.2271 463.328V463.1ZM49.5431 464.156H48.2831V465.44H49.5431V470.528H51.0191V460.16H49.5431V464.156ZM51.7751 459.968V471.02H53.2751V459.968H51.7751ZM65.3193 464.624C63.6393 464.132 62.8233 462.992 62.7393 461.828H64.9113V460.58H58.8993V461.828H61.1073C61.0233 463.076 60.2193 464.276 58.4673 464.792L59.2593 466.04C60.5553 465.644 61.4433 464.816 61.9473 463.784C62.4513 464.732 63.3033 465.488 64.5513 465.848L65.3193 464.624ZM66.0393 469.64H61.8393V468.668H66.0393V469.64ZM66.0393 467.456H61.8393V466.448H60.2673V470.9H67.6113V466.448H66.0393V467.456ZM66.0153 459.992V465.98H67.6113V459.992H66.0153ZM70.6704 464.564C72.7584 464.384 74.1144 463.604 74.7024 462.56C75.2904 463.604 76.6464 464.384 78.7224 464.564L79.2744 463.34C77.2104 463.16 76.1304 462.44 75.8544 461.696H78.7944V460.436H70.6224V461.696H73.5504C73.2744 462.44 72.1944 463.16 70.1424 463.34L70.6704 464.564ZM76.9104 469.04C76.9104 469.592 76.1544 469.832 74.6784 469.832C73.2024 469.832 72.4464 469.592 72.4464 469.04C72.4464 468.476 73.2024 468.236 74.6784 468.236C76.1544 468.236 76.9104 468.476 76.9104 469.04ZM79.6944 466.256V464.996H69.7104V466.256H73.9104V467.06C71.9904 467.216 70.8504 467.9 70.8504 469.04C70.8504 470.312 72.2904 471.032 74.6784 471.032C77.0664 471.032 78.5184 470.312 78.5184 469.04C78.5184 467.912 77.3904 467.228 75.4944 467.072V466.256H79.6944ZM85.1386 463.784L85.3426 465.116L91.6786 464.78C91.6186 465.44 91.4986 466.172 91.3066 466.988L92.8666 467.18C93.3826 464.756 93.3706 463.208 93.3706 461.876V460.904H85.4746V462.164H91.8106C91.8106 462.596 91.8106 463.064 91.7746 463.568L85.1386 463.784ZM89.4706 468.476V465.836H87.8866V468.476H84.3466V469.76H94.3426V468.476H89.4706ZM105.286 465.176C102.79 464.756 101.422 463.04 101.422 461.42V460.628H99.7297V461.42C99.7297 463.004 98.3497 464.756 95.8657 465.176L96.5377 466.508C98.4577 466.136 99.8617 465.056 100.57 463.652C101.278 465.056 102.694 466.124 104.614 466.508L105.286 465.176ZM95.6257 468.404V469.688H105.634V468.404H95.6257Z" fill="black"/>
<path d="M37.82 521.948L37.508 523.52H39.068V524.576H37.304L36.836 527H35.72L36.188 524.576H34.832L34.376 527H33.272L33.716 524.576H32.276V523.52H33.92L34.232 521.948H32.708V520.892H34.424L34.892 518.444H36.008L35.552 520.892H36.92L37.388 518.444H38.48L38.024 520.892H39.464V521.948H37.82ZM35.024 523.52H36.392L36.704 521.948H35.336L35.024 523.52ZM50.1738 522.176C47.6778 521.756 46.3098 520.04 46.3098 518.42V517.628H44.6178V518.42C44.6178 520.004 43.2378 521.756 40.7538 522.176L41.4258 523.508C43.3458 523.136 44.7498 522.056 45.4578 520.652C46.1658 522.056 47.5818 523.124 49.5018 523.508L50.1738 522.176ZM40.5138 525.404V526.688H50.5218V525.404H40.5138ZM58.8849 522.176C58.5369 522.224 58.1889 522.26 57.8289 522.296C58.1529 520.592 58.1529 519.404 58.1529 518.504V517.82H52.5849V519.08H56.5929C56.5809 519.356 56.5809 519.644 56.5569 519.992L52.2969 520.148L52.5249 521.456L56.4369 521.144C56.3889 521.54 56.3169 521.948 56.2329 522.404C54.6009 522.488 52.9929 522.5 51.6489 522.5L51.8409 523.76C52.6209 523.76 53.4729 523.748 54.3609 523.724V527.564H55.9449V523.64C56.9649 523.568 57.9849 523.46 58.9929 523.292L58.8849 522.176ZM59.6049 516.98V524.264H57.3969V525.488H59.6049V528.032H61.1889V516.98H59.6049ZM72.0119 522.68H65.8559V521.444H71.6759V520.22H65.8559V519.056H71.9279V517.784H64.2479V523.928H72.0119V522.68ZM63.0719 525.476V526.76H73.0799V525.476H63.0719ZM83.0122 521.948L82.7002 523.52H84.2602V524.576H82.4962L82.0282 527H80.9122L81.3802 524.576H80.0242L79.5682 527H78.4642L78.9082 524.576H77.4682V523.52H79.1122L79.4242 521.948H77.9002V520.892H79.6162L80.0842 518.444H81.2002L80.7442 520.892H82.1122L82.5802 518.444H83.6722L83.2162 520.892H84.6562V521.948H83.0122ZM80.2162 523.52H81.5842L81.8962 521.948H80.5282L80.2162 523.52ZM93.362 525.116H94.946V516.98H93.362V519.632H91.646V520.964H93.362V525.116ZM91.85 522.164C90.53 522.368 89.39 522.416 87.698 522.428V521.252H91.094V517.712H86.114V518.972H89.534V520.064H86.126V523.7H87.038C89.126 523.7 90.47 523.664 91.97 523.424L91.85 522.164ZM89.186 526.58V524.468H87.602V527.84H95.222V526.58H89.186ZM101.257 519.344H103.537V518.036H97.3451V519.344H99.6491V519.956C99.6491 521.84 98.7491 523.868 96.9011 524.696L97.8011 525.956C99.0971 525.368 99.9851 524.156 100.477 522.716C100.969 524.048 101.845 525.128 103.129 525.68L103.993 524.432C102.145 523.664 101.257 521.756 101.257 519.956V519.344ZM104.557 516.98V528.032H106.141V516.98H104.557ZM116.925 521.948L116.613 523.52H118.173V524.576H116.409L115.941 527H114.825L115.293 524.576H113.937L113.481 527H112.377L112.821 524.576H111.381V523.52H113.025L113.337 521.948H111.813V520.892H113.529L113.997 518.444H115.113L114.657 520.892H116.025L116.493 518.444H117.585L117.129 520.892H118.569V521.948H116.925ZM114.129 523.52H115.497L115.809 521.948H114.441L114.129 523.52ZM123.399 523.352C123.783 523.424 124.179 523.46 124.611 523.46C125.043 523.46 125.451 523.424 125.835 523.352V525.464H123.399V523.352ZM124.611 518.768C126.147 518.768 127.179 519.392 127.179 520.496C127.179 521.588 126.147 522.224 124.611 522.224C123.075 522.224 122.055 521.588 122.055 520.496C122.055 519.392 123.075 518.768 124.611 518.768ZM127.407 525.464V522.764C128.235 522.248 128.739 521.456 128.739 520.496C128.739 518.684 126.999 517.52 124.611 517.52C122.235 517.52 120.495 518.684 120.495 520.496C120.483 521.456 120.987 522.248 121.827 522.764V525.464H119.619V526.748H129.627V525.464H127.407ZM131.402 518.108V519.392H135.014C134.726 521.84 133.358 523.592 130.79 524.912L131.678 526.124C135.35 524.264 136.61 521.42 136.61 518.108H131.402ZM141.098 521.192H139.55V516.968H137.966V528.008H139.55V522.5H141.098V521.192Z" fill="#4A40FF"/>
<path d="M35.792 540.188H37.712V539.384H32.804V540.188H34.844V541.16C34.844 543.14 34.004 545.096 32.504 545.996L33.104 546.728C34.172 546.056 34.952 544.796 35.324 543.32C35.696 544.688 36.44 545.84 37.484 546.464L38.084 545.744C36.596 544.904 35.792 543.032 35.792 541.16V540.188ZM38.672 541.988H36.896V542.792H38.672V548.324H39.608V538.364H38.672V541.988ZM40.832 538.112V548.876H41.78V538.112H40.832ZM44.4911 539.276V540.092H48.4391C48.2111 542.636 46.7351 544.7 43.9871 546.08L44.5271 546.848C48.0071 545.108 49.4111 542.336 49.4111 539.276H44.4911ZM53.9231 542.492H52.1951V538.124H51.2111V548.888H52.1951V543.308H53.9231V542.492ZM67.3833 538.136H66.3993V546.008H67.3833V538.136ZM65.1273 543.692C63.5433 543.164 62.4273 541.856 62.4273 540.404V539.816H64.8633V539.024H58.9593V539.816H61.4193V540.404C61.4193 541.94 60.3273 543.344 58.6953 543.908L59.2113 544.676C60.4833 544.22 61.4793 543.248 61.9353 542.024C62.4273 543.152 63.4113 544.04 64.6473 544.472L65.1273 543.692ZM61.4433 547.844V545.264H60.4593V548.648H67.7073V547.844H61.4433ZM75.2784 540.02H76.5144V539.216H73.5384V540.02H74.3424V541.328C74.3424 542.564 74.1744 544.268 73.3104 545.408C72.4344 544.244 72.2784 542.516 72.2784 541.328V540.02H73.0704V539.216H70.0224V540.02H71.3424V541.328C71.3424 542.852 70.9824 544.916 69.6864 545.924L70.3104 546.632C71.0784 546.008 71.5344 545 71.8104 543.908C72.0504 545.024 72.4944 546.08 73.3104 546.728C74.1264 546.092 74.5704 545.036 74.8104 543.92C75.0744 545.024 75.5304 546.02 76.3224 546.632L76.9464 545.924C75.6384 544.94 75.2784 542.924 75.2784 541.328V540.02ZM79.8504 542.396H78.3624V538.136H77.3784V548.888H78.3624V543.224H79.8504V542.396ZM91.1626 539.276H88.3906V538.028H87.4066V539.276H84.6226V540.068H91.1626V539.276ZM86.2066 542.516C86.2066 541.796 86.8666 541.34 87.8986 541.34C88.9186 541.34 89.5906 541.796 89.5906 542.516C89.5906 543.224 88.9186 543.692 87.8986 543.692C86.8666 543.692 86.2066 543.224 86.2066 542.516ZM90.5266 542.516C90.5266 541.328 89.4706 540.596 87.8986 540.596C86.3266 540.596 85.2706 541.328 85.2706 542.516C85.2706 543.692 86.3266 544.424 87.8986 544.424C89.4706 544.424 90.5266 543.692 90.5266 542.516ZM87.2986 545.996H92.3386V547.952H87.2986V545.996ZM86.3386 548.744H93.2986V545.216H86.3386V548.744ZM92.3146 538.124V544.64H93.2986V538.124H92.3146ZM104.326 540.956H98.0257V539.276H104.218V538.484H97.0417V541.748H104.326V540.956ZM97.9057 546.884H104.23V544.352H96.9097V545.12H103.258V546.152H96.9457V548.756H104.554V547.988H97.9057V546.884ZM95.7457 542.612V543.416H105.49V542.612H95.7457ZM112.989 542.528H111.129C111.489 541.568 111.645 540.548 111.645 539.492H107.493V540.296H110.673C110.493 542.552 109.341 544.484 107.037 545.864L107.613 546.572C109.101 545.684 110.133 544.568 110.781 543.32H112.989V548.348H113.925V538.412H112.989V542.528ZM115.233 538.124V548.888H116.169V538.124H115.233ZM128.441 541.892H129.797V544.796H130.745V538.136H129.797V541.088H128.441V538.292H127.517V544.628H128.441V541.892ZM127.073 539.36H124.829V538.184H123.857V539.36H121.601V540.14H127.061L127.073 539.36ZM124.349 541.412C125.189 541.412 125.765 541.856 125.765 542.528C125.765 543.2 125.189 543.632 124.349 543.632C123.497 543.632 122.933 543.2 122.933 542.528C122.933 541.856 123.497 541.412 124.349 541.412ZM124.349 544.364C125.705 544.364 126.641 543.632 126.641 542.528C126.641 541.412 125.705 540.68 124.349 540.68C122.993 540.68 122.045 541.412 122.045 542.528C122.045 543.632 122.993 544.364 124.349 544.364ZM129.425 545.108H128.453V545.48C128.453 546.272 127.949 547.304 126.941 547.904C125.945 547.352 125.453 546.392 125.453 545.48V545.108H124.505V545.48C124.505 546.464 123.689 547.568 122.345 548.024L122.801 548.756C123.833 548.384 124.577 547.676 124.973 546.836C125.297 547.712 125.933 548.468 126.965 548.852C127.961 548.444 128.609 547.652 128.933 546.8C129.293 547.676 130.049 548.384 131.129 548.756L131.585 548.024C130.229 547.592 129.425 546.536 129.425 545.48V545.108ZM137.788 541.112V541.904H140.812V545.984H141.808V538.136H140.812V541.112H137.788ZM139.084 543.248C137.656 543.524 136.42 543.596 134.536 543.596V539.816H138.484V539.012H133.552V544.4H134.368C136.384 544.4 137.656 544.328 139.192 544.052L139.084 543.248ZM135.892 547.916V545.408H134.908V548.72H142.084V547.916H135.892ZM150.732 545.672C149.76 545.672 149.052 544.976 149.052 544.016C149.052 543.044 149.76 542.348 150.732 542.348C151.716 542.348 152.424 543.044 152.424 544.016C152.424 544.976 151.716 545.672 150.732 545.672ZM150.732 541.532C149.22 541.532 148.128 542.564 148.128 544.016C148.128 545.48 149.22 546.488 150.732 546.488C152.268 546.488 153.36 545.48 153.36 544.016C153.36 542.564 152.268 541.532 150.732 541.532ZM151.212 538.256H150.228V539.852H147.516V540.644H153.864V539.852H151.212V538.256ZM157.632 542.552H155.868V538.136H154.884V548.888H155.868V543.38H157.632V542.552ZM161.987 540.92H163.979V540.104H161.999V538.508H161.051V540.104H159.059V540.92H161.051V541.436C161.051 543.2 160.223 545.084 158.771 545.948L159.347 546.68C160.403 546.044 161.159 544.844 161.531 543.476C161.927 544.772 162.695 545.864 163.739 546.452L164.303 545.708C162.851 544.928 161.987 543.152 161.987 541.436V540.92ZM164.891 542.372H163.247V543.188H164.891V548.324H165.827V538.376H164.891V542.372ZM167.051 538.124V548.876H167.999V538.124H167.051ZM174.994 539.192C176.65 539.192 177.73 539.708 177.73 540.56C177.73 541.4 176.65 541.916 174.994 541.916C173.35 541.916 172.258 541.4 172.258 540.56C172.258 539.708 173.35 539.192 174.994 539.192ZM174.994 542.72C177.274 542.72 178.762 541.892 178.762 540.56C178.762 539.228 177.274 538.4 174.994 538.4C172.714 538.4 171.226 539.228 171.226 540.56C171.226 541.892 172.714 542.72 174.994 542.72ZM172.354 545.504H171.37V548.648H178.81V547.832H172.354V545.504ZM170.122 543.584V544.388H174.586V546.56H175.582V544.388H179.878V543.584H170.122ZM186.285 548.12C184.581 548.12 183.585 547.7 183.585 546.944C183.585 546.188 184.581 545.768 186.285 545.768C187.965 545.768 188.961 546.188 188.961 546.944C188.961 547.7 187.965 548.12 186.285 548.12ZM186.285 545C183.981 545 182.589 545.696 182.589 546.944C182.589 548.192 183.981 548.888 186.285 548.888C188.565 548.888 189.957 548.192 189.957 546.944C189.957 545.696 188.565 545 186.285 545ZM186.777 543.44V542.192H190.017V541.4H183.621V539.408H189.945V538.616H182.637V542.192H185.793V543.44H181.413V544.232H191.157V543.44H186.777ZM198.15 539.804H203.658V543.296H198.15V539.804ZM201.414 546.692V544.076H204.618V539.024H197.202V544.076H200.418V546.692H196.05V547.508H205.806V546.692H201.414ZM212.189 538.364C209.861 538.364 208.409 539.12 208.409 540.404C208.409 541.676 209.861 542.432 212.189 542.432C214.517 542.432 215.969 541.676 215.969 540.404C215.969 539.12 214.517 538.364 212.189 538.364ZM212.189 539.144C213.893 539.144 214.961 539.612 214.961 540.404C214.961 541.196 213.893 541.664 212.189 541.664C210.485 541.664 209.417 541.196 209.417 540.404C209.417 539.612 210.485 539.144 212.189 539.144ZM208.529 545.204V548.744H215.873V545.204H208.529ZM214.913 545.984V547.952H209.489V545.984H214.913ZM207.329 543.356V544.148H217.061V543.356H207.329ZM226.456 538.136V543.908H227.44V538.136H226.456ZM220.504 544.436V548.744H227.44V544.436H226.468V545.756H221.476V544.436H220.504ZM221.476 546.524H226.468V547.952H221.476V546.524ZM221.656 538.64C220.036 538.64 218.86 539.648 218.86 541.112C218.86 542.6 220.036 543.596 221.656 543.596C223.288 543.596 224.476 542.6 224.476 541.112C224.476 539.648 223.288 538.64 221.656 538.64ZM221.656 539.456C222.748 539.456 223.516 540.14 223.516 541.112C223.516 542.096 222.748 542.78 221.656 542.78C220.588 542.78 219.82 542.096 219.82 541.112C219.82 540.14 220.588 539.456 221.656 539.456ZM231.543 539.168H230.559V546.104H231.447C233.163 546.104 234.855 545.984 236.727 545.6L236.619 544.76C234.831 545.12 233.163 545.264 231.543 545.264V539.168ZM237.723 538.124V548.876H238.707V538.124H237.723ZM242.606 539.972H246.626V539.156H241.622V546.224H242.474C244.502 546.224 245.918 546.152 247.562 545.84L247.454 545.024C245.894 545.3 244.514 545.384 242.606 545.384V539.972ZM251.222 542.372H249.446V538.124H248.462V548.912H249.446V543.188H251.222V542.372ZM253.909 545.456H253.009L252.709 539.432H254.209L253.909 545.456ZM252.625 547.292C252.625 546.98 252.705 546.76 252.865 546.632C253.025 546.504 253.221 546.44 253.453 546.44C253.669 546.44 253.857 546.504 254.017 546.632C254.185 546.76 254.269 546.98 254.269 547.292C254.269 547.604 254.185 547.828 254.017 547.964C253.857 548.1 253.669 548.168 253.453 548.168C253.221 548.168 253.025 548.1 252.865 547.964C252.705 547.828 252.625 547.604 252.625 547.292Z" fill="black"/>
<path d="M121.724 468H117.532V467.416L119.747 464.955C120.075 464.583 120.3 464.281 120.423 464.049C120.549 463.815 120.612 463.573 120.612 463.324C120.612 462.99 120.511 462.716 120.309 462.502C120.107 462.289 119.837 462.182 119.5 462.182C119.096 462.182 118.781 462.297 118.556 462.529C118.333 462.757 118.222 463.077 118.222 463.487H117.409C117.409 462.898 117.598 462.422 117.976 462.059C118.356 461.695 118.865 461.514 119.5 461.514C120.095 461.514 120.565 461.67 120.911 461.984C121.257 462.294 121.43 462.709 121.43 463.228C121.43 463.857 121.028 464.607 120.226 465.478L118.512 467.336H121.724V468ZM126.778 465.271C126.778 466.223 126.615 466.931 126.29 467.394C125.965 467.856 125.456 468.088 124.765 468.088C124.082 468.088 123.577 467.862 123.249 467.411C122.921 466.957 122.751 466.28 122.739 465.381V464.295C122.739 463.355 122.902 462.656 123.227 462.199C123.552 461.742 124.062 461.514 124.756 461.514C125.445 461.514 125.951 461.735 126.277 462.177C126.602 462.617 126.769 463.296 126.778 464.216V465.271ZM125.965 464.159C125.965 463.471 125.868 462.97 125.675 462.656C125.481 462.34 125.175 462.182 124.756 462.182C124.34 462.182 124.037 462.338 123.847 462.652C123.656 462.965 123.558 463.447 123.552 464.098V465.398C123.552 466.09 123.652 466.601 123.851 466.932C124.053 467.26 124.358 467.424 124.765 467.424C125.166 467.424 125.464 467.269 125.657 466.958C125.853 466.648 125.956 466.159 125.965 465.491V464.159ZM132.192 468H127.999V467.416L130.214 464.955C130.542 464.583 130.768 464.281 130.891 464.049C131.017 463.815 131.08 463.573 131.08 463.324C131.08 462.99 130.979 462.716 130.777 462.502C130.574 462.289 130.305 462.182 129.968 462.182C129.564 462.182 129.249 462.297 129.023 462.529C128.8 462.757 128.689 463.077 128.689 463.487H127.876C127.876 462.898 128.065 462.422 128.443 462.059C128.824 461.695 129.332 461.514 129.968 461.514C130.563 461.514 131.033 461.67 131.379 461.984C131.724 462.294 131.897 462.709 131.897 463.228C131.897 463.857 131.496 464.607 130.693 465.478L128.979 467.336H132.192V468ZM135.905 468H135.087V462.582L133.448 463.184V462.445L135.777 461.571H135.905V468ZM140.242 465.614H138.097V464.95H140.242V465.614ZM145.146 465.271C145.146 466.223 144.983 466.931 144.658 467.394C144.333 467.856 143.825 468.088 143.133 468.088C142.451 468.088 141.945 467.862 141.617 467.411C141.289 466.957 141.119 466.28 141.108 465.381V464.295C141.108 463.355 141.27 462.656 141.595 462.199C141.921 461.742 142.43 461.514 143.125 461.514C143.813 461.514 144.32 461.735 144.645 462.177C144.97 462.617 145.137 463.296 145.146 464.216V465.271ZM144.333 464.159C144.333 463.471 144.236 462.97 144.043 462.656C143.85 462.34 143.544 462.182 143.125 462.182C142.709 462.182 142.405 462.338 142.215 462.652C142.025 462.965 141.926 463.447 141.921 464.098V465.398C141.921 466.09 142.02 466.601 142.219 466.932C142.421 467.26 142.726 467.424 143.133 467.424C143.535 467.424 143.832 467.269 144.025 466.958C144.222 466.648 144.324 466.159 144.333 465.491V464.159ZM150.498 462.059L147.849 468H146.996L149.637 462.27H146.174V461.602H150.498V462.059ZM153.377 465.614H151.232V464.95H153.377V465.614ZM158.461 468H154.269V467.416L156.483 464.955C156.812 464.583 157.037 464.281 157.16 464.049C157.286 463.815 157.349 463.573 157.349 463.324C157.349 462.99 157.248 462.716 157.046 462.502C156.844 462.289 156.574 462.182 156.237 462.182C155.833 462.182 155.518 462.297 155.293 462.529C155.07 462.757 154.959 463.077 154.959 463.487H154.146C154.146 462.898 154.335 462.422 154.712 462.059C155.093 461.695 155.602 461.514 156.237 461.514C156.832 461.514 157.302 461.67 157.648 461.984C157.994 462.294 158.167 462.709 158.167 463.228C158.167 463.857 157.765 464.607 156.962 465.478L155.249 467.336H158.461V468ZM162.174 468H161.357V462.582L159.718 463.184V462.445L162.047 461.571H162.174V468Z" fill="black" fill-opacity="0.6"/>
<path d="M312.644 462.227C312.713 461.768 312.843 461.365 313.034 461.018C313.224 460.671 313.463 460.383 313.749 460.153C314.035 459.924 314.36 459.753 314.724 459.64C315.092 459.523 315.488 459.464 315.913 459.464C316.364 459.464 316.767 459.529 317.122 459.659C317.482 459.785 317.785 459.958 318.032 460.179C318.279 460.4 318.468 460.658 318.598 460.953C318.732 461.248 318.799 461.564 318.799 461.902C318.799 462.201 318.767 462.465 318.702 462.695C318.641 462.92 318.548 463.117 318.422 463.286C318.301 463.455 318.149 463.598 317.967 463.715C317.789 463.832 317.584 463.93 317.35 464.008C318.433 464.363 318.975 465.085 318.975 466.172C318.975 466.653 318.886 467.078 318.708 467.446C318.53 467.81 318.292 468.116 317.993 468.363C317.694 468.61 317.345 468.796 316.947 468.922C316.552 469.043 316.138 469.104 315.705 469.104C315.246 469.104 314.841 469.052 314.49 468.948C314.139 468.844 313.829 468.688 313.56 468.48C313.296 468.272 313.068 468.012 312.878 467.7C312.687 467.384 312.52 467.015 312.377 466.595L313.17 466.27C313.378 466.183 313.571 466.159 313.749 466.198C313.931 466.237 314.061 466.333 314.139 466.484C314.225 466.649 314.316 466.801 314.412 466.939C314.511 467.078 314.622 467.199 314.743 467.303C314.864 467.403 315.001 467.481 315.153 467.537C315.309 467.594 315.486 467.622 315.686 467.622C315.937 467.622 316.156 467.581 316.342 467.498C316.528 467.416 316.684 467.31 316.81 467.18C316.936 467.046 317.029 466.896 317.09 466.731C317.155 466.562 317.187 466.396 317.187 466.231C317.187 466.014 317.168 465.819 317.129 465.646C317.09 465.468 316.999 465.319 316.856 465.197C316.717 465.072 316.509 464.976 316.232 464.911C315.959 464.842 315.586 464.807 315.114 464.807V463.546C315.508 463.546 315.831 463.514 316.082 463.449C316.333 463.384 316.531 463.293 316.674 463.176C316.817 463.059 316.914 462.918 316.966 462.753C317.022 462.589 317.051 462.409 317.051 462.214C317.051 461.802 316.942 461.488 316.726 461.271C316.513 461.055 316.21 460.946 315.816 460.946C315.642 460.946 315.482 460.972 315.335 461.024C315.192 461.072 315.062 461.139 314.945 461.226C314.832 461.313 314.734 461.414 314.652 461.531C314.57 461.648 314.509 461.776 314.47 461.915C314.388 462.132 314.282 462.277 314.152 462.35C314.022 462.42 313.833 462.435 313.586 462.396L312.644 462.227ZM324.377 465.399V462.591C324.377 462.444 324.381 462.288 324.39 462.123C324.403 461.954 324.42 461.778 324.442 461.596L321.712 465.399H324.377ZM327.029 465.399V466.413C327.029 466.508 326.997 466.591 326.932 466.66C326.871 466.725 326.784 466.757 326.672 466.757H325.937V469H324.377V466.757H320.484C320.371 466.757 320.267 466.723 320.172 466.653C320.081 466.584 320.024 466.493 320.003 466.38L319.814 465.483L324.234 459.562H325.937V465.399H327.029ZM333.966 467.355C334.161 467.355 334.312 467.41 334.421 467.518C334.533 467.626 334.59 467.769 334.59 467.947V469H328.051V468.415C328.051 468.302 328.074 468.181 328.122 468.051C328.17 467.917 328.25 467.795 328.363 467.687L331.158 464.885C331.396 464.647 331.606 464.42 331.788 464.203C331.97 463.982 332.122 463.767 332.243 463.559C332.364 463.347 332.455 463.133 332.516 462.916C332.577 462.699 332.607 462.472 332.607 462.233C332.607 461.813 332.499 461.495 332.282 461.278C332.065 461.057 331.76 460.946 331.366 460.946C331.192 460.946 331.032 460.972 330.885 461.024C330.742 461.072 330.612 461.139 330.495 461.226C330.382 461.313 330.284 461.414 330.202 461.531C330.12 461.648 330.059 461.776 330.02 461.915C329.942 462.132 329.836 462.277 329.702 462.35C329.572 462.42 329.385 462.435 329.143 462.396L328.194 462.227C328.263 461.768 328.393 461.365 328.584 461.018C328.774 460.671 329.013 460.383 329.299 460.153C329.585 459.924 329.912 459.753 330.28 459.64C330.648 459.523 331.045 459.464 331.47 459.464C331.916 459.464 332.321 459.532 332.685 459.666C333.053 459.796 333.368 459.98 333.628 460.218C333.888 460.452 334.089 460.736 334.232 461.07C334.375 461.404 334.447 461.772 334.447 462.175C334.447 462.522 334.397 462.842 334.297 463.137C334.197 463.432 334.061 463.713 333.888 463.982C333.719 464.246 333.521 464.504 333.296 464.755C333.071 465.007 332.832 465.26 332.581 465.516L330.579 467.563C330.8 467.498 331.019 467.449 331.236 467.414C331.452 467.375 331.656 467.355 331.847 467.355H333.966Z" fill="#4A40FF"/>
<path d="M299.5 456C297.76 456 296.09 456.81 295 458.09C293.91 456.81 292.24 456 290.5 456C287.42 456 285 458.42 285 461.5C285 465.28 288.4 468.36 293.55 473.04L295 474.35L296.45 473.03C301.6 468.36 305 465.28 305 461.5C305 458.42 302.58 456 299.5 456ZM295.1 471.55L295 471.65L294.9 471.55C290.14 467.24 287 464.39 287 461.5C287 459.5 288.5 458 290.5 458C292.04 458 293.54 458.99 294.07 460.36H295.94C296.46 458.99 297.96 458 299.5 458C301.5 458 303 459.5 303 461.5C303 464.39 299.86 467.24 295.1 471.55Z" fill="#4A40FF"/>
<path d="M366 461C367.1 461 368 460.1 368 459C368 457.9 367.1 457 366 457C364.9 457 364 457.9 364 459C364 460.1 364.9 461 366 461ZM366 463C364.9 463 364 463.9 364 465C364 466.1 364.9 467 366 467C367.1 467 368 466.1 368 465C368 463.9 367.1 463 366 463ZM366 469C364.9 469 364 469.9 364 471C364 472.1 364.9 473 366 473C367.1 473 368 472.1 368 471C368 469.9 367.1 469 366 469Z" fill="black"/>
<rect x="32" y="590" width="72" height="44" rx="22" fill="#8B83FF"/>
<mask id="mask0" mask-type="alpha" maskUnits="userSpaceOnUse" x="32" y="590" width="72" height="44">
<rect x="32" y="590" width="72" height="44" rx="22" fill="#8B83FF"/>
</mask>
<g mask="url(#mask0)">
<rect x="131" y="582" width="78" height="78" rx="39" transform="rotate(90 131 582)" fill="#4A40FF"/>
<path d="M65.626 610.495C65.626 610.805 65.5371 611.044 65.3594 611.213C65.1862 611.382 64.9674 611.466 64.7031 611.466C64.4434 611.466 64.2269 611.382 64.0537 611.213C63.8851 611.044 63.8008 610.805 63.8008 610.495C63.8008 610.199 63.8851 609.964 64.0537 609.791C64.2223 609.618 64.4388 609.531 64.7031 609.531C64.9674 609.531 65.1862 609.616 65.3594 609.784C65.5371 609.953 65.626 610.19 65.626 610.495ZM71.4297 610.495C71.4297 610.805 71.3408 611.044 71.1631 611.213C70.9899 611.382 70.7712 611.466 70.5068 611.466C70.2471 611.466 70.0306 611.382 69.8574 611.213C69.6888 611.044 69.6045 610.805 69.6045 610.495C69.6045 610.199 69.6888 609.964 69.8574 609.791C70.026 609.618 70.2425 609.531 70.5068 609.531C70.7712 609.531 70.9899 609.616 71.1631 609.784C71.3408 609.953 71.4297 610.19 71.4297 610.495Z" fill="white"/>
<path d="M74 614C71.8182 615.509 67.2364 617.622 62 614" stroke="white"/>
</g>
<path d="M132.893 600.52C133.411 600.646 134.013 600.716 134.629 600.716C135.259 600.716 135.861 600.646 136.393 600.52V603.474H132.893V600.52ZM134.629 595.172C136.645 595.172 138.101 596.096 138.101 597.496C138.101 598.896 136.645 599.82 134.629 599.82C132.613 599.82 131.171 598.896 131.171 597.496C131.171 596.096 132.613 595.172 134.629 595.172ZM137.541 603.474V600.072C138.577 599.526 139.193 598.63 139.193 597.496C139.193 595.536 137.303 594.276 134.629 594.276C131.969 594.276 130.065 595.536 130.065 597.496C130.065 598.63 130.695 599.54 131.745 600.086V603.474H128.945V604.426H140.355V603.474H137.541ZM142.51 594.822V595.774H147.116C146.85 598.742 145.128 601.15 141.922 602.76L142.552 603.656C146.612 601.626 148.25 598.392 148.25 594.822H142.51ZM153.514 598.574H151.498V593.478H150.35V606.036H151.498V599.526H153.514V598.574ZM160.037 597.23C160.037 596.068 160.989 595.27 162.263 595.27C163.579 595.27 164.517 596.068 164.517 597.23C164.517 598.406 163.579 599.218 162.263 599.218C160.989 599.218 160.037 598.406 160.037 597.23ZM162.837 600.156C164.503 599.96 165.637 598.812 165.637 597.23C165.637 595.48 164.237 594.29 162.263 594.29C160.331 594.29 158.917 595.48 158.917 597.23C158.917 598.812 160.065 599.946 161.689 600.156V602.326C160.457 602.368 159.295 602.368 158.287 602.368L158.427 603.334C160.695 603.334 163.733 603.306 166.561 602.788L166.463 601.934C165.301 602.116 164.055 602.214 162.837 602.284V600.156ZM167.289 593.464V606.064H168.437V593.464H167.289ZM176.492 599.265H177.504C178.014 599.26 178.418 599.128 178.714 598.868C179.015 598.608 179.165 598.232 179.165 597.74C179.165 597.266 179.04 596.899 178.789 596.64C178.543 596.375 178.165 596.243 177.654 596.243C177.208 596.243 176.841 596.373 176.554 596.633C176.267 596.888 176.123 597.223 176.123 597.638H174.462C174.462 597.127 174.596 596.662 174.865 596.243C175.139 595.824 175.517 595.498 176 595.266C176.488 595.029 177.032 594.91 177.634 594.91C178.627 594.91 179.407 595.161 179.972 595.662C180.541 596.159 180.826 596.852 180.826 597.74C180.826 598.187 180.683 598.608 180.396 599.005C180.113 599.397 179.746 599.693 179.295 599.894C179.842 600.08 180.257 600.374 180.539 600.775C180.826 601.176 180.97 601.655 180.97 602.211C180.97 603.104 180.662 603.815 180.047 604.344C179.436 604.872 178.632 605.137 177.634 605.137C176.677 605.137 175.893 604.882 175.282 604.371C174.672 603.861 174.366 603.182 174.366 602.334H176.027C176.027 602.771 176.173 603.127 176.465 603.4C176.761 603.674 177.158 603.811 177.654 603.811C178.169 603.811 178.575 603.674 178.871 603.4C179.167 603.127 179.315 602.73 179.315 602.211C179.315 601.687 179.16 601.284 178.851 601.001C178.541 600.718 178.08 600.577 177.47 600.577H176.492V599.265Z" fill="black"/>
<path d="M135.109 624.755C135.109 626.236 134.856 627.337 134.351 628.057C133.845 628.777 133.054 629.137 131.979 629.137C130.917 629.137 130.131 628.786 129.62 628.084C129.11 627.378 128.845 626.325 128.827 624.926V623.237C128.827 621.774 129.08 620.688 129.586 619.977C130.092 619.266 130.885 618.91 131.965 618.91C133.036 618.91 133.824 619.254 134.33 619.942C134.836 620.626 135.096 621.683 135.109 623.114V624.755ZM133.845 623.025C133.845 621.954 133.694 621.175 133.394 620.688C133.093 620.195 132.617 619.949 131.965 619.949C131.318 619.949 130.846 620.193 130.55 620.681C130.254 621.168 130.101 621.918 130.092 622.93V624.953C130.092 626.029 130.247 626.824 130.557 627.339C130.871 627.849 131.345 628.104 131.979 628.104C132.603 628.104 133.065 627.863 133.366 627.38C133.672 626.897 133.831 626.136 133.845 625.097V623.025ZM143.155 619.758L139.033 629H137.707L141.815 620.086H136.429V619.047H143.155V619.758ZM144.748 628.337C144.748 628.118 144.812 627.936 144.939 627.79C145.072 627.644 145.268 627.571 145.527 627.571C145.787 627.571 145.983 627.644 146.115 627.79C146.252 627.936 146.32 628.118 146.32 628.337C146.32 628.547 146.252 628.722 146.115 628.863C145.983 629.005 145.787 629.075 145.527 629.075C145.268 629.075 145.072 629.005 144.939 628.863C144.812 628.722 144.748 628.547 144.748 628.337ZM154.804 629H148.282V628.091L151.728 624.263C152.238 623.684 152.589 623.215 152.78 622.854C152.976 622.49 153.074 622.114 153.074 621.727C153.074 621.207 152.917 620.781 152.603 620.448C152.288 620.116 151.869 619.949 151.345 619.949C150.716 619.949 150.226 620.129 149.875 620.489C149.529 620.845 149.355 621.341 149.355 621.979H148.091C148.091 621.063 148.385 620.323 148.973 619.758C149.565 619.193 150.356 618.91 151.345 618.91C152.27 618.91 153.001 619.154 153.539 619.642C154.077 620.125 154.346 620.77 154.346 621.576C154.346 622.556 153.721 623.723 152.473 625.076L149.807 627.968H154.804V629ZM161.106 619.04V620.113H160.874C159.89 620.132 159.106 620.423 158.522 620.988C157.939 621.553 157.602 622.349 157.511 623.374C158.035 622.772 158.75 622.472 159.657 622.472C160.523 622.472 161.214 622.777 161.729 623.388C162.248 623.998 162.508 624.787 162.508 625.753C162.508 626.778 162.228 627.599 161.667 628.214C161.111 628.829 160.364 629.137 159.425 629.137C158.472 629.137 157.7 628.772 157.107 628.043C156.515 627.309 156.219 626.366 156.219 625.213V624.728C156.219 622.896 156.608 621.496 157.388 620.53C158.172 619.56 159.336 619.063 160.881 619.04H161.106ZM159.445 623.524C159.012 623.524 158.614 623.654 158.249 623.914C157.884 624.174 157.632 624.5 157.49 624.892V625.356C157.49 626.177 157.675 626.838 158.044 627.339C158.413 627.84 158.873 628.091 159.425 628.091C159.994 628.091 160.441 627.881 160.765 627.462C161.093 627.043 161.257 626.493 161.257 625.814C161.257 625.131 161.09 624.579 160.758 624.16C160.43 623.736 159.992 623.524 159.445 623.524ZM172.789 623.408H173.739C174.336 623.399 174.806 623.242 175.147 622.937C175.489 622.631 175.66 622.219 175.66 621.699C175.66 620.533 175.079 619.949 173.917 619.949C173.37 619.949 172.933 620.106 172.604 620.421C172.281 620.731 172.119 621.143 172.119 621.658H170.854C170.854 620.87 171.142 620.216 171.716 619.696C172.295 619.172 173.028 618.91 173.917 618.91C174.856 618.91 175.592 619.159 176.125 619.655C176.658 620.152 176.925 620.842 176.925 621.727C176.925 622.16 176.784 622.579 176.501 622.984C176.223 623.39 175.842 623.693 175.359 623.894C175.906 624.067 176.328 624.354 176.624 624.755C176.925 625.156 177.075 625.646 177.075 626.225C177.075 627.118 176.784 627.826 176.2 628.351C175.617 628.875 174.858 629.137 173.924 629.137C172.99 629.137 172.229 628.884 171.641 628.378C171.057 627.872 170.766 627.204 170.766 626.375H172.037C172.037 626.899 172.208 627.318 172.55 627.633C172.892 627.947 173.35 628.104 173.924 628.104C174.535 628.104 175.002 627.945 175.325 627.626C175.649 627.307 175.811 626.849 175.811 626.252C175.811 625.673 175.633 625.229 175.277 624.919C174.922 624.609 174.409 624.45 173.739 624.44H172.789V623.408ZM185.053 624.755C185.053 626.236 184.8 627.337 184.294 628.057C183.788 628.777 182.997 629.137 181.922 629.137C180.86 629.137 180.074 628.786 179.563 628.084C179.053 627.378 178.789 626.325 178.771 624.926V623.237C178.771 621.774 179.023 620.688 179.529 619.977C180.035 619.266 180.828 618.91 181.908 618.91C182.979 618.91 183.768 619.254 184.273 619.942C184.779 620.626 185.039 621.683 185.053 623.114V624.755ZM183.788 623.025C183.788 621.954 183.638 621.175 183.337 620.688C183.036 620.195 182.56 619.949 181.908 619.949C181.261 619.949 180.789 620.193 180.493 620.681C180.197 621.168 180.044 621.918 180.035 622.93V624.953C180.035 626.029 180.19 626.824 180.5 627.339C180.814 627.849 181.288 628.104 181.922 628.104C182.546 628.104 183.009 627.863 183.31 627.38C183.615 626.897 183.774 626.136 183.788 625.097V623.025ZM186.762 628.337C186.762 628.118 186.826 627.936 186.953 627.79C187.085 627.644 187.281 627.571 187.541 627.571C187.801 627.571 187.997 627.644 188.129 627.79C188.266 627.936 188.334 628.118 188.334 628.337C188.334 628.547 188.266 628.722 188.129 628.863C187.997 629.005 187.801 629.075 187.541 629.075C187.281 629.075 187.085 629.005 186.953 628.863C186.826 628.722 186.762 628.547 186.762 628.337ZM186.769 622.301C186.769 622.082 186.832 621.9 186.96 621.754C187.092 621.608 187.288 621.535 187.548 621.535C187.808 621.535 188.004 621.608 188.136 621.754C188.272 621.9 188.341 622.082 188.341 622.301C188.341 622.51 188.272 622.686 188.136 622.827C188.004 622.968 187.808 623.039 187.548 623.039C187.288 623.039 187.092 622.968 186.96 622.827C186.832 622.686 186.769 622.51 186.769 622.301ZM196.305 624.755C196.305 626.236 196.052 627.337 195.546 628.057C195.04 628.777 194.249 629.137 193.174 629.137C192.112 629.137 191.326 628.786 190.815 628.084C190.305 627.378 190.041 626.325 190.022 624.926V623.237C190.022 621.774 190.275 620.688 190.781 619.977C191.287 619.266 192.08 618.91 193.16 618.91C194.231 618.91 195.02 619.254 195.525 619.942C196.031 620.626 196.291 621.683 196.305 623.114V624.755ZM195.04 623.025C195.04 621.954 194.89 621.175 194.589 620.688C194.288 620.195 193.812 619.949 193.16 619.949C192.513 619.949 192.041 620.193 191.745 620.681C191.449 621.168 191.296 621.918 191.287 622.93V624.953C191.287 626.029 191.442 626.824 191.752 627.339C192.066 627.849 192.54 628.104 193.174 628.104C193.798 628.104 194.261 627.863 194.562 627.38C194.867 626.897 195.026 626.136 195.04 625.097V623.025ZM204.166 624.755C204.166 626.236 203.913 627.337 203.407 628.057C202.901 628.777 202.111 629.137 201.035 629.137C199.973 629.137 199.187 628.786 198.677 628.084C198.166 627.378 197.902 626.325 197.884 624.926V623.237C197.884 621.774 198.137 620.688 198.643 619.977C199.148 619.266 199.941 618.91 201.021 618.91C202.092 618.91 202.881 619.254 203.387 619.942C203.893 620.626 204.152 621.683 204.166 623.114V624.755ZM202.901 623.025C202.901 621.954 202.751 621.175 202.45 620.688C202.149 620.195 201.673 619.949 201.021 619.949C200.374 619.949 199.903 620.193 199.606 620.681C199.31 621.168 199.158 621.918 199.148 622.93V624.953C199.148 626.029 199.303 626.824 199.613 627.339C199.928 627.849 200.402 628.104 201.035 628.104C201.66 628.104 202.122 627.863 202.423 627.38C202.728 626.897 202.888 626.136 202.901 625.097V623.025Z" fill="black" fill-opacity="0.54"/>
<rect x="185" y="738" width="8" height="8" fill="#E9E8FF"/>
<rect x="201" y="738" width="8" height="8" fill="#4A40FF"/>
<rect x="217" y="738" width="8" height="8" fill="#E9E8FF"/>
</g>
<defs>
<filter id="filter0_d" x="12" y="437" width="387" height="227" filterUnits="userSpaceOnUse" color-interpolation-filters="sRGB">
<feFlood flood-opacity="0" result="BackgroundImageFix"/>
<feColorMatrix in="SourceAlpha" type="matrix" values="0 0 0 0 0 0 0 0 0 0 0 0 0 0 0 0 0 0 127 0" result="hardAlpha"/>
<feOffset dy="4"/>
<feGaussianBlur stdDeviation="2"/>
<feComposite in2="hardAlpha" operator="out"/>
<feColorMatrix type="matrix" values="0 0 0 0 0 0 0 0 0 0 0 0 0 0 0 0 0 0 0.1 0"/>
<feBlend mode="normal" in2="BackgroundImageFix" result="effect1_dropShadow"/>
<feBlend mode="normal" in="SourceGraphic" in2="effect1_dropShadow" result="shape"/>
</filter>
<clipPath id="clip0">
<rect width="411" height="823" fill="white"/>
</clipPath>
</defs>
</svg>
