<svg width="411" height="823" preserveAspectRatio="none" viewBox="0 0 411 823" fill="none" xmlns="http://www.w3.org/2000/svg">
<g clip-path="url(#clip0)">
<rect width="411" height="823" fill="#F7F7FA"/>
<rect y="-4" width="411" height="400" fill="white"/>
<line x1="16.5" y1="33.8945" x2="16.5" y2="372.14" stroke="#F7F7FA"/>
<line x1="70.5" y1="33.8945" x2="70.5" y2="372.14" stroke="#F7F7FA"/>
<line x1="124.5" y1="33.8945" x2="124.5" y2="372.14" stroke="#F7F7FA"/>
<line x1="178.5" y1="33.8945" x2="178.5" y2="372.14" stroke="#F7F7FA"/>
<line x1="232.5" y1="33.8945" x2="232.5" y2="372.14" stroke="#F7F7FA"/>
<line x1="286.5" y1="33.8945" x2="286.5" y2="372.14" stroke="#F7F7FA"/>
<line x1="340.5" y1="33.8945" x2="340.5" y2="372.14" stroke="#F7F7FA"/>
<line x1="394.5" y1="33.8945" x2="394.5" y2="372.14" stroke="#F7F7FA"/>
<line y1="100.762" x2="411" y2="100.762" stroke="#F7F7FA"/>
<line y1="168.129" x2="411" y2="168.129" stroke="#F7F7FA"/>
<line y1="235.5" x2="411" y2="235.5" stroke="#F7F7FA"/>
<line y1="302.867" x2="411" y2="302.867" stroke="#F7F7FA"/>
<rect x="143" y="228" width="125" height="30" fill="#4A40FF" fill-opacity="0.2"/>
<path d="M144.115 241.624C144.115 239.992 144.491 238.528 145.243 237.232C146.011 235.936 147.043 234.928 148.339 234.208C149.651 233.472 151.083 233.104 152.635 233.104C154.411 233.104 155.987 233.544 157.363 234.424C158.755 235.288 159.763 236.52 160.387 238.12H157.099C156.667 237.24 156.067 236.584 155.299 236.152C154.531 235.72 153.643 235.504 152.635 235.504C151.531 235.504 150.547 235.752 149.683 236.248C148.819 236.744 148.139 237.456 147.643 238.384C147.163 239.312 146.923 240.392 146.923 241.624C146.923 242.856 147.163 243.936 147.643 244.864C148.139 245.792 148.819 246.512 149.683 247.024C150.547 247.52 151.531 247.768 152.635 247.768C153.643 247.768 154.531 247.552 155.299 247.12C156.067 246.688 156.667 246.032 157.099 245.152H160.387C159.763 246.752 158.755 247.984 157.363 248.848C155.987 249.712 154.411 250.144 152.635 250.144C151.067 250.144 149.635 249.784 148.339 249.064C147.043 248.328 146.011 247.312 145.243 246.016C144.491 244.72 144.115 243.256 144.115 241.624ZM170.429 236.56C171.437 236.56 172.333 236.776 173.117 237.208C173.917 237.64 174.541 238.28 174.989 239.128C175.453 239.976 175.685 241 175.685 242.2V250H172.973V242.608C172.973 241.424 172.677 240.52 172.085 239.896C171.493 239.256 170.685 238.936 169.661 238.936C168.637 238.936 167.821 239.256 167.213 239.896C166.621 240.52 166.325 241.424 166.325 242.608V250H163.589V232.24H166.325V238.312C166.789 237.752 167.373 237.32 168.077 237.016C168.797 236.712 169.581 236.56 170.429 236.56ZM178.263 243.328C178.263 242 178.535 240.824 179.079 239.8C179.639 238.776 180.391 237.984 181.335 237.424C182.295 236.848 183.351 236.56 184.503 236.56C185.543 236.56 186.447 236.768 187.215 237.184C187.999 237.584 188.623 238.088 189.087 238.696V236.776H191.847V250H189.087V248.032C188.623 248.656 187.991 249.176 187.191 249.592C186.391 250.008 185.479 250.216 184.455 250.216C183.319 250.216 182.279 249.928 181.335 249.352C180.391 248.76 179.639 247.944 179.079 246.904C178.535 245.848 178.263 244.656 178.263 243.328ZM189.087 243.376C189.087 242.464 188.895 241.672 188.511 241C188.143 240.328 187.655 239.816 187.047 239.464C186.439 239.112 185.783 238.936 185.079 238.936C184.375 238.936 183.719 239.112 183.111 239.464C182.503 239.8 182.007 240.304 181.623 240.976C181.255 241.632 181.071 242.416 181.071 243.328C181.071 244.24 181.255 245.04 181.623 245.728C182.007 246.416 182.503 246.944 183.111 247.312C183.735 247.664 184.391 247.84 185.079 247.84C185.783 247.84 186.439 247.664 187.047 247.312C187.655 246.96 188.143 246.448 188.511 245.776C188.895 245.088 189.087 244.288 189.087 243.376ZM198.177 232.24V250H195.441V232.24H198.177ZM204.505 232.24V250H201.769V232.24H204.505ZM220.217 243.064C220.217 243.56 220.185 244.008 220.121 244.408H210.017C210.097 245.464 210.489 246.312 211.193 246.952C211.897 247.592 212.761 247.912 213.785 247.912C215.257 247.912 216.297 247.296 216.905 246.064H219.857C219.457 247.28 218.729 248.28 217.673 249.064C216.633 249.832 215.337 250.216 213.785 250.216C212.521 250.216 211.385 249.936 210.377 249.376C209.385 248.8 208.601 248 208.025 246.976C207.465 245.936 207.185 244.736 207.185 243.376C207.185 242.016 207.457 240.824 208.001 239.8C208.561 238.76 209.337 237.96 210.329 237.4C211.337 236.84 212.489 236.56 213.785 236.56C215.033 236.56 216.145 236.832 217.121 237.376C218.097 237.92 218.857 238.688 219.401 239.68C219.945 240.656 220.217 241.784 220.217 243.064ZM217.361 242.2C217.345 241.192 216.985 240.384 216.281 239.776C215.577 239.168 214.705 238.864 213.665 238.864C212.721 238.864 211.913 239.168 211.241 239.776C210.569 240.368 210.169 241.176 210.041 242.2H217.361ZM229.581 236.56C230.621 236.56 231.549 236.776 232.365 237.208C233.197 237.64 233.845 238.28 234.309 239.128C234.773 239.976 235.005 241 235.005 242.2V250H232.293V242.608C232.293 241.424 231.997 240.52 231.405 239.896C230.813 239.256 230.005 238.936 228.981 238.936C227.957 238.936 227.141 239.256 226.533 239.896C225.941 240.52 225.645 241.424 225.645 242.608V250H222.909V236.776H225.645V238.288C226.093 237.744 226.661 237.32 227.349 237.016C228.053 236.712 228.797 236.56 229.581 236.56ZM243.823 236.56C244.847 236.56 245.751 236.768 246.535 237.184C247.335 237.584 247.959 238.088 248.407 238.696V236.776H251.167V250.216C251.167 251.432 250.911 252.512 250.399 253.456C249.887 254.416 249.143 255.168 248.167 255.712C247.207 256.256 246.055 256.528 244.711 256.528C242.919 256.528 241.431 256.104 240.247 255.256C239.063 254.424 238.391 253.288 238.231 251.848H240.943C241.151 252.536 241.591 253.088 242.263 253.504C242.951 253.936 243.767 254.152 244.711 254.152C245.815 254.152 246.703 253.816 247.375 253.144C248.063 252.472 248.407 251.496 248.407 250.216V248.008C247.943 248.632 247.311 249.16 246.511 249.592C245.727 250.008 244.831 250.216 243.823 250.216C242.671 250.216 241.615 249.928 240.655 249.352C239.711 248.76 238.959 247.944 238.399 246.904C237.855 245.848 237.583 244.656 237.583 243.328C237.583 242 237.855 240.824 238.399 239.8C238.959 238.776 239.711 237.984 240.655 237.424C241.615 236.848 242.671 236.56 243.823 236.56ZM248.407 243.376C248.407 242.464 248.215 241.672 247.831 241C247.463 240.328 246.975 239.816 246.367 239.464C245.759 239.112 245.103 238.936 244.399 238.936C243.695 238.936 243.039 239.112 242.431 239.464C241.823 239.8 241.327 240.304 240.943 240.976C240.575 241.632 240.391 242.416 240.391 243.328C240.391 244.24 240.575 245.04 240.943 245.728C241.327 246.416 241.823 246.944 242.431 247.312C243.055 247.664 243.711 247.84 244.399 247.84C245.103 247.84 245.759 247.664 246.367 247.312C246.975 246.96 247.463 246.448 247.831 245.776C248.215 245.088 248.407 244.288 248.407 243.376ZM266.881 243.064C266.881 243.56 266.849 244.008 266.785 244.408H256.681C256.761 245.464 257.153 246.312 257.857 246.952C258.561 247.592 259.425 247.912 260.449 247.912C261.921 247.912 262.961 247.296 263.569 246.064H266.521C266.121 247.28 265.393 248.28 264.337 249.064C263.297 249.832 262.001 250.216 260.449 250.216C259.185 250.216 258.049 249.936 257.041 249.376C256.049 248.8 255.265 248 254.689 246.976C254.129 245.936 253.849 244.736 253.849 243.376C253.849 242.016 254.121 240.824 254.665 239.8C255.225 238.76 256.001 237.96 256.993 237.4C258.001 236.84 259.153 236.56 260.449 236.56C261.697 236.56 262.809 236.832 263.785 237.376C264.761 237.92 265.521 238.688 266.065 239.68C266.609 240.656 266.881 241.784 266.881 243.064ZM264.025 242.2C264.009 241.192 263.649 240.384 262.945 239.776C262.241 239.168 261.369 238.864 260.329 238.864C259.385 238.864 258.577 239.168 257.905 239.776C257.233 240.368 256.833 241.176 256.705 242.2H264.025Z" fill="black"/>
<path fill-rule="evenodd" clip-rule="evenodd" d="M194.926 148.834C203.283 150.02 213.174 150.131 219.732 149.862L219.927 154.625C213.199 154.901 202.998 154.794 194.257 153.554C189.903 152.936 185.762 152.018 182.564 150.647C179.523 149.344 176.515 147.272 175.981 143.893L180.689 143.148C180.81 143.913 181.655 145.072 184.442 146.266C187.071 147.393 190.73 148.239 194.926 148.834ZM168.478 162.233C169.602 158.2 171.272 154.296 172.954 151.126L177.164 153.361C175.616 156.278 174.087 159.862 173.07 163.512C172.045 167.19 171.586 170.769 172.019 173.749C172.442 176.657 173.679 178.863 176.008 180.239C178.44 181.677 182.458 182.448 188.91 181.505L189.599 186.222C182.62 187.242 177.34 186.563 173.583 184.343C169.722 182.061 167.878 178.399 167.302 174.434C166.736 170.54 167.362 166.238 168.478 162.233Z" fill="#4A40FF"/>
<path fill-rule="evenodd" clip-rule="evenodd" d="M187.307 125.636C186.657 128.042 186.702 130.08 187.032 131.097L182.497 132.565C181.78 130.353 181.919 127.302 182.705 124.394C183.506 121.425 185.077 118.234 187.624 115.798C190.221 113.313 193.772 111.68 198.267 111.866C202.688 112.048 207.807 113.978 213.686 118.153C220.884 123.264 226.192 125.85 230.029 126.919C233.853 127.984 235.969 127.484 237.107 126.797C238.256 126.104 238.9 124.926 239.16 123.623C239.289 122.979 239.308 122.37 239.265 121.895C239.228 121.49 239.16 121.32 239.165 121.318C239.166 121.318 239.178 121.341 239.206 121.384L243.217 118.808C243.727 119.603 243.935 120.617 244.012 121.463C244.097 122.391 244.054 123.461 243.834 124.558C243.398 126.739 242.196 129.294 239.569 130.879C236.931 132.47 233.342 132.79 228.749 131.51C224.17 130.235 218.349 127.311 210.926 122.039C205.499 118.185 201.261 116.76 198.071 116.629C194.955 116.5 192.643 117.593 190.919 119.242C189.145 120.939 187.94 123.29 187.307 125.636ZM222.493 163.223C221.42 162.779 220.087 162.47 218.818 162.306L219.428 157.578C220.977 157.778 222.744 158.169 224.313 158.818C225.794 159.429 227.544 160.452 228.43 162.186C229.465 164.209 228.959 166.376 227.531 168.287C226.169 170.109 223.798 171.99 220.321 174.011L217.926 169.89C221.212 167.981 222.926 166.487 223.713 165.434C224.092 164.927 224.182 164.619 224.202 164.499C224.216 164.415 224.205 164.393 224.187 164.357C224.087 164.162 223.654 163.703 222.493 163.223ZM192.452 171.872C185.552 177.051 178.533 175.78 175.766 173.933L178.411 169.968C179.462 170.669 184.274 172.051 189.59 168.06L192.452 171.872Z" fill="#4A40FF"/>
<path d="M113.846 299.272H115.428V302.198H116.534V295.492H115.428V298.334H113.846V295.73H112.768V302.086H113.846V299.272ZM112.222 300.966C110.668 300.434 109.646 299.146 109.646 297.9V297.816H111.886V296.906H109.646V295.548H108.554V296.906H106.286V297.816H108.554V297.9C108.554 299.202 107.56 300.588 106.006 301.204L106.538 302.072C107.784 301.582 108.694 300.616 109.114 299.482C109.576 300.518 110.486 301.4 111.704 301.834L112.222 300.966ZM109.408 306.986V305.67H116.534V302.744H108.246V303.626H115.4V304.816H108.274V307.868H117.01V306.986H109.408ZM129.385 295.492H128.237V304.732H129.385V295.492ZM126.739 301.596C124.807 301.932 123.169 302.016 120.873 302.016V300H125.423V296.374H119.711V297.298H124.289V299.132H119.753V302.954H120.761C123.169 302.954 124.849 302.87 126.851 302.534L126.739 301.596ZM122.343 306.818V304.018H121.195V307.756H129.735V306.818H122.343ZM136.734 297.718H139.688V296.766H132.674V297.718H135.586V299.314C135.586 301.484 134.06 303.85 132.254 304.704L132.926 305.628C134.354 304.9 135.586 303.318 136.16 301.484C136.762 303.206 137.994 304.648 139.45 305.32L140.094 304.396C138.246 303.612 136.734 301.442 136.734 299.314V297.718ZM141.382 295.492V308.036H142.53V295.492H141.382ZM154.205 297.676H146.869V300.364H155.563V299.538H148.003V298.46H155.339V295.842H146.841V296.654H154.205V297.676ZM147.933 305.88H155.381V303.206H146.771V304.032H154.247V305.082H146.799V307.868H155.773V307.042H147.933V305.88ZM145.413 301.316V302.184H156.795V301.316H145.413ZM168.159 307.154C166.143 307.154 165.009 306.762 165.009 306.006C165.009 305.264 166.143 304.858 168.159 304.858C170.189 304.858 171.309 305.264 171.309 306.006C171.309 306.762 170.189 307.154 168.159 307.154ZM168.159 304.004C165.429 304.004 163.861 304.704 163.861 306.006C163.861 307.322 165.429 308.022 168.159 308.022C170.889 308.022 172.457 307.322 172.457 306.006C172.457 304.704 170.889 304.004 168.159 304.004ZM168.733 302.128V300.896H172.513V300H165.121V298.768H172.107V297.9H165.121V296.738H172.443V295.842H163.973V300.896H167.585V302.128H162.475V303.052H173.843V302.128H168.733ZM178.755 304.172C177.775 304.172 177.089 303.374 177.089 302.254C177.089 301.162 177.775 300.364 178.755 300.364C179.721 300.364 180.421 301.162 180.421 302.254C180.421 303.374 179.721 304.172 178.755 304.172ZM178.755 299.398C177.201 299.398 176.067 300.574 176.067 302.254C176.067 303.962 177.201 305.124 178.755 305.124C180.309 305.124 181.443 303.962 181.443 302.254C181.443 300.574 180.309 299.398 178.755 299.398ZM179.315 295.842H178.181V297.62H175.633V298.558H181.863V297.62H179.315V295.842ZM185.181 295.464V300.77H183.571V295.758H182.493V307.42H183.571V301.708H185.181V308.022H186.287V295.464H185.181ZM194.403 297.634H199.093V296.682H193.255V304.928H194.249C196.615 304.928 198.267 304.844 200.185 304.48L200.059 303.528C198.239 303.85 196.629 303.948 194.403 303.948V297.634ZM204.455 300.434H202.383V295.478H201.235V308.064H202.383V301.386H204.455V300.434ZM214.674 298.166H207.338V301.288H216.074V300.392H208.472V299.02H215.808V295.898H207.31V296.794H214.674V298.166ZM208.514 304.34H207.366V307.756H216.074V306.818H208.514V304.34ZM205.868 302.436V303.374H217.264V302.436H205.868ZM227.172 296.57H226.038V298.824C226.038 301.106 224.61 303.514 222.804 304.438L223.49 305.362C224.904 304.606 226.066 303.038 226.612 301.204C227.186 302.926 228.32 304.396 229.65 305.11L230.364 304.2C228.6 303.318 227.172 301.036 227.172 298.824V296.57ZM234.69 300.574H232.618V295.492H231.47V308.036H232.618V301.526H234.69V300.574ZM243.509 300.966C241.605 301.302 239.995 301.372 237.797 301.372V299.594H242.291V296.164H236.635V297.102H241.157V298.712H236.663V302.31H237.657C239.967 302.31 241.633 302.24 243.621 301.904L243.509 300.966ZM239.071 304.494H244.741V306.944H239.071V304.494ZM237.951 307.868H245.861V303.584H237.951V307.868ZM247.723 298.698H245.861V295.492H244.713V302.968H245.861V299.65H247.723V298.698ZM259.285 298.782H251.935V296.822H259.159V295.898H250.787V299.706H259.285V298.782ZM251.795 305.698H259.173V302.744H250.633V303.64H258.039V304.844H250.675V307.882H259.551V306.986H251.795V305.698ZM249.275 300.714V301.652H260.643V300.714H249.275ZM268.986 302.52C269.336 300.182 269.336 298.544 269.336 297.536V296.85H262.994V297.788H268.216C268.216 298.796 268.188 300.322 267.838 302.408L268.986 302.52ZM266.102 300.434H264.968V304.298C264.03 304.326 263.106 304.34 262.308 304.34L262.434 305.292C264.66 305.292 267.614 305.236 270.218 304.816L270.148 303.976C268.874 304.13 267.474 304.214 266.102 304.27V300.434ZM274.068 300.728H272.066V295.478H270.918V308.036H272.066V301.694H274.068V300.728ZM286.958 296.808H283.822V295.366H282.674V296.808H279.552V297.732H286.958V296.808ZM281.344 300.602C281.344 299.776 282.1 299.23 283.248 299.23C284.396 299.23 285.166 299.776 285.166 300.602C285.166 301.428 284.396 301.974 283.248 301.974C282.1 301.974 281.344 301.428 281.344 300.602ZM286.258 300.602C286.258 299.23 285.04 298.362 283.248 298.362C281.456 298.362 280.252 299.23 280.252 300.602C280.252 301.96 281.456 302.828 283.248 302.828C285.04 302.828 286.258 301.96 286.258 300.602ZM282.492 304.662H288.12V306.944H282.492V304.662ZM281.372 307.868H289.254V303.752H281.372V307.868ZM291.116 298.824H289.254V295.492H288.106V303.038H289.254V299.776H291.116V298.824ZM292.963 296.976V297.914H294.769C294.685 300.252 294.251 302.548 292.697 304.55L293.593 305.054C295.399 302.618 295.749 299.664 295.749 296.976H292.963ZM299.963 300.406H298.353C298.493 299.188 298.521 298.012 298.521 296.976H296.169V297.914H297.527C297.485 300.28 297.191 303.108 295.483 305.348L296.379 305.866C297.387 304.494 297.919 302.912 298.213 301.344H299.963V307.392H301.041V295.8H299.963V300.406ZM302.287 295.478V308.022H303.379V295.478H302.287ZM148.318 317.724C150.25 317.724 151.51 318.326 151.51 319.32C151.51 320.3 150.25 320.902 148.318 320.902C146.4 320.902 145.126 320.3 145.126 319.32C145.126 318.326 146.4 317.724 148.318 317.724ZM148.318 321.84C150.978 321.84 152.714 320.874 152.714 319.32C152.714 317.766 150.978 316.8 148.318 316.8C145.658 316.8 143.922 317.766 143.922 319.32C143.922 320.874 145.658 321.84 148.318 321.84ZM145.238 325.088H144.09V328.756H152.77V327.804H145.238V325.088ZM142.634 322.848V323.786H147.842V326.32H149.004V323.786H154.016V322.848H142.634ZM161.491 328.14C159.503 328.14 158.341 327.65 158.341 326.768C158.341 325.886 159.503 325.396 161.491 325.396C163.451 325.396 164.613 325.886 164.613 326.768C164.613 327.65 163.451 328.14 161.491 328.14ZM161.491 324.5C158.803 324.5 157.179 325.312 157.179 326.768C157.179 328.224 158.803 329.036 161.491 329.036C164.151 329.036 165.775 328.224 165.775 326.768C165.775 325.312 164.151 324.5 161.491 324.5ZM162.065 322.68V321.224H165.845V320.3H158.383V317.976H165.761V317.052H157.235V321.224H160.917V322.68H155.807V323.604H167.175V322.68H162.065ZM171.807 325.214C170.799 325.214 170.169 323.94 170.169 321.882C170.169 319.866 170.799 318.592 171.807 318.592C172.787 318.592 173.431 319.866 173.431 321.882C173.431 323.94 172.787 325.214 171.807 325.214ZM176.049 321.364H174.467C174.327 318.998 173.319 317.528 171.807 317.528C170.169 317.528 169.119 319.208 169.119 321.882C169.119 324.598 170.169 326.278 171.807 326.278C173.347 326.278 174.369 324.766 174.467 322.302H176.049V328.42H177.141V316.758H176.049V321.364ZM178.541 316.478V329.036H179.633V316.478H178.541ZM192.299 326.502V323.282H196.121V322.358H188.631V318.424H195.995V317.486H187.483V323.282H191.137V326.502H186.027V327.454H197.437V326.502H192.299ZM205.864 319.95V320.888H208.384V325.69H209.546V316.492H208.384V319.95H205.864ZM206.606 322.904C204.786 322.26 203.554 320.692 203.554 319.054V318.438H206.312V317.5H199.606V318.438H202.406V319.068C202.406 320.846 201.104 322.512 199.242 323.184L199.844 324.08C201.314 323.548 202.462 322.386 203.008 320.958C203.554 322.246 204.632 323.296 206.032 323.8L206.606 322.904ZM202.672 327.818V324.878H201.51V328.756H209.896V327.818H202.672ZM215.467 325.172C214.487 325.172 213.801 324.374 213.801 323.254C213.801 322.162 214.487 321.364 215.467 321.364C216.433 321.364 217.133 322.162 217.133 323.254C217.133 324.374 216.433 325.172 215.467 325.172ZM215.467 320.398C213.913 320.398 212.779 321.574 212.779 323.254C212.779 324.962 213.913 326.124 215.467 326.124C217.021 326.124 218.155 324.962 218.155 323.254C218.155 321.574 217.021 320.398 215.467 320.398ZM216.027 316.842H214.893V318.62H212.345V319.558H218.575V318.62H216.027V316.842ZM221.893 316.464V321.77H220.283V316.758H219.205V328.42H220.283V322.708H221.893V329.022H222.999V316.464H221.893ZM227.996 320.552H234.408V322.862H227.996V320.552ZM231.776 326.488V323.786H235.528V317.374H234.408V319.614H227.996V317.374H226.862V323.786H230.614V326.488H225.518V327.426H236.9V326.488H231.776ZM242.401 317.668H241.295V320.062C241.295 322.218 240.259 324.472 238.537 325.48L239.251 326.334C240.497 325.564 241.407 324.15 241.855 322.484C242.303 324.01 243.143 325.34 244.333 326.068L244.991 325.172C243.339 324.164 242.401 322.036 242.401 320.02V317.668ZM245.705 320.986H243.633V321.938H245.705V328.42H246.783V316.758H245.705V320.986ZM248.253 316.478V329.036H249.345V316.478H248.253ZM255.77 323.52C256.288 323.646 256.89 323.716 257.506 323.716C258.136 323.716 258.738 323.646 259.27 323.52V326.474H255.77V323.52ZM257.506 318.172C259.522 318.172 260.978 319.096 260.978 320.496C260.978 321.896 259.522 322.82 257.506 322.82C255.49 322.82 254.048 321.896 254.048 320.496C254.048 319.096 255.49 318.172 257.506 318.172ZM260.418 326.474V323.072C261.454 322.526 262.07 321.63 262.07 320.496C262.07 318.536 260.18 317.276 257.506 317.276C254.846 317.276 252.942 318.536 252.942 320.496C252.942 321.63 253.572 322.54 254.622 323.086V326.474H251.822V327.426H263.232V326.474H260.418ZM266.703 325.032H265.653L265.303 318.004H267.053L266.703 325.032ZM265.205 327.174C265.205 326.81 265.298 326.553 265.485 326.404C265.671 326.255 265.9 326.18 266.171 326.18C266.423 326.18 266.642 326.255 266.829 326.404C267.025 326.553 267.123 326.81 267.123 327.174C267.123 327.538 267.025 327.799 266.829 327.958C266.642 328.117 266.423 328.196 266.171 328.196C265.9 328.196 265.671 328.117 265.485 327.958C265.298 327.799 265.205 327.538 265.205 327.174Z" fill="black"/>
<g filter="url(#filter0_d)">
<rect x="16" y="439" width="379" height="69" rx="10" fill="#4A40FF"/>
</g>
<path d="M83.286 481.708C85.716 481.186 88.254 479.584 89.28 477.352C90.306 479.566 92.862 481.15 95.328 481.636L95.922 480.448C93.114 479.998 90.036 477.784 90.036 475.21V474.868H95.382V473.662H83.16V474.868H88.506V475.21C88.506 477.784 85.446 480.034 82.656 480.502L83.286 481.708ZM90.018 485.038V481.132H88.542V485.038H81.954V486.262H96.606V485.038H90.018ZM111.707 472.204H110.231V481.906H111.707V472.204ZM99.5566 473.392V474.58H105.389C105.083 477.424 102.491 479.638 98.6746 480.736L99.3046 481.888C103.895 480.538 106.973 477.532 106.973 473.392H99.5566ZM106.379 487.126C103.949 487.126 102.437 486.406 102.437 485.182C102.437 483.958 103.949 483.22 106.379 483.22C108.827 483.22 110.339 483.958 110.339 485.182C110.339 486.406 108.827 487.126 106.379 487.126ZM106.379 482.05C103.067 482.05 100.961 483.202 100.961 485.182C100.961 487.144 103.067 488.314 106.379 488.314C109.709 488.314 111.815 487.144 111.815 485.182C111.815 483.202 109.709 482.05 106.379 482.05ZM123.856 483.382C122.29 483.382 121.192 481.69 121.192 479.062C121.192 476.452 122.29 474.76 123.856 474.76C125.404 474.76 126.502 476.452 126.502 479.062C126.502 481.69 125.404 483.382 123.856 483.382ZM123.856 473.428C121.48 473.428 119.788 475.624 119.788 479.062C119.788 482.5 121.48 484.696 123.856 484.696C126.232 484.696 127.906 482.5 127.906 479.062C127.906 475.624 126.232 473.428 123.856 473.428ZM134.638 478.63H131.974V472.204H130.498V488.332H131.974V479.872H134.638V478.63ZM138.596 473.752H137.12V484.156H138.452C141.026 484.156 143.564 483.976 146.372 483.4L146.21 482.14C143.528 482.68 141.026 482.896 138.596 482.896V473.752ZM147.866 472.186V488.314H149.342V472.186H147.866ZM164.065 475.408C164.065 477.352 164.065 479.62 163.453 482.716L164.929 482.878C165.541 479.62 165.541 477.406 165.541 475.408V473.806H154.219V475.012H164.065V475.408ZM159.835 484.858V479.08H158.359V484.858H152.689V486.064H167.287V484.858H159.835ZM178.014 483.382C176.448 483.382 175.35 481.672 175.35 479.044C175.35 476.452 176.448 474.76 178.014 474.76C179.562 474.76 180.66 476.452 180.66 479.044C180.66 481.672 179.562 483.382 178.014 483.382ZM178.014 473.428C175.638 473.428 173.946 475.624 173.946 479.044C173.946 482.5 175.638 484.696 178.014 484.696C180.39 484.696 182.064 482.5 182.064 479.044C182.064 475.624 180.39 473.428 178.014 473.428ZM188.706 477.478V476.254H186.132V472.204H184.656V488.332H186.132V482.284H188.706V481.06H186.132V477.478H188.706ZM203.464 472.204H201.988V481.906H203.464V472.204ZM191.314 473.392V474.58H197.146C196.84 477.424 194.248 479.638 190.432 480.736L191.062 481.888C195.652 480.538 198.73 477.532 198.73 473.392H191.314ZM198.136 487.126C195.706 487.126 194.194 486.406 194.194 485.182C194.194 483.958 195.706 483.22 198.136 483.22C200.584 483.22 202.096 483.958 202.096 485.182C202.096 486.406 200.584 487.126 198.136 487.126ZM198.136 482.05C194.824 482.05 192.718 483.202 192.718 485.182C192.718 487.144 194.824 488.314 198.136 488.314C201.466 488.314 203.572 487.144 203.572 485.182C203.572 483.202 201.466 482.05 198.136 482.05Z" fill="white"/>
<path d="M87.4121 459.271C87.4121 459.591 87.3271 459.875 87.1572 460.124C86.9902 460.373 86.7632 460.568 86.4761 460.708C86.8101 460.852 87.0737 461.062 87.2671 461.337C87.4634 461.612 87.5615 461.924 87.5615 462.273C87.5615 462.827 87.374 463.268 86.999 463.596C86.627 463.924 86.1362 464.088 85.5269 464.088C84.9116 464.088 84.418 463.924 84.0459 463.596C83.6768 463.265 83.4922 462.824 83.4922 462.273C83.4922 461.927 83.5859 461.615 83.7734 461.337C83.9639 461.059 84.2261 460.848 84.5601 460.704C84.2759 460.563 84.0518 460.369 83.8877 460.12C83.7236 459.871 83.6416 459.588 83.6416 459.271C83.6416 458.732 83.8145 458.305 84.1602 457.988C84.5059 457.672 84.9614 457.514 85.5269 457.514C86.0894 457.514 86.5435 457.672 86.8892 457.988C87.2378 458.305 87.4121 458.732 87.4121 459.271ZM86.7485 462.255C86.7485 461.898 86.6343 461.606 86.4058 461.381C86.1802 461.155 85.8843 461.042 85.5181 461.042C85.1519 461.042 84.8574 461.154 84.6348 461.376C84.415 461.599 84.3052 461.892 84.3052 462.255C84.3052 462.619 84.4121 462.904 84.626 463.112C84.8428 463.32 85.1431 463.424 85.5269 463.424C85.9077 463.424 86.2065 463.32 86.4233 463.112C86.6401 462.901 86.7485 462.616 86.7485 462.255ZM85.5269 458.182C85.2075 458.182 84.9482 458.281 84.749 458.48C84.5527 458.677 84.4546 458.945 84.4546 459.285C84.4546 459.61 84.5513 459.874 84.7446 460.076C84.9409 460.275 85.2017 460.375 85.5269 460.375C85.8521 460.375 86.1113 460.275 86.3047 460.076C86.501 459.874 86.5991 459.61 86.5991 459.285C86.5991 458.959 86.498 458.694 86.2959 458.489C86.0938 458.284 85.8374 458.182 85.5269 458.182ZM88.8315 464.549H88.1328L90.8047 457.602H91.499L88.8315 464.549ZM93.4766 460.405H94.0874C94.4712 460.399 94.7729 460.298 94.9927 460.102C95.2124 459.906 95.3223 459.641 95.3223 459.307C95.3223 458.557 94.9487 458.182 94.2017 458.182C93.8501 458.182 93.5688 458.283 93.3579 458.485C93.1499 458.684 93.0459 458.949 93.0459 459.28H92.2329C92.2329 458.773 92.4175 458.353 92.7866 458.019C93.1587 457.682 93.6304 457.514 94.2017 457.514C94.8052 457.514 95.2783 457.673 95.6211 457.993C95.9639 458.312 96.1353 458.756 96.1353 459.324C96.1353 459.603 96.0444 459.872 95.8628 460.133C95.6841 460.394 95.4395 460.588 95.1289 460.717C95.4805 460.829 95.7515 461.013 95.9419 461.271C96.1353 461.529 96.2319 461.844 96.2319 462.216C96.2319 462.79 96.0444 463.246 95.6694 463.583C95.2944 463.919 94.8066 464.088 94.2061 464.088C93.6055 464.088 93.1162 463.925 92.7383 463.6C92.3633 463.275 92.1758 462.846 92.1758 462.312H92.9932C92.9932 462.649 93.103 462.919 93.3228 463.121C93.5425 463.323 93.8369 463.424 94.2061 463.424C94.5986 463.424 94.8989 463.322 95.1069 463.117C95.3149 462.912 95.4189 462.617 95.4189 462.233C95.4189 461.861 95.3047 461.576 95.0762 461.376C94.8477 461.177 94.5181 461.075 94.0874 461.069H93.4766V460.405ZM97.4009 461.403C97.4009 460.741 97.4888 460.105 97.6646 459.496C97.8433 458.886 98.1084 458.333 98.46 457.834C98.8115 457.336 99.1763 456.985 99.5542 456.78L99.7212 457.316C99.2935 457.644 98.9419 458.145 98.6665 458.819C98.394 459.493 98.2446 460.247 98.2183 461.082L98.2139 461.456C98.2139 462.586 98.4204 463.568 98.8335 464.4C99.0825 464.898 99.3784 465.288 99.7212 465.569L99.5542 466.065C99.1646 465.849 98.7925 465.485 98.438 464.976C97.7466 463.979 97.4009 462.789 97.4009 461.403ZM105.239 457.574H103.205V456.602H102.467V457.574H100.415V458.159H105.239V457.574ZM101.63 460.13C101.63 459.572 102.116 459.203 102.836 459.203C103.556 459.203 104.042 459.572 104.042 460.13C104.042 460.688 103.556 461.048 102.836 461.048C102.116 461.048 101.63 460.688 101.63 460.13ZM103.205 461.606C104.132 461.489 104.744 460.931 104.744 460.13C104.744 459.221 103.961 458.636 102.836 458.636C101.711 458.636 100.928 459.221 100.928 460.13C100.928 460.931 101.54 461.489 102.467 461.606V462.488C101.684 462.515 100.928 462.515 100.28 462.515L100.379 463.136C101.792 463.136 103.691 463.118 105.419 462.812L105.374 462.263C104.681 462.371 103.934 462.425 103.205 462.461V461.606ZM107.849 460.022H106.589V456.593H105.851V464.666H106.589V460.643H107.849V460.022ZM110.664 461.447C110.664 462.1 110.577 462.727 110.404 463.328C110.234 463.925 109.972 464.478 109.618 464.984C109.266 465.491 108.897 465.852 108.51 466.065L108.339 465.569C108.79 465.223 109.152 464.687 109.424 463.96C109.7 463.231 109.84 462.422 109.846 461.535V461.394C109.846 460.779 109.782 460.208 109.653 459.68C109.524 459.15 109.344 458.675 109.112 458.256C108.884 457.837 108.626 457.511 108.339 457.276L108.51 456.78C108.897 456.994 109.265 457.351 109.613 457.852C109.965 458.353 110.227 458.905 110.4 459.509C110.576 460.112 110.664 460.758 110.664 461.447ZM115.432 459.239C115.432 458.312 116.377 457.709 117.664 457.709C118.951 457.709 119.887 458.312 119.887 459.239C119.887 460.166 118.951 460.769 117.664 460.769C116.377 460.769 115.432 460.166 115.432 459.239ZM118.033 463.019V461.336C119.536 461.228 120.589 460.427 120.589 459.239C120.589 457.952 119.365 457.124 117.664 457.124C115.954 457.124 114.721 457.952 114.721 459.239C114.721 460.427 115.783 461.228 117.286 461.336V463.019H114.001V463.631H121.336V463.019H118.033ZM129.157 457.52H126.312V456.548H125.566V457.52H122.668V458.114H129.157V457.52ZM127.789 459.923C127.789 460.418 127.123 460.706 125.944 460.706C124.765 460.706 124.081 460.418 124.081 459.923C124.081 459.428 124.765 459.14 125.944 459.14C127.123 459.14 127.789 459.428 127.789 459.923ZM123.316 459.923C123.316 460.787 124.297 461.264 125.944 461.264C127.573 461.264 128.554 460.787 128.554 459.923C128.554 459.059 127.573 458.573 125.944 458.573C124.297 458.573 123.316 459.059 123.316 459.923ZM129.607 461.831H122.29V462.434H125.566V464.675H126.312V462.434H129.607V461.831ZM134.038 460.405H134.649C135.033 460.399 135.334 460.298 135.554 460.102C135.774 459.906 135.884 459.641 135.884 459.307C135.884 458.557 135.51 458.182 134.763 458.182C134.412 458.182 134.13 458.283 133.919 458.485C133.711 458.684 133.607 458.949 133.607 459.28H132.794C132.794 458.773 132.979 458.353 133.348 458.019C133.72 457.682 134.192 457.514 134.763 457.514C135.367 457.514 135.84 457.673 136.183 457.993C136.525 458.312 136.697 458.756 136.697 459.324C136.697 459.603 136.606 459.872 136.424 460.133C136.246 460.394 136.001 460.588 135.69 460.717C136.042 460.829 136.313 461.013 136.503 461.271C136.697 461.529 136.793 461.844 136.793 462.216C136.793 462.79 136.606 463.246 136.231 463.583C135.856 463.919 135.368 464.088 134.768 464.088C134.167 464.088 133.678 463.925 133.3 463.6C132.925 463.275 132.737 462.846 132.737 462.312H133.555C133.555 462.649 133.665 462.919 133.884 463.121C134.104 463.323 134.398 463.424 134.768 463.424C135.16 463.424 135.46 463.322 135.668 463.117C135.876 462.912 135.98 462.617 135.98 462.233C135.98 461.861 135.866 461.576 135.638 461.376C135.409 461.177 135.08 461.075 134.649 461.069H134.038V460.405ZM137.967 463.574C137.967 463.433 138.008 463.316 138.09 463.222C138.175 463.128 138.301 463.082 138.468 463.082C138.635 463.082 138.761 463.128 138.846 463.222C138.934 463.316 138.978 463.433 138.978 463.574C138.978 463.708 138.934 463.821 138.846 463.912C138.761 464.003 138.635 464.048 138.468 464.048C138.301 464.048 138.175 464.003 138.09 463.912C138.008 463.821 137.967 463.708 137.967 463.574ZM137.971 459.693C137.971 459.553 138.012 459.436 138.094 459.342C138.179 459.248 138.305 459.201 138.472 459.201C138.639 459.201 138.765 459.248 138.85 459.342C138.938 459.436 138.982 459.553 138.982 459.693C138.982 459.828 138.938 459.941 138.85 460.032C138.765 460.123 138.639 460.168 138.472 460.168C138.305 460.168 138.179 460.123 138.094 460.032C138.012 459.941 137.971 459.828 137.971 459.693ZM144.102 461.271C144.102 462.223 143.939 462.931 143.614 463.394C143.289 463.856 142.78 464.088 142.089 464.088C141.406 464.088 140.901 463.862 140.573 463.411C140.245 462.957 140.075 462.28 140.063 461.381V460.295C140.063 459.355 140.226 458.656 140.551 458.199C140.876 457.742 141.386 457.514 142.08 457.514C142.769 457.514 143.275 457.735 143.601 458.177C143.926 458.617 144.093 459.296 144.102 460.216V461.271ZM143.289 460.159C143.289 459.471 143.192 458.97 142.999 458.656C142.805 458.34 142.499 458.182 142.08 458.182C141.664 458.182 141.361 458.338 141.17 458.652C140.98 458.965 140.882 459.447 140.876 460.098V461.398C140.876 462.09 140.976 462.601 141.175 462.932C141.377 463.26 141.682 463.424 142.089 463.424C142.49 463.424 142.788 463.269 142.981 462.958C143.177 462.648 143.28 462.159 143.289 461.491V460.159ZM149.155 461.271C149.155 462.223 148.993 462.931 148.667 463.394C148.342 463.856 147.834 464.088 147.143 464.088C146.46 464.088 145.955 463.862 145.626 463.411C145.298 462.957 145.128 462.28 145.117 461.381V460.295C145.117 459.355 145.279 458.656 145.604 458.199C145.93 457.742 146.439 457.514 147.134 457.514C147.822 457.514 148.329 457.735 148.654 458.177C148.979 458.617 149.146 459.296 149.155 460.216V461.271ZM148.342 460.159C148.342 459.471 148.246 458.97 148.052 458.656C147.859 458.34 147.553 458.182 147.134 458.182C146.718 458.182 146.415 458.338 146.224 458.652C146.034 458.965 145.936 459.447 145.93 460.098V461.398C145.93 462.09 146.029 462.601 146.229 462.932C146.431 463.26 146.735 463.424 147.143 463.424C147.544 463.424 147.841 463.269 148.035 462.958C148.231 462.648 148.333 462.159 148.342 461.491V460.159Z" fill="white" fill-opacity="0.8"/>
<path fill-rule="evenodd" clip-rule="evenodd" d="M45.4933 472.94C48.6436 473.387 52.3721 473.429 54.8441 473.328L54.9178 475.123C52.3817 475.227 48.5362 475.187 45.2409 474.719C43.6 474.487 42.0388 474.14 40.8332 473.623C39.6868 473.132 38.5529 472.351 38.3515 471.078L40.1264 470.797C40.1719 471.085 40.4908 471.522 41.5411 471.972C42.5321 472.397 43.9115 472.716 45.4933 472.94ZM35.5233 477.991C35.947 476.471 36.5763 474.999 37.2104 473.804L38.7977 474.647C38.214 475.746 37.6377 477.097 37.2542 478.473C36.8678 479.86 36.695 481.209 36.8582 482.332C37.0174 483.428 37.4839 484.26 38.3618 484.779C39.2787 485.321 40.7932 485.611 43.2254 485.256L43.4852 487.034C40.8543 487.418 38.8639 487.163 37.4475 486.326C35.9922 485.465 35.2971 484.085 35.0799 482.59C34.8667 481.122 35.1025 479.501 35.5233 477.991Z" fill="white"/>
<path fill-rule="evenodd" clip-rule="evenodd" d="M42.6201 464.196C42.3752 465.103 42.3923 465.872 42.5164 466.255L40.8069 466.808C40.5369 465.974 40.5893 464.824 40.8853 463.728C41.1875 462.609 41.7798 461.406 42.7397 460.488C43.7185 459.551 45.0574 458.935 46.7519 459.005C48.4183 459.074 50.348 459.802 52.5641 461.375C55.2775 463.302 57.2784 464.277 58.7249 464.68C60.1665 465.081 60.9642 464.893 61.3931 464.634C61.8262 464.373 62.0689 463.929 62.1671 463.437C62.2158 463.195 62.2229 462.965 62.2065 462.786C62.1927 462.633 62.167 462.569 62.1688 462.569C62.1694 462.568 62.1739 462.577 62.1844 462.593L63.6963 461.622C63.8887 461.922 63.9669 462.304 63.9961 462.623C64.028 462.973 64.0118 463.376 63.9291 463.79C63.7646 464.612 63.3115 465.575 62.3213 466.173C61.3269 466.772 59.9737 466.893 58.2426 466.411C56.5163 465.93 54.3221 464.828 51.5239 462.84C49.4779 461.388 47.8804 460.85 46.6778 460.801C45.5034 460.752 44.6316 461.164 43.9819 461.786C43.3132 462.426 42.8589 463.312 42.6201 464.196ZM55.884 478.365C55.4796 478.198 54.9772 478.081 54.4988 478.019L54.7289 476.237C55.3128 476.313 55.9787 476.46 56.5703 476.705C57.1284 476.935 57.7882 477.321 58.1224 477.975C58.5123 478.737 58.3217 479.554 57.7832 480.274C57.27 480.961 56.376 481.67 55.0652 482.432L54.1625 480.878C55.4011 480.159 56.0473 479.596 56.3439 479.199C56.4868 479.007 56.5208 478.892 56.5283 478.846C56.5335 478.815 56.5297 478.806 56.5226 478.793C56.4852 478.719 56.3216 478.546 55.884 478.365ZM44.5597 481.626C41.9586 483.578 39.3127 483.099 38.2695 482.403L39.2668 480.908C39.6628 481.172 41.4769 481.693 43.481 480.189L44.5597 481.626Z" fill="white"/>
<rect x="277" y="455" width="100" height="37" rx="18.5" fill="black"/>
<path d="M322.607 472.144C322.415 471.792 322.151 471.524 321.815 471.34C321.479 471.156 321.087 471.064 320.639 471.064C320.143 471.064 319.703 471.176 319.319 471.4C318.935 471.624 318.635 471.944 318.419 472.36C318.203 472.776 318.095 473.256 318.095 473.8C318.095 474.36 318.203 474.848 318.419 475.264C318.643 475.68 318.951 476 319.343 476.224C319.735 476.448 320.191 476.56 320.711 476.56C321.351 476.56 321.875 476.392 322.283 476.056C322.691 475.712 322.959 475.236 323.087 474.628H320.207V473.344H324.743V474.808C324.631 475.392 324.391 475.932 324.023 476.428C323.655 476.924 323.179 477.324 322.595 477.628C322.019 477.924 321.371 478.072 320.651 478.072C319.843 478.072 319.111 477.892 318.455 477.532C317.807 477.164 317.295 476.656 316.919 476.008C316.551 475.36 316.367 474.624 316.367 473.8C316.367 472.976 316.551 472.24 316.919 471.592C317.295 470.936 317.807 470.428 318.455 470.068C319.111 469.7 319.839 469.516 320.639 469.516C321.583 469.516 322.403 469.748 323.099 470.212C323.795 470.668 324.275 471.312 324.539 472.144H322.607ZM328.938 478.108C328.298 478.108 327.722 477.968 327.21 477.688C326.698 477.4 326.294 476.996 325.998 476.476C325.71 475.956 325.566 475.356 325.566 474.676C325.566 473.996 325.714 473.396 326.01 472.876C326.314 472.356 326.726 471.956 327.246 471.676C327.766 471.388 328.346 471.244 328.986 471.244C329.626 471.244 330.206 471.388 330.726 471.676C331.246 471.956 331.654 472.356 331.95 472.876C332.254 473.396 332.406 473.996 332.406 474.676C332.406 475.356 332.25 475.956 331.938 476.476C331.634 476.996 331.218 477.4 330.69 477.688C330.17 477.968 329.586 478.108 328.938 478.108ZM328.938 476.644C329.242 476.644 329.526 476.572 329.79 476.428C330.062 476.276 330.278 476.052 330.438 475.756C330.598 475.46 330.678 475.1 330.678 474.676C330.678 474.044 330.51 473.56 330.174 473.224C329.846 472.88 329.442 472.708 328.962 472.708C328.482 472.708 328.078 472.88 327.75 473.224C327.43 473.56 327.27 474.044 327.27 474.676C327.27 475.308 327.426 475.796 327.738 476.14C328.058 476.476 328.458 476.644 328.938 476.644ZM335.811 469.48L335.619 475.276H334.203L333.999 469.48H335.811ZM334.947 478.084C334.643 478.084 334.391 477.992 334.191 477.808C333.999 477.616 333.903 477.38 333.903 477.1C333.903 476.82 333.999 476.588 334.191 476.404C334.391 476.212 334.643 476.116 334.947 476.116C335.243 476.116 335.487 476.212 335.679 476.404C335.871 476.588 335.967 476.82 335.967 477.1C335.967 477.38 335.871 477.616 335.679 477.808C335.487 477.992 335.243 478.084 334.947 478.084Z" fill="white"/>
<path d="M83.286 574.708C85.716 574.186 88.254 572.584 89.28 570.352C90.306 572.566 92.862 574.15 95.328 574.636L95.922 573.448C93.114 572.998 90.036 570.784 90.036 568.21V567.868H95.382V566.662H83.16V567.868H88.506V568.21C88.506 570.784 85.446 573.034 82.656 573.502L83.286 574.708ZM90.018 578.038V574.132H88.542V578.038H81.954V579.262H96.606V578.038H90.018ZM111.707 565.204H110.231V574.906H111.707V565.204ZM99.5566 566.392V567.58H105.389C105.083 570.424 102.491 572.638 98.6746 573.736L99.3046 574.888C103.895 573.538 106.973 570.532 106.973 566.392H99.5566ZM106.379 580.126C103.949 580.126 102.437 579.406 102.437 578.182C102.437 576.958 103.949 576.22 106.379 576.22C108.827 576.22 110.339 576.958 110.339 578.182C110.339 579.406 108.827 580.126 106.379 580.126ZM106.379 575.05C103.067 575.05 100.961 576.202 100.961 578.182C100.961 580.144 103.067 581.314 106.379 581.314C109.709 581.314 111.815 580.144 111.815 578.182C111.815 576.202 109.709 575.05 106.379 575.05ZM123.856 576.382C122.29 576.382 121.192 574.69 121.192 572.062C121.192 569.452 122.29 567.76 123.856 567.76C125.404 567.76 126.502 569.452 126.502 572.062C126.502 574.69 125.404 576.382 123.856 576.382ZM123.856 566.428C121.48 566.428 119.788 568.624 119.788 572.062C119.788 575.5 121.48 577.696 123.856 577.696C126.232 577.696 127.906 575.5 127.906 572.062C127.906 568.624 126.232 566.428 123.856 566.428ZM134.638 571.63H131.974V565.204H130.498V581.332H131.974V572.872H134.638V571.63ZM138.596 566.752H137.12V577.156H138.452C141.026 577.156 143.564 576.976 146.372 576.4L146.21 575.14C143.528 575.68 141.026 575.896 138.596 575.896V566.752ZM147.866 565.186V581.314H149.342V565.186H147.866ZM164.065 568.408C164.065 570.352 164.065 572.62 163.453 575.716L164.929 575.878C165.541 572.62 165.541 570.406 165.541 568.408V566.806H154.219V568.012H164.065V568.408ZM159.835 577.858V572.08H158.359V577.858H152.689V579.064H167.287V577.858H159.835ZM178.014 576.382C176.448 576.382 175.35 574.672 175.35 572.044C175.35 569.452 176.448 567.76 178.014 567.76C179.562 567.76 180.66 569.452 180.66 572.044C180.66 574.672 179.562 576.382 178.014 576.382ZM178.014 566.428C175.638 566.428 173.946 568.624 173.946 572.044C173.946 575.5 175.638 577.696 178.014 577.696C180.39 577.696 182.064 575.5 182.064 572.044C182.064 568.624 180.39 566.428 178.014 566.428ZM188.706 570.478V569.254H186.132V565.204H184.656V581.332H186.132V575.284H188.706V574.06H186.132V570.478H188.706ZM203.464 565.204H201.988V574.906H203.464V565.204ZM191.314 566.392V567.58H197.146C196.84 570.424 194.248 572.638 190.432 573.736L191.062 574.888C195.652 573.538 198.73 570.532 198.73 566.392H191.314ZM198.136 580.126C195.706 580.126 194.194 579.406 194.194 578.182C194.194 576.958 195.706 576.22 198.136 576.22C200.584 576.22 202.096 576.958 202.096 578.182C202.096 579.406 200.584 580.126 198.136 580.126ZM198.136 575.05C194.824 575.05 192.718 576.202 192.718 578.182C192.718 580.144 194.824 581.314 198.136 581.314C201.466 581.314 203.572 580.144 203.572 578.182C203.572 576.202 201.466 575.05 198.136 575.05Z" fill="white"/>
<path d="M87.4121 552.271C87.4121 552.591 87.3271 552.875 87.1572 553.124C86.9902 553.373 86.7632 553.568 86.4761 553.708C86.8101 553.852 87.0737 554.062 87.2671 554.337C87.4634 554.612 87.5615 554.924 87.5615 555.273C87.5615 555.827 87.374 556.268 86.999 556.596C86.627 556.924 86.1362 557.088 85.5269 557.088C84.9116 557.088 84.418 556.924 84.0459 556.596C83.6768 556.265 83.4922 555.824 83.4922 555.273C83.4922 554.927 83.5859 554.615 83.7734 554.337C83.9639 554.059 84.2261 553.848 84.5601 553.704C84.2759 553.563 84.0518 553.369 83.8877 553.12C83.7236 552.871 83.6416 552.588 83.6416 552.271C83.6416 551.732 83.8145 551.305 84.1602 550.988C84.5059 550.672 84.9614 550.514 85.5269 550.514C86.0894 550.514 86.5435 550.672 86.8892 550.988C87.2378 551.305 87.4121 551.732 87.4121 552.271ZM86.7485 555.255C86.7485 554.898 86.6343 554.606 86.4058 554.381C86.1802 554.155 85.8843 554.042 85.5181 554.042C85.1519 554.042 84.8574 554.154 84.6348 554.376C84.415 554.599 84.3052 554.892 84.3052 555.255C84.3052 555.619 84.4121 555.904 84.626 556.112C84.8428 556.32 85.1431 556.424 85.5269 556.424C85.9077 556.424 86.2065 556.32 86.4233 556.112C86.6401 555.901 86.7485 555.616 86.7485 555.255ZM85.5269 551.182C85.2075 551.182 84.9482 551.281 84.749 551.48C84.5527 551.677 84.4546 551.945 84.4546 552.285C84.4546 552.61 84.5513 552.874 84.7446 553.076C84.9409 553.275 85.2017 553.375 85.5269 553.375C85.8521 553.375 86.1113 553.275 86.3047 553.076C86.501 552.874 86.5991 552.61 86.5991 552.285C86.5991 551.959 86.498 551.694 86.2959 551.489C86.0938 551.284 85.8374 551.182 85.5269 551.182ZM88.8315 557.549H88.1328L90.8047 550.602H91.499L88.8315 557.549ZM93.4766 553.405H94.0874C94.4712 553.399 94.7729 553.298 94.9927 553.102C95.2124 552.906 95.3223 552.641 95.3223 552.307C95.3223 551.557 94.9487 551.182 94.2017 551.182C93.8501 551.182 93.5688 551.283 93.3579 551.485C93.1499 551.684 93.0459 551.949 93.0459 552.28H92.2329C92.2329 551.773 92.4175 551.353 92.7866 551.019C93.1587 550.682 93.6304 550.514 94.2017 550.514C94.8052 550.514 95.2783 550.673 95.6211 550.993C95.9639 551.312 96.1353 551.756 96.1353 552.324C96.1353 552.603 96.0444 552.872 95.8628 553.133C95.6841 553.394 95.4395 553.588 95.1289 553.717C95.4805 553.829 95.7515 554.013 95.9419 554.271C96.1353 554.529 96.2319 554.844 96.2319 555.216C96.2319 555.79 96.0444 556.246 95.6694 556.583C95.2944 556.919 94.8066 557.088 94.2061 557.088C93.6055 557.088 93.1162 556.925 92.7383 556.6C92.3633 556.275 92.1758 555.846 92.1758 555.312H92.9932C92.9932 555.649 93.103 555.919 93.3228 556.121C93.5425 556.323 93.8369 556.424 94.2061 556.424C94.5986 556.424 94.8989 556.322 95.1069 556.117C95.3149 555.912 95.4189 555.617 95.4189 555.233C95.4189 554.861 95.3047 554.576 95.0762 554.376C94.8477 554.177 94.5181 554.075 94.0874 554.069H93.4766V553.405ZM97.4009 554.403C97.4009 553.741 97.4888 553.105 97.6646 552.496C97.8433 551.886 98.1084 551.333 98.46 550.834C98.8115 550.336 99.1763 549.985 99.5542 549.78L99.7212 550.316C99.2935 550.644 98.9419 551.145 98.6665 551.819C98.394 552.493 98.2446 553.247 98.2183 554.082L98.2139 554.456C98.2139 555.586 98.4204 556.568 98.8335 557.4C99.0825 557.898 99.3784 558.288 99.7212 558.569L99.5542 559.065C99.1646 558.849 98.7925 558.485 98.438 557.976C97.7466 556.979 97.4009 555.789 97.4009 554.403ZM105.239 550.574H103.205V549.602H102.467V550.574H100.415V551.159H105.239V550.574ZM101.63 553.13C101.63 552.572 102.116 552.203 102.836 552.203C103.556 552.203 104.042 552.572 104.042 553.13C104.042 553.688 103.556 554.048 102.836 554.048C102.116 554.048 101.63 553.688 101.63 553.13ZM103.205 554.606C104.132 554.489 104.744 553.931 104.744 553.13C104.744 552.221 103.961 551.636 102.836 551.636C101.711 551.636 100.928 552.221 100.928 553.13C100.928 553.931 101.54 554.489 102.467 554.606V555.488C101.684 555.515 100.928 555.515 100.28 555.515L100.379 556.136C101.792 556.136 103.691 556.118 105.419 555.812L105.374 555.263C104.681 555.371 103.934 555.425 103.205 555.461V554.606ZM107.849 553.022H106.589V549.593H105.851V557.666H106.589V553.643H107.849V553.022ZM110.664 554.447C110.664 555.1 110.577 555.727 110.404 556.328C110.234 556.925 109.972 557.478 109.618 557.984C109.266 558.491 108.897 558.852 108.51 559.065L108.339 558.569C108.79 558.223 109.152 557.687 109.424 556.96C109.7 556.231 109.84 555.422 109.846 554.535V554.394C109.846 553.779 109.782 553.208 109.653 552.68C109.524 552.15 109.344 551.675 109.112 551.256C108.884 550.837 108.626 550.511 108.339 550.276L108.51 549.78C108.897 549.994 109.265 550.351 109.613 550.852C109.965 551.353 110.227 551.905 110.4 552.509C110.576 553.112 110.664 553.758 110.664 554.447ZM115.432 552.239C115.432 551.312 116.377 550.709 117.664 550.709C118.951 550.709 119.887 551.312 119.887 552.239C119.887 553.166 118.951 553.769 117.664 553.769C116.377 553.769 115.432 553.166 115.432 552.239ZM118.033 556.019V554.336C119.536 554.228 120.589 553.427 120.589 552.239C120.589 550.952 119.365 550.124 117.664 550.124C115.954 550.124 114.721 550.952 114.721 552.239C114.721 553.427 115.783 554.228 117.286 554.336V556.019H114.001V556.631H121.336V556.019H118.033ZM129.157 550.52H126.312V549.548H125.566V550.52H122.668V551.114H129.157V550.52ZM127.789 552.923C127.789 553.418 127.123 553.706 125.944 553.706C124.765 553.706 124.081 553.418 124.081 552.923C124.081 552.428 124.765 552.14 125.944 552.14C127.123 552.14 127.789 552.428 127.789 552.923ZM123.316 552.923C123.316 553.787 124.297 554.264 125.944 554.264C127.573 554.264 128.554 553.787 128.554 552.923C128.554 552.059 127.573 551.573 125.944 551.573C124.297 551.573 123.316 552.059 123.316 552.923ZM129.607 554.831H122.29V555.434H125.566V557.675H126.312V555.434H129.607V554.831ZM134.038 553.405H134.649C135.033 553.399 135.334 553.298 135.554 553.102C135.774 552.906 135.884 552.641 135.884 552.307C135.884 551.557 135.51 551.182 134.763 551.182C134.412 551.182 134.13 551.283 133.919 551.485C133.711 551.684 133.607 551.949 133.607 552.28H132.794C132.794 551.773 132.979 551.353 133.348 551.019C133.72 550.682 134.192 550.514 134.763 550.514C135.367 550.514 135.84 550.673 136.183 550.993C136.525 551.312 136.697 551.756 136.697 552.324C136.697 552.603 136.606 552.872 136.424 553.133C136.246 553.394 136.001 553.588 135.69 553.717C136.042 553.829 136.313 554.013 136.503 554.271C136.697 554.529 136.793 554.844 136.793 555.216C136.793 555.79 136.606 556.246 136.231 556.583C135.856 556.919 135.368 557.088 134.768 557.088C134.167 557.088 133.678 556.925 133.3 556.6C132.925 556.275 132.737 555.846 132.737 555.312H133.555C133.555 555.649 133.665 555.919 133.884 556.121C134.104 556.323 134.398 556.424 134.768 556.424C135.16 556.424 135.46 556.322 135.668 556.117C135.876 555.912 135.98 555.617 135.98 555.233C135.98 554.861 135.866 554.576 135.638 554.376C135.409 554.177 135.08 554.075 134.649 554.069H134.038V553.405ZM137.967 556.574C137.967 556.433 138.008 556.316 138.09 556.222C138.175 556.128 138.301 556.082 138.468 556.082C138.635 556.082 138.761 556.128 138.846 556.222C138.934 556.316 138.978 556.433 138.978 556.574C138.978 556.708 138.934 556.821 138.846 556.912C138.761 557.003 138.635 557.048 138.468 557.048C138.301 557.048 138.175 557.003 138.09 556.912C138.008 556.821 137.967 556.708 137.967 556.574ZM137.971 552.693C137.971 552.553 138.012 552.436 138.094 552.342C138.179 552.248 138.305 552.201 138.472 552.201C138.639 552.201 138.765 552.248 138.85 552.342C138.938 552.436 138.982 552.553 138.982 552.693C138.982 552.828 138.938 552.941 138.85 553.032C138.765 553.123 138.639 553.168 138.472 553.168C138.305 553.168 138.179 553.123 138.094 553.032C138.012 552.941 137.971 552.828 137.971 552.693ZM144.102 554.271C144.102 555.223 143.939 555.931 143.614 556.394C143.289 556.856 142.78 557.088 142.089 557.088C141.406 557.088 140.901 556.862 140.573 556.411C140.245 555.957 140.075 555.28 140.063 554.381V553.295C140.063 552.355 140.226 551.656 140.551 551.199C140.876 550.742 141.386 550.514 142.08 550.514C142.769 550.514 143.275 550.735 143.601 551.177C143.926 551.617 144.093 552.296 144.102 553.216V554.271ZM143.289 553.159C143.289 552.471 143.192 551.97 142.999 551.656C142.805 551.34 142.499 551.182 142.08 551.182C141.664 551.182 141.361 551.338 141.17 551.652C140.98 551.965 140.882 552.447 140.876 553.098V554.398C140.876 555.09 140.976 555.601 141.175 555.932C141.377 556.26 141.682 556.424 142.089 556.424C142.49 556.424 142.788 556.269 142.981 555.958C143.177 555.648 143.28 555.159 143.289 554.491V553.159ZM149.155 554.271C149.155 555.223 148.993 555.931 148.667 556.394C148.342 556.856 147.834 557.088 147.143 557.088C146.46 557.088 145.955 556.862 145.626 556.411C145.298 555.957 145.128 555.28 145.117 554.381V553.295C145.117 552.355 145.279 551.656 145.604 551.199C145.93 550.742 146.439 550.514 147.134 550.514C147.822 550.514 148.329 550.735 148.654 551.177C148.979 551.617 149.146 552.296 149.155 553.216V554.271ZM148.342 553.159C148.342 552.471 148.246 551.97 148.052 551.656C147.859 551.34 147.553 551.182 147.134 551.182C146.718 551.182 146.415 551.338 146.224 551.652C146.034 551.965 145.936 552.447 145.93 553.098V554.398C145.93 555.09 146.029 555.601 146.229 555.932C146.431 556.26 146.735 556.424 147.143 556.424C147.544 556.424 147.841 556.269 148.035 555.958C148.231 555.648 148.333 555.159 148.342 554.491V553.159Z" fill="white" fill-opacity="0.8"/>
<path fill-rule="evenodd" clip-rule="evenodd" d="M45.4933 565.94C48.6436 566.387 52.3721 566.429 54.8441 566.328L54.9178 568.123C52.3817 568.227 48.5362 568.187 45.2409 567.719C43.6 567.487 42.0388 567.14 40.8332 566.623C39.6868 566.132 38.5529 565.351 38.3515 564.078L40.1264 563.797C40.1719 564.085 40.4908 564.522 41.5411 564.972C42.5321 565.397 43.9115 565.716 45.4933 565.94ZM35.5233 570.991C35.947 569.471 36.5763 567.999 37.2104 566.804L38.7977 567.647C38.214 568.746 37.6377 570.097 37.2542 571.473C36.8678 572.86 36.695 574.209 36.8582 575.332C37.0174 576.428 37.4839 577.26 38.3618 577.779C39.2787 578.321 40.7932 578.611 43.2254 578.256L43.4852 580.034C40.8543 580.418 38.8639 580.163 37.4475 579.326C35.9922 578.465 35.2971 577.085 35.0799 575.59C34.8667 574.122 35.1025 572.501 35.5233 570.991Z" fill="white"/>
<path fill-rule="evenodd" clip-rule="evenodd" d="M42.6201 557.196C42.3752 558.103 42.3923 558.872 42.5164 559.255L40.8069 559.808C40.5369 558.974 40.5893 557.824 40.8853 556.728C41.1875 555.609 41.7798 554.406 42.7397 553.488C43.7185 552.551 45.0574 551.935 46.7519 552.005C48.4183 552.074 50.348 552.802 52.5641 554.375C55.2775 556.302 57.2784 557.277 58.7249 557.68C60.1665 558.081 60.9642 557.893 61.3931 557.634C61.8262 557.373 62.0689 556.929 62.1671 556.437C62.2158 556.195 62.2229 555.965 62.2065 555.786C62.1927 555.633 62.167 555.569 62.1688 555.569C62.1694 555.568 62.1739 555.577 62.1844 555.593L63.6963 554.622C63.8887 554.922 63.9669 555.304 63.9961 555.623C64.028 555.973 64.0118 556.376 63.9291 556.79C63.7646 557.612 63.3115 558.575 62.3213 559.173C61.3269 559.772 59.9737 559.893 58.2426 559.411C56.5163 558.93 54.3221 557.828 51.5239 555.84C49.4779 554.388 47.8804 553.85 46.6778 553.801C45.5034 553.752 44.6316 554.164 43.9819 554.786C43.3132 555.426 42.8589 556.312 42.6201 557.196ZM55.884 571.365C55.4796 571.198 54.9772 571.081 54.4988 571.019L54.7289 569.237C55.3128 569.313 55.9787 569.46 56.5703 569.705C57.1284 569.935 57.7882 570.321 58.1224 570.975C58.5123 571.737 58.3217 572.554 57.7832 573.274C57.27 573.961 56.376 574.67 55.0652 575.432L54.1625 573.878C55.4011 573.159 56.0473 572.596 56.3439 572.199C56.4868 572.007 56.5208 571.892 56.5283 571.846C56.5335 571.815 56.5297 571.806 56.5226 571.793C56.4852 571.719 56.3216 571.546 55.884 571.365ZM44.5597 574.626C41.9586 576.578 39.3127 576.099 38.2695 575.403L39.2668 573.908C39.6628 574.172 41.4769 574.693 43.481 573.189L44.5597 574.626Z" fill="white"/>
<path d="M83.286 574.708C85.716 574.186 88.254 572.584 89.28 570.352C90.306 572.566 92.862 574.15 95.328 574.636L95.922 573.448C93.114 572.998 90.036 570.784 90.036 568.21V567.868H95.382V566.662H83.16V567.868H88.506V568.21C88.506 570.784 85.446 573.034 82.656 573.502L83.286 574.708ZM90.018 578.038V574.132H88.542V578.038H81.954V579.262H96.606V578.038H90.018ZM111.707 565.204H110.231V574.906H111.707V565.204ZM99.5566 566.392V567.58H105.389C105.083 570.424 102.491 572.638 98.6746 573.736L99.3046 574.888C103.895 573.538 106.973 570.532 106.973 566.392H99.5566ZM106.379 580.126C103.949 580.126 102.437 579.406 102.437 578.182C102.437 576.958 103.949 576.22 106.379 576.22C108.827 576.22 110.339 576.958 110.339 578.182C110.339 579.406 108.827 580.126 106.379 580.126ZM106.379 575.05C103.067 575.05 100.961 576.202 100.961 578.182C100.961 580.144 103.067 581.314 106.379 581.314C109.709 581.314 111.815 580.144 111.815 578.182C111.815 576.202 109.709 575.05 106.379 575.05ZM123.856 576.382C122.29 576.382 121.192 574.69 121.192 572.062C121.192 569.452 122.29 567.76 123.856 567.76C125.404 567.76 126.502 569.452 126.502 572.062C126.502 574.69 125.404 576.382 123.856 576.382ZM123.856 566.428C121.48 566.428 119.788 568.624 119.788 572.062C119.788 575.5 121.48 577.696 123.856 577.696C126.232 577.696 127.906 575.5 127.906 572.062C127.906 568.624 126.232 566.428 123.856 566.428ZM134.638 571.63H131.974V565.204H130.498V581.332H131.974V572.872H134.638V571.63ZM138.596 566.752H137.12V577.156H138.452C141.026 577.156 143.564 576.976 146.372 576.4L146.21 575.14C143.528 575.68 141.026 575.896 138.596 575.896V566.752ZM147.866 565.186V581.314H149.342V565.186H147.866ZM164.065 568.408C164.065 570.352 164.065 572.62 163.453 575.716L164.929 575.878C165.541 572.62 165.541 570.406 165.541 568.408V566.806H154.219V568.012H164.065V568.408ZM159.835 577.858V572.08H158.359V577.858H152.689V579.064H167.287V577.858H159.835ZM178.014 576.382C176.448 576.382 175.35 574.672 175.35 572.044C175.35 569.452 176.448 567.76 178.014 567.76C179.562 567.76 180.66 569.452 180.66 572.044C180.66 574.672 179.562 576.382 178.014 576.382ZM178.014 566.428C175.638 566.428 173.946 568.624 173.946 572.044C173.946 575.5 175.638 577.696 178.014 577.696C180.39 577.696 182.064 575.5 182.064 572.044C182.064 568.624 180.39 566.428 178.014 566.428ZM188.706 570.478V569.254H186.132V565.204H184.656V581.332H186.132V575.284H188.706V574.06H186.132V570.478H188.706ZM203.464 565.204H201.988V574.906H203.464V565.204ZM191.314 566.392V567.58H197.146C196.84 570.424 194.248 572.638 190.432 573.736L191.062 574.888C195.652 573.538 198.73 570.532 198.73 566.392H191.314ZM198.136 580.126C195.706 580.126 194.194 579.406 194.194 578.182C194.194 576.958 195.706 576.22 198.136 576.22C200.584 576.22 202.096 576.958 202.096 578.182C202.096 579.406 200.584 580.126 198.136 580.126ZM198.136 575.05C194.824 575.05 192.718 576.202 192.718 578.182C192.718 580.144 194.824 581.314 198.136 581.314C201.466 581.314 203.572 580.144 203.572 578.182C203.572 576.202 201.466 575.05 198.136 575.05Z" fill="white"/>
<path d="M87.4121 552.271C87.4121 552.591 87.3271 552.875 87.1572 553.124C86.9902 553.373 86.7632 553.568 86.4761 553.708C86.8101 553.852 87.0737 554.062 87.2671 554.337C87.4634 554.612 87.5615 554.924 87.5615 555.273C87.5615 555.827 87.374 556.268 86.999 556.596C86.627 556.924 86.1362 557.088 85.5269 557.088C84.9116 557.088 84.418 556.924 84.0459 556.596C83.6768 556.265 83.4922 555.824 83.4922 555.273C83.4922 554.927 83.5859 554.615 83.7734 554.337C83.9639 554.059 84.2261 553.848 84.5601 553.704C84.2759 553.563 84.0518 553.369 83.8877 553.12C83.7236 552.871 83.6416 552.588 83.6416 552.271C83.6416 551.732 83.8145 551.305 84.1602 550.988C84.5059 550.672 84.9614 550.514 85.5269 550.514C86.0894 550.514 86.5435 550.672 86.8892 550.988C87.2378 551.305 87.4121 551.732 87.4121 552.271ZM86.7485 555.255C86.7485 554.898 86.6343 554.606 86.4058 554.381C86.1802 554.155 85.8843 554.042 85.5181 554.042C85.1519 554.042 84.8574 554.154 84.6348 554.376C84.415 554.599 84.3052 554.892 84.3052 555.255C84.3052 555.619 84.4121 555.904 84.626 556.112C84.8428 556.32 85.1431 556.424 85.5269 556.424C85.9077 556.424 86.2065 556.32 86.4233 556.112C86.6401 555.901 86.7485 555.616 86.7485 555.255ZM85.5269 551.182C85.2075 551.182 84.9482 551.281 84.749 551.48C84.5527 551.677 84.4546 551.945 84.4546 552.285C84.4546 552.61 84.5513 552.874 84.7446 553.076C84.9409 553.275 85.2017 553.375 85.5269 553.375C85.8521 553.375 86.1113 553.275 86.3047 553.076C86.501 552.874 86.5991 552.61 86.5991 552.285C86.5991 551.959 86.498 551.694 86.2959 551.489C86.0938 551.284 85.8374 551.182 85.5269 551.182ZM88.8315 557.549H88.1328L90.8047 550.602H91.499L88.8315 557.549ZM93.4766 553.405H94.0874C94.4712 553.399 94.7729 553.298 94.9927 553.102C95.2124 552.906 95.3223 552.641 95.3223 552.307C95.3223 551.557 94.9487 551.182 94.2017 551.182C93.8501 551.182 93.5688 551.283 93.3579 551.485C93.1499 551.684 93.0459 551.949 93.0459 552.28H92.2329C92.2329 551.773 92.4175 551.353 92.7866 551.019C93.1587 550.682 93.6304 550.514 94.2017 550.514C94.8052 550.514 95.2783 550.673 95.6211 550.993C95.9639 551.312 96.1353 551.756 96.1353 552.324C96.1353 552.603 96.0444 552.872 95.8628 553.133C95.6841 553.394 95.4395 553.588 95.1289 553.717C95.4805 553.829 95.7515 554.013 95.9419 554.271C96.1353 554.529 96.2319 554.844 96.2319 555.216C96.2319 555.79 96.0444 556.246 95.6694 556.583C95.2944 556.919 94.8066 557.088 94.2061 557.088C93.6055 557.088 93.1162 556.925 92.7383 556.6C92.3633 556.275 92.1758 555.846 92.1758 555.312H92.9932C92.9932 555.649 93.103 555.919 93.3228 556.121C93.5425 556.323 93.8369 556.424 94.2061 556.424C94.5986 556.424 94.8989 556.322 95.1069 556.117C95.3149 555.912 95.4189 555.617 95.4189 555.233C95.4189 554.861 95.3047 554.576 95.0762 554.376C94.8477 554.177 94.5181 554.075 94.0874 554.069H93.4766V553.405ZM97.4009 554.403C97.4009 553.741 97.4888 553.105 97.6646 552.496C97.8433 551.886 98.1084 551.333 98.46 550.834C98.8115 550.336 99.1763 549.985 99.5542 549.78L99.7212 550.316C99.2935 550.644 98.9419 551.145 98.6665 551.819C98.394 552.493 98.2446 553.247 98.2183 554.082L98.2139 554.456C98.2139 555.586 98.4204 556.568 98.8335 557.4C99.0825 557.898 99.3784 558.288 99.7212 558.569L99.5542 559.065C99.1646 558.849 98.7925 558.485 98.438 557.976C97.7466 556.979 97.4009 555.789 97.4009 554.403ZM105.239 550.574H103.205V549.602H102.467V550.574H100.415V551.159H105.239V550.574ZM101.63 553.13C101.63 552.572 102.116 552.203 102.836 552.203C103.556 552.203 104.042 552.572 104.042 553.13C104.042 553.688 103.556 554.048 102.836 554.048C102.116 554.048 101.63 553.688 101.63 553.13ZM103.205 554.606C104.132 554.489 104.744 553.931 104.744 553.13C104.744 552.221 103.961 551.636 102.836 551.636C101.711 551.636 100.928 552.221 100.928 553.13C100.928 553.931 101.54 554.489 102.467 554.606V555.488C101.684 555.515 100.928 555.515 100.28 555.515L100.379 556.136C101.792 556.136 103.691 556.118 105.419 555.812L105.374 555.263C104.681 555.371 103.934 555.425 103.205 555.461V554.606ZM107.849 553.022H106.589V549.593H105.851V557.666H106.589V553.643H107.849V553.022ZM110.664 554.447C110.664 555.1 110.577 555.727 110.404 556.328C110.234 556.925 109.972 557.478 109.618 557.984C109.266 558.491 108.897 558.852 108.51 559.065L108.339 558.569C108.79 558.223 109.152 557.687 109.424 556.96C109.7 556.231 109.84 555.422 109.846 554.535V554.394C109.846 553.779 109.782 553.208 109.653 552.68C109.524 552.15 109.344 551.675 109.112 551.256C108.884 550.837 108.626 550.511 108.339 550.276L108.51 549.78C108.897 549.994 109.265 550.351 109.613 550.852C109.965 551.353 110.227 551.905 110.4 552.509C110.576 553.112 110.664 553.758 110.664 554.447ZM115.432 552.239C115.432 551.312 116.377 550.709 117.664 550.709C118.951 550.709 119.887 551.312 119.887 552.239C119.887 553.166 118.951 553.769 117.664 553.769C116.377 553.769 115.432 553.166 115.432 552.239ZM118.033 556.019V554.336C119.536 554.228 120.589 553.427 120.589 552.239C120.589 550.952 119.365 550.124 117.664 550.124C115.954 550.124 114.721 550.952 114.721 552.239C114.721 553.427 115.783 554.228 117.286 554.336V556.019H114.001V556.631H121.336V556.019H118.033ZM129.157 550.52H126.312V549.548H125.566V550.52H122.668V551.114H129.157V550.52ZM127.789 552.923C127.789 553.418 127.123 553.706 125.944 553.706C124.765 553.706 124.081 553.418 124.081 552.923C124.081 552.428 124.765 552.14 125.944 552.14C127.123 552.14 127.789 552.428 127.789 552.923ZM123.316 552.923C123.316 553.787 124.297 554.264 125.944 554.264C127.573 554.264 128.554 553.787 128.554 552.923C128.554 552.059 127.573 551.573 125.944 551.573C124.297 551.573 123.316 552.059 123.316 552.923ZM129.607 554.831H122.29V555.434H125.566V557.675H126.312V555.434H129.607V554.831ZM134.038 553.405H134.649C135.033 553.399 135.334 553.298 135.554 553.102C135.774 552.906 135.884 552.641 135.884 552.307C135.884 551.557 135.51 551.182 134.763 551.182C134.412 551.182 134.13 551.283 133.919 551.485C133.711 551.684 133.607 551.949 133.607 552.28H132.794C132.794 551.773 132.979 551.353 133.348 551.019C133.72 550.682 134.192 550.514 134.763 550.514C135.367 550.514 135.84 550.673 136.183 550.993C136.525 551.312 136.697 551.756 136.697 552.324C136.697 552.603 136.606 552.872 136.424 553.133C136.246 553.394 136.001 553.588 135.69 553.717C136.042 553.829 136.313 554.013 136.503 554.271C136.697 554.529 136.793 554.844 136.793 555.216C136.793 555.79 136.606 556.246 136.231 556.583C135.856 556.919 135.368 557.088 134.768 557.088C134.167 557.088 133.678 556.925 133.3 556.6C132.925 556.275 132.737 555.846 132.737 555.312H133.555C133.555 555.649 133.665 555.919 133.884 556.121C134.104 556.323 134.398 556.424 134.768 556.424C135.16 556.424 135.46 556.322 135.668 556.117C135.876 555.912 135.98 555.617 135.98 555.233C135.98 554.861 135.866 554.576 135.638 554.376C135.409 554.177 135.08 554.075 134.649 554.069H134.038V553.405ZM137.967 556.574C137.967 556.433 138.008 556.316 138.09 556.222C138.175 556.128 138.301 556.082 138.468 556.082C138.635 556.082 138.761 556.128 138.846 556.222C138.934 556.316 138.978 556.433 138.978 556.574C138.978 556.708 138.934 556.821 138.846 556.912C138.761 557.003 138.635 557.048 138.468 557.048C138.301 557.048 138.175 557.003 138.09 556.912C138.008 556.821 137.967 556.708 137.967 556.574ZM137.971 552.693C137.971 552.553 138.012 552.436 138.094 552.342C138.179 552.248 138.305 552.201 138.472 552.201C138.639 552.201 138.765 552.248 138.85 552.342C138.938 552.436 138.982 552.553 138.982 552.693C138.982 552.828 138.938 552.941 138.85 553.032C138.765 553.123 138.639 553.168 138.472 553.168C138.305 553.168 138.179 553.123 138.094 553.032C138.012 552.941 137.971 552.828 137.971 552.693ZM144.102 554.271C144.102 555.223 143.939 555.931 143.614 556.394C143.289 556.856 142.78 557.088 142.089 557.088C141.406 557.088 140.901 556.862 140.573 556.411C140.245 555.957 140.075 555.28 140.063 554.381V553.295C140.063 552.355 140.226 551.656 140.551 551.199C140.876 550.742 141.386 550.514 142.08 550.514C142.769 550.514 143.275 550.735 143.601 551.177C143.926 551.617 144.093 552.296 144.102 553.216V554.271ZM143.289 553.159C143.289 552.471 143.192 551.97 142.999 551.656C142.805 551.34 142.499 551.182 142.08 551.182C141.664 551.182 141.361 551.338 141.17 551.652C140.98 551.965 140.882 552.447 140.876 553.098V554.398C140.876 555.09 140.976 555.601 141.175 555.932C141.377 556.26 141.682 556.424 142.089 556.424C142.49 556.424 142.788 556.269 142.981 555.958C143.177 555.648 143.28 555.159 143.289 554.491V553.159ZM149.155 554.271C149.155 555.223 148.993 555.931 148.667 556.394C148.342 556.856 147.834 557.088 147.143 557.088C146.46 557.088 145.955 556.862 145.626 556.411C145.298 555.957 145.128 555.28 145.117 554.381V553.295C145.117 552.355 145.279 551.656 145.604 551.199C145.93 550.742 146.439 550.514 147.134 550.514C147.822 550.514 148.329 550.735 148.654 551.177C148.979 551.617 149.146 552.296 149.155 553.216V554.271ZM148.342 553.159C148.342 552.471 148.246 551.97 148.052 551.656C147.859 551.34 147.553 551.182 147.134 551.182C146.718 551.182 146.415 551.338 146.224 551.652C146.034 551.965 145.936 552.447 145.93 553.098V554.398C145.93 555.09 146.029 555.601 146.229 555.932C146.431 556.26 146.735 556.424 147.143 556.424C147.544 556.424 147.841 556.269 148.035 555.958C148.231 555.648 148.333 555.159 148.342 554.491V553.159Z" fill="white" fill-opacity="0.8"/>
<path fill-rule="evenodd" clip-rule="evenodd" d="M45.4933 565.94C48.6436 566.387 52.3721 566.429 54.8441 566.328L54.9178 568.123C52.3817 568.227 48.5362 568.187 45.2409 567.719C43.6 567.487 42.0388 567.14 40.8332 566.623C39.6868 566.132 38.5529 565.351 38.3515 564.078L40.1264 563.797C40.1719 564.085 40.4908 564.522 41.5411 564.972C42.5321 565.397 43.9115 565.716 45.4933 565.94ZM35.5233 570.991C35.947 569.471 36.5763 567.999 37.2104 566.804L38.7977 567.647C38.214 568.746 37.6377 570.097 37.2542 571.473C36.8678 572.86 36.695 574.209 36.8582 575.332C37.0174 576.428 37.4839 577.26 38.3618 577.779C39.2787 578.321 40.7932 578.611 43.2254 578.256L43.4852 580.034C40.8543 580.418 38.8639 580.163 37.4475 579.326C35.9922 578.465 35.2971 577.085 35.0799 575.59C34.8667 574.122 35.1025 572.501 35.5233 570.991Z" fill="white"/>
<path fill-rule="evenodd" clip-rule="evenodd" d="M42.6201 557.196C42.3752 558.103 42.3923 558.872 42.5164 559.255L40.8069 559.808C40.5369 558.974 40.5893 557.824 40.8853 556.728C41.1875 555.609 41.7798 554.406 42.7397 553.488C43.7185 552.551 45.0574 551.935 46.7519 552.005C48.4183 552.074 50.348 552.802 52.5641 554.375C55.2775 556.302 57.2784 557.277 58.7249 557.68C60.1665 558.081 60.9642 557.893 61.3931 557.634C61.8262 557.373 62.0689 556.929 62.1671 556.437C62.2158 556.195 62.2229 555.965 62.2065 555.786C62.1927 555.633 62.167 555.569 62.1688 555.569C62.1694 555.568 62.1739 555.577 62.1844 555.593L63.6963 554.622C63.8887 554.922 63.9669 555.304 63.9961 555.623C64.028 555.973 64.0118 556.376 63.9291 556.79C63.7646 557.612 63.3115 558.575 62.3213 559.173C61.3269 559.772 59.9737 559.893 58.2426 559.411C56.5163 558.93 54.3221 557.828 51.5239 555.84C49.4779 554.388 47.8804 553.85 46.6778 553.801C45.5034 553.752 44.6316 554.164 43.9819 554.786C43.3132 555.426 42.8589 556.312 42.6201 557.196ZM55.884 571.365C55.4796 571.198 54.9772 571.081 54.4988 571.019L54.7289 569.237C55.3128 569.313 55.9787 569.46 56.5703 569.705C57.1284 569.935 57.7882 570.321 58.1224 570.975C58.5123 571.737 58.3217 572.554 57.7832 573.274C57.27 573.961 56.376 574.67 55.0652 575.432L54.1625 573.878C55.4011 573.159 56.0473 572.596 56.3439 572.199C56.4868 572.007 56.5208 571.892 56.5283 571.846C56.5335 571.815 56.5297 571.806 56.5226 571.793C56.4852 571.719 56.3216 571.546 55.884 571.365ZM44.5597 574.626C41.9586 576.578 39.3127 576.099 38.2695 575.403L39.2668 573.908C39.6628 574.172 41.4769 574.693 43.481 573.189L44.5597 574.626Z" fill="white"/>
<g filter="url(#filter1_d)">
<rect x="16" y="532" width="379" height="69" rx="10" fill="#E9E8FF"/>
</g>
<path d="M83.286 574.708C85.716 574.186 88.254 572.584 89.28 570.352C90.306 572.566 92.862 574.15 95.328 574.636L95.922 573.448C93.114 572.998 90.036 570.784 90.036 568.21V567.868H95.382V566.662H83.16V567.868H88.506V568.21C88.506 570.784 85.446 573.034 82.656 573.502L83.286 574.708ZM90.018 578.038V574.132H88.542V578.038H81.954V579.262H96.606V578.038H90.018ZM111.707 565.204H110.231V574.906H111.707V565.204ZM99.5566 566.392V567.58H105.389C105.083 570.424 102.491 572.638 98.6746 573.736L99.3046 574.888C103.895 573.538 106.973 570.532 106.973 566.392H99.5566ZM106.379 580.126C103.949 580.126 102.437 579.406 102.437 578.182C102.437 576.958 103.949 576.22 106.379 576.22C108.827 576.22 110.339 576.958 110.339 578.182C110.339 579.406 108.827 580.126 106.379 580.126ZM106.379 575.05C103.067 575.05 100.961 576.202 100.961 578.182C100.961 580.144 103.067 581.314 106.379 581.314C109.709 581.314 111.815 580.144 111.815 578.182C111.815 576.202 109.709 575.05 106.379 575.05ZM123.856 576.382C122.29 576.382 121.192 574.69 121.192 572.062C121.192 569.452 122.29 567.76 123.856 567.76C125.404 567.76 126.502 569.452 126.502 572.062C126.502 574.69 125.404 576.382 123.856 576.382ZM123.856 566.428C121.48 566.428 119.788 568.624 119.788 572.062C119.788 575.5 121.48 577.696 123.856 577.696C126.232 577.696 127.906 575.5 127.906 572.062C127.906 568.624 126.232 566.428 123.856 566.428ZM134.638 571.63H131.974V565.204H130.498V581.332H131.974V572.872H134.638V571.63ZM138.596 566.752H137.12V577.156H138.452C141.026 577.156 143.564 576.976 146.372 576.4L146.21 575.14C143.528 575.68 141.026 575.896 138.596 575.896V566.752ZM147.866 565.186V581.314H149.342V565.186H147.866ZM164.065 568.408C164.065 570.352 164.065 572.62 163.453 575.716L164.929 575.878C165.541 572.62 165.541 570.406 165.541 568.408V566.806H154.219V568.012H164.065V568.408ZM159.835 577.858V572.08H158.359V577.858H152.689V579.064H167.287V577.858H159.835ZM178.014 576.382C176.448 576.382 175.35 574.672 175.35 572.044C175.35 569.452 176.448 567.76 178.014 567.76C179.562 567.76 180.66 569.452 180.66 572.044C180.66 574.672 179.562 576.382 178.014 576.382ZM178.014 566.428C175.638 566.428 173.946 568.624 173.946 572.044C173.946 575.5 175.638 577.696 178.014 577.696C180.39 577.696 182.064 575.5 182.064 572.044C182.064 568.624 180.39 566.428 178.014 566.428ZM188.706 570.478V569.254H186.132V565.204H184.656V581.332H186.132V575.284H188.706V574.06H186.132V570.478H188.706ZM203.464 565.204H201.988V574.906H203.464V565.204ZM191.314 566.392V567.58H197.146C196.84 570.424 194.248 572.638 190.432 573.736L191.062 574.888C195.652 573.538 198.73 570.532 198.73 566.392H191.314ZM198.136 580.126C195.706 580.126 194.194 579.406 194.194 578.182C194.194 576.958 195.706 576.22 198.136 576.22C200.584 576.22 202.096 576.958 202.096 578.182C202.096 579.406 200.584 580.126 198.136 580.126ZM198.136 575.05C194.824 575.05 192.718 576.202 192.718 578.182C192.718 580.144 194.824 581.314 198.136 581.314C201.466 581.314 203.572 580.144 203.572 578.182C203.572 576.202 201.466 575.05 198.136 575.05Z" fill="black"/>
<rect x="277" y="547" width="100" height="37" rx="18.5" fill="#6259FF"/>
<path d="M87.4121 552.271C87.4121 552.591 87.3271 552.875 87.1572 553.124C86.9902 553.373 86.7632 553.568 86.4761 553.708C86.8101 553.852 87.0737 554.062 87.2671 554.337C87.4634 554.612 87.5615 554.924 87.5615 555.273C87.5615 555.827 87.374 556.268 86.999 556.596C86.627 556.924 86.1362 557.088 85.5269 557.088C84.9116 557.088 84.418 556.924 84.0459 556.596C83.6768 556.265 83.4922 555.824 83.4922 555.273C83.4922 554.927 83.5859 554.615 83.7734 554.337C83.9639 554.059 84.2261 553.848 84.5601 553.704C84.2759 553.563 84.0518 553.369 83.8877 553.12C83.7236 552.871 83.6416 552.588 83.6416 552.271C83.6416 551.732 83.8145 551.305 84.1602 550.988C84.5059 550.672 84.9614 550.514 85.5269 550.514C86.0894 550.514 86.5435 550.672 86.8892 550.988C87.2378 551.305 87.4121 551.732 87.4121 552.271ZM86.7485 555.255C86.7485 554.898 86.6343 554.606 86.4058 554.381C86.1802 554.155 85.8843 554.042 85.5181 554.042C85.1519 554.042 84.8574 554.154 84.6348 554.376C84.415 554.599 84.3052 554.892 84.3052 555.255C84.3052 555.619 84.4121 555.904 84.626 556.112C84.8428 556.32 85.1431 556.424 85.5269 556.424C85.9077 556.424 86.2065 556.32 86.4233 556.112C86.6401 555.901 86.7485 555.616 86.7485 555.255ZM85.5269 551.182C85.2075 551.182 84.9482 551.281 84.749 551.48C84.5527 551.677 84.4546 551.945 84.4546 552.285C84.4546 552.61 84.5513 552.874 84.7446 553.076C84.9409 553.275 85.2017 553.375 85.5269 553.375C85.8521 553.375 86.1113 553.275 86.3047 553.076C86.501 552.874 86.5991 552.61 86.5991 552.285C86.5991 551.959 86.498 551.694 86.2959 551.489C86.0938 551.284 85.8374 551.182 85.5269 551.182ZM88.8315 557.549H88.1328L90.8047 550.602H91.499L88.8315 557.549ZM93.4766 553.405H94.0874C94.4712 553.399 94.7729 553.298 94.9927 553.102C95.2124 552.906 95.3223 552.641 95.3223 552.307C95.3223 551.557 94.9487 551.182 94.2017 551.182C93.8501 551.182 93.5688 551.283 93.3579 551.485C93.1499 551.684 93.0459 551.949 93.0459 552.28H92.2329C92.2329 551.773 92.4175 551.353 92.7866 551.019C93.1587 550.682 93.6304 550.514 94.2017 550.514C94.8052 550.514 95.2783 550.673 95.6211 550.993C95.9639 551.312 96.1353 551.756 96.1353 552.324C96.1353 552.603 96.0444 552.872 95.8628 553.133C95.6841 553.394 95.4395 553.588 95.1289 553.717C95.4805 553.829 95.7515 554.013 95.9419 554.271C96.1353 554.529 96.2319 554.844 96.2319 555.216C96.2319 555.79 96.0444 556.246 95.6694 556.583C95.2944 556.919 94.8066 557.088 94.2061 557.088C93.6055 557.088 93.1162 556.925 92.7383 556.6C92.3633 556.275 92.1758 555.846 92.1758 555.312H92.9932C92.9932 555.649 93.103 555.919 93.3228 556.121C93.5425 556.323 93.8369 556.424 94.2061 556.424C94.5986 556.424 94.8989 556.322 95.1069 556.117C95.3149 555.912 95.4189 555.617 95.4189 555.233C95.4189 554.861 95.3047 554.576 95.0762 554.376C94.8477 554.177 94.5181 554.075 94.0874 554.069H93.4766V553.405ZM97.4009 554.403C97.4009 553.741 97.4888 553.105 97.6646 552.496C97.8433 551.886 98.1084 551.333 98.46 550.834C98.8115 550.336 99.1763 549.985 99.5542 549.78L99.7212 550.316C99.2935 550.644 98.9419 551.145 98.6665 551.819C98.394 552.493 98.2446 553.247 98.2183 554.082L98.2139 554.456C98.2139 555.586 98.4204 556.568 98.8335 557.4C99.0825 557.898 99.3784 558.288 99.7212 558.569L99.5542 559.065C99.1646 558.849 98.7925 558.485 98.438 557.976C97.7466 556.979 97.4009 555.789 97.4009 554.403ZM105.239 550.574H103.205V549.602H102.467V550.574H100.415V551.159H105.239V550.574ZM101.63 553.13C101.63 552.572 102.116 552.203 102.836 552.203C103.556 552.203 104.042 552.572 104.042 553.13C104.042 553.688 103.556 554.048 102.836 554.048C102.116 554.048 101.63 553.688 101.63 553.13ZM103.205 554.606C104.132 554.489 104.744 553.931 104.744 553.13C104.744 552.221 103.961 551.636 102.836 551.636C101.711 551.636 100.928 552.221 100.928 553.13C100.928 553.931 101.54 554.489 102.467 554.606V555.488C101.684 555.515 100.928 555.515 100.28 555.515L100.379 556.136C101.792 556.136 103.691 556.118 105.419 555.812L105.374 555.263C104.681 555.371 103.934 555.425 103.205 555.461V554.606ZM107.849 553.022H106.589V549.593H105.851V557.666H106.589V553.643H107.849V553.022ZM110.664 554.447C110.664 555.1 110.577 555.727 110.404 556.328C110.234 556.925 109.972 557.478 109.618 557.984C109.266 558.491 108.897 558.852 108.51 559.065L108.339 558.569C108.79 558.223 109.152 557.687 109.424 556.96C109.7 556.231 109.84 555.422 109.846 554.535V554.394C109.846 553.779 109.782 553.208 109.653 552.68C109.524 552.15 109.344 551.675 109.112 551.256C108.884 550.837 108.626 550.511 108.339 550.276L108.51 549.78C108.897 549.994 109.265 550.351 109.613 550.852C109.965 551.353 110.227 551.905 110.4 552.509C110.576 553.112 110.664 553.758 110.664 554.447ZM115.432 552.239C115.432 551.312 116.377 550.709 117.664 550.709C118.951 550.709 119.887 551.312 119.887 552.239C119.887 553.166 118.951 553.769 117.664 553.769C116.377 553.769 115.432 553.166 115.432 552.239ZM118.033 556.019V554.336C119.536 554.228 120.589 553.427 120.589 552.239C120.589 550.952 119.365 550.124 117.664 550.124C115.954 550.124 114.721 550.952 114.721 552.239C114.721 553.427 115.783 554.228 117.286 554.336V556.019H114.001V556.631H121.336V556.019H118.033ZM129.157 550.52H126.312V549.548H125.566V550.52H122.668V551.114H129.157V550.52ZM127.789 552.923C127.789 553.418 127.123 553.706 125.944 553.706C124.765 553.706 124.081 553.418 124.081 552.923C124.081 552.428 124.765 552.14 125.944 552.14C127.123 552.14 127.789 552.428 127.789 552.923ZM123.316 552.923C123.316 553.787 124.297 554.264 125.944 554.264C127.573 554.264 128.554 553.787 128.554 552.923C128.554 552.059 127.573 551.573 125.944 551.573C124.297 551.573 123.316 552.059 123.316 552.923ZM129.607 554.831H122.29V555.434H125.566V557.675H126.312V555.434H129.607V554.831ZM134.038 553.405H134.649C135.033 553.399 135.334 553.298 135.554 553.102C135.774 552.906 135.884 552.641 135.884 552.307C135.884 551.557 135.51 551.182 134.763 551.182C134.412 551.182 134.13 551.283 133.919 551.485C133.711 551.684 133.607 551.949 133.607 552.28H132.794C132.794 551.773 132.979 551.353 133.348 551.019C133.72 550.682 134.192 550.514 134.763 550.514C135.367 550.514 135.84 550.673 136.183 550.993C136.525 551.312 136.697 551.756 136.697 552.324C136.697 552.603 136.606 552.872 136.424 553.133C136.246 553.394 136.001 553.588 135.69 553.717C136.042 553.829 136.313 554.013 136.503 554.271C136.697 554.529 136.793 554.844 136.793 555.216C136.793 555.79 136.606 556.246 136.231 556.583C135.856 556.919 135.368 557.088 134.768 557.088C134.167 557.088 133.678 556.925 133.3 556.6C132.925 556.275 132.737 555.846 132.737 555.312H133.555C133.555 555.649 133.665 555.919 133.884 556.121C134.104 556.323 134.398 556.424 134.768 556.424C135.16 556.424 135.46 556.322 135.668 556.117C135.876 555.912 135.98 555.617 135.98 555.233C135.98 554.861 135.866 554.576 135.638 554.376C135.409 554.177 135.08 554.075 134.649 554.069H134.038V553.405ZM137.967 556.574C137.967 556.433 138.008 556.316 138.09 556.222C138.175 556.128 138.301 556.082 138.468 556.082C138.635 556.082 138.761 556.128 138.846 556.222C138.934 556.316 138.978 556.433 138.978 556.574C138.978 556.708 138.934 556.821 138.846 556.912C138.761 557.003 138.635 557.048 138.468 557.048C138.301 557.048 138.175 557.003 138.09 556.912C138.008 556.821 137.967 556.708 137.967 556.574ZM137.971 552.693C137.971 552.553 138.012 552.436 138.094 552.342C138.179 552.248 138.305 552.201 138.472 552.201C138.639 552.201 138.765 552.248 138.85 552.342C138.938 552.436 138.982 552.553 138.982 552.693C138.982 552.828 138.938 552.941 138.85 553.032C138.765 553.123 138.639 553.168 138.472 553.168C138.305 553.168 138.179 553.123 138.094 553.032C138.012 552.941 137.971 552.828 137.971 552.693ZM144.102 554.271C144.102 555.223 143.939 555.931 143.614 556.394C143.289 556.856 142.78 557.088 142.089 557.088C141.406 557.088 140.901 556.862 140.573 556.411C140.245 555.957 140.075 555.28 140.063 554.381V553.295C140.063 552.355 140.226 551.656 140.551 551.199C140.876 550.742 141.386 550.514 142.08 550.514C142.769 550.514 143.275 550.735 143.601 551.177C143.926 551.617 144.093 552.296 144.102 553.216V554.271ZM143.289 553.159C143.289 552.471 143.192 551.97 142.999 551.656C142.805 551.34 142.499 551.182 142.08 551.182C141.664 551.182 141.361 551.338 141.17 551.652C140.98 551.965 140.882 552.447 140.876 553.098V554.398C140.876 555.09 140.976 555.601 141.175 555.932C141.377 556.26 141.682 556.424 142.089 556.424C142.49 556.424 142.788 556.269 142.981 555.958C143.177 555.648 143.28 555.159 143.289 554.491V553.159ZM149.155 554.271C149.155 555.223 148.993 555.931 148.667 556.394C148.342 556.856 147.834 557.088 147.143 557.088C146.46 557.088 145.955 556.862 145.626 556.411C145.298 555.957 145.128 555.28 145.117 554.381V553.295C145.117 552.355 145.279 551.656 145.604 551.199C145.93 550.742 146.439 550.514 147.134 550.514C147.822 550.514 148.329 550.735 148.654 551.177C148.979 551.617 149.146 552.296 149.155 553.216V554.271ZM148.342 553.159C148.342 552.471 148.246 551.97 148.052 551.656C147.859 551.34 147.553 551.182 147.134 551.182C146.718 551.182 146.415 551.338 146.224 551.652C146.034 551.965 145.936 552.447 145.93 553.098V554.398C145.93 555.09 146.029 555.601 146.229 555.932C146.431 556.26 146.735 556.424 147.143 556.424C147.544 556.424 147.841 556.269 148.035 555.958C148.231 555.648 148.333 555.159 148.342 554.491V553.159Z" fill="black" fill-opacity="0.8"/>
<path d="M313.035 565.084H313.902C314.34 565.08 314.686 564.967 314.939 564.744C315.197 564.521 315.326 564.199 315.326 563.777C315.326 563.371 315.219 563.057 315.004 562.834C314.793 562.607 314.469 562.494 314.031 562.494C313.648 562.494 313.334 562.605 313.088 562.828C312.842 563.047 312.719 563.334 312.719 563.689H311.295C311.295 563.252 311.41 562.854 311.641 562.494C311.875 562.135 312.199 561.855 312.613 561.656C313.031 561.453 313.498 561.352 314.014 561.352C314.865 561.352 315.533 561.566 316.018 561.996C316.506 562.422 316.75 563.016 316.75 563.777C316.75 564.16 316.627 564.521 316.381 564.861C316.139 565.197 315.824 565.451 315.438 565.623C315.906 565.783 316.262 566.035 316.504 566.379C316.75 566.723 316.873 567.133 316.873 567.609C316.873 568.375 316.609 568.984 316.082 569.438C315.559 569.891 314.869 570.117 314.014 570.117C313.193 570.117 312.521 569.898 311.998 569.461C311.475 569.023 311.213 568.441 311.213 567.715H312.637C312.637 568.09 312.762 568.395 313.012 568.629C313.266 568.863 313.605 568.98 314.031 568.98C314.473 568.98 314.82 568.863 315.074 568.629C315.328 568.395 315.455 568.055 315.455 567.609C315.455 567.16 315.322 566.814 315.057 566.572C314.791 566.33 314.396 566.209 313.873 566.209H313.035V565.084ZM323.025 566.959H324.086V568.102H323.025V570H321.602V568.102H317.916L317.875 567.234L321.555 561.469H323.025V566.959ZM319.369 566.959H321.602V563.396L321.496 563.584L319.369 566.959ZM330.766 570H325.029V569.021L327.871 565.922C328.281 565.465 328.572 565.084 328.744 564.779C328.92 564.471 329.008 564.162 329.008 563.854C329.008 563.447 328.893 563.119 328.662 562.869C328.436 562.619 328.129 562.494 327.742 562.494C327.281 562.494 326.924 562.635 326.67 562.916C326.416 563.197 326.289 563.582 326.289 564.07H324.865C324.865 563.551 324.982 563.084 325.217 562.67C325.455 562.252 325.793 561.928 326.23 561.697C326.672 561.467 327.18 561.352 327.754 561.352C328.582 561.352 329.234 561.561 329.711 561.979C330.191 562.393 330.432 562.967 330.432 563.701C330.432 564.127 330.311 564.574 330.068 565.043C329.83 565.508 329.438 566.037 328.891 566.631L326.805 568.863H330.766V570ZM336.287 564.936H333.311V561.732H336.287V564.936ZM339.719 562.668V564H337.247V562.668H339.719ZM337.247 564.792H339.719V566.496H340.715V560.136H339.719V561.876H337.247V560.94H332.339V565.716H337.247V564.792ZM337.151 570.108C335.543 570.108 334.559 569.64 334.559 568.848C334.559 568.056 335.543 567.588 337.151 567.588C338.783 567.588 339.767 568.056 339.767 568.848C339.767 569.64 338.783 570.108 337.151 570.108ZM337.151 566.82C334.943 566.82 333.575 567.552 333.575 568.848C333.575 570.132 334.943 570.876 337.151 570.876C339.371 570.876 340.751 570.132 340.751 568.848C340.751 567.552 339.371 566.82 337.151 566.82Z" fill="white"/>
<path d="M49.526 560.49V573H47.474V564.432L43.658 573H42.236L38.402 564.432V573H36.35V560.49H38.564L42.956 570.3L47.33 560.49H49.526ZM60.611 563.082L54.527 577.662H52.403L54.419 572.838L50.513 563.082H52.799L55.589 570.642L58.487 563.082H60.611Z" fill="#4A40FF"/>
<rect x="28" y="738" width="8" height="8" fill="#E9E8FF"/>
<rect x="44" y="738" width="8" height="8" fill="#E9E8FF"/>
<rect x="60" y="738" width="8" height="8" fill="#4A40FF"/>
</g>
<defs>
<filter id="filter0_d" x="12" y="439" width="387" height="77" filterUnits="userSpaceOnUse" color-interpolation-filters="sRGB">
<feFlood flood-opacity="0" result="BackgroundImageFix"/>
<feColorMatrix in="SourceAlpha" type="matrix" values="0 0 0 0 0 0 0 0 0 0 0 0 0 0 0 0 0 0 127 0" result="hardAlpha"/>
<feOffset dy="4"/>
<feGaussianBlur stdDeviation="2"/>
<feComposite in2="hardAlpha" operator="out"/>
<feColorMatrix type="matrix" values="0 0 0 0 0 0 0 0 0 0 0 0 0 0 0 0 0 0 0.25 0"/>
<feBlend mode="normal" in2="BackgroundImageFix" result="effect1_dropShadow"/>
<feBlend mode="normal" in="SourceGraphic" in2="effect1_dropShadow" result="shape"/>
</filter>
<filter id="filter1_d" x="12" y="532" width="387" height="77" filterUnits="userSpaceOnUse" color-interpolation-filters="sRGB">
<feFlood flood-opacity="0" result="BackgroundImageFix"/>
<feColorMatrix in="SourceAlpha" type="matrix" values="0 0 0 0 0 0 0 0 0 0 0 0 0 0 0 0 0 0 127 0" result="hardAlpha"/>
<feOffset dy="4"/>
<feGaussianBlur stdDeviation="2"/>
<feComposite in2="hardAlpha" operator="out"/>
<feColorMatrix type="matrix" values="0 0 0 0 0 0 0 0 0 0 0 0 0 0 0 0 0 0 0.05 0"/>
<feBlend mode="normal" in2="BackgroundImageFix" result="effect1_dropShadow"/>
<feBlend mode="normal" in="SourceGraphic" in2="effect1_dropShadow" result="shape"/>
</filter>
<clipPath id="clip0">
<rect width="411" height="823" fill="white"/>
</clipPath>
</defs>
</svg>
