<svg width="411" height="823" preserveAspectRatio="none" viewBox="0 0 411 823" fill="none" xmlns="http://www.w3.org/2000/svg">
<g clip-path="url(#clip0)">
<rect width="411" height="823" fill="#F7F7FA"/>
<rect y="-4" width="411" height="400" fill="white"/>
<line x1="16.5" y1="33.8945" x2="16.5" y2="372.14" stroke="#F7F7FA"/>
<line x1="70.5" y1="33.8945" x2="70.5" y2="372.14" stroke="#F7F7FA"/>
<line x1="124.5" y1="33.8945" x2="124.5" y2="372.14" stroke="#F7F7FA"/>
<line x1="178.5" y1="33.8945" x2="178.5" y2="372.14" stroke="#F7F7FA"/>
<line x1="232.5" y1="33.8945" x2="232.5" y2="372.14" stroke="#F7F7FA"/>
<line x1="286.5" y1="33.8945" x2="286.5" y2="372.14" stroke="#F7F7FA"/>
<line x1="340.5" y1="33.8945" x2="340.5" y2="372.14" stroke="#F7F7FA"/>
<line x1="394.5" y1="33.8945" x2="394.5" y2="372.14" stroke="#F7F7FA"/>
<line y1="100.762" x2="411" y2="100.762" stroke="#F7F7FA"/>
<line y1="168.129" x2="411" y2="168.129" stroke="#F7F7FA"/>
<line y1="235.5" x2="411" y2="235.5" stroke="#F7F7FA"/>
<line y1="302.867" x2="411" y2="302.867" stroke="#F7F7FA"/>
<path d="M188.462 99H170C180.567 145.115 207.773 163.322 230 170C202.915 161.862 187.126 119.875 188.462 99Z" fill="#4A40FF" fill-opacity="0.3"/>
<path d="M180.831 101H164C164.673 117.169 175.764 162.358 218.647 184.763L246 193L229.662 171.766L225.681 175.736" stroke="black" stroke-width="2"/>
<path d="M238.636 179L231 186.125L247 193L238.636 179Z" fill="#4A40FF"/>
<path d="M106.644 298.376H99.1819V301.806H108.086V300.868H100.33V299.258H107.806V295.982H99.1399V296.892H106.644V298.376ZM109.178 303.094H97.7819V304.032H102.892V308.05H104.04V304.032H109.178V303.094ZM121.259 295.492H120.111V304.816H121.259V295.492ZM118.669 301.47C116.919 301.778 115.435 301.834 112.817 301.834V300.028H117.311V299.118H112.817V297.396H117.661V296.472H111.669V302.744H112.691C115.435 302.744 116.961 302.702 118.795 302.394L118.669 301.47ZM114.329 306.818V304.004H113.181V307.756H121.637V306.818H114.329ZM134.386 297.69H135.828V296.752H132.356V297.69H133.294V299.216C133.294 300.658 133.098 302.646 132.09 303.976C131.068 302.618 130.886 300.602 130.886 299.216V297.69H131.81V296.752H128.254V297.69H129.794V299.216C129.794 300.994 129.374 303.402 127.862 304.578L128.59 305.404C129.486 304.676 130.018 303.5 130.34 302.226C130.62 303.528 131.138 304.76 132.09 305.516C133.042 304.774 133.56 303.542 133.84 302.24C134.148 303.528 134.68 304.69 135.604 305.404L136.332 304.578C134.806 303.43 134.386 301.078 134.386 299.216V297.69ZM139.72 300.462H137.984V295.492H136.836V308.036H137.984V301.428H139.72V300.462ZM141.931 296.836V297.76H146.649C146.411 300.742 144.731 303.15 141.357 304.76L141.973 305.698C146.145 303.654 147.811 300.462 147.811 296.836H141.931ZM150.345 295.478V308.036H151.493V295.478H150.345ZM163.14 300.476H156.91V298.628H163.14V300.476ZM164.288 295.982H163.14V297.704H156.91V295.982H155.776V301.414H164.288V295.982ZM165.73 302.926H154.334V303.85H159.43V308.05H160.578V303.85H165.73V302.926ZM169.229 301.078H173.345V300.154H169.229V297.564H173.891V296.612H168.081V305.026H169.047C171.441 305.026 172.967 304.956 174.787 304.634L174.661 303.696C172.953 304.004 171.497 304.088 169.229 304.088V301.078ZM176.705 295.464V300.21H174.115V301.162H176.705V308.05H177.853V295.464H176.705ZM190.253 296.724C192.185 296.724 193.445 297.326 193.445 298.32C193.445 299.3 192.185 299.902 190.253 299.902C188.335 299.902 187.061 299.3 187.061 298.32C187.061 297.326 188.335 296.724 190.253 296.724ZM190.253 300.84C192.913 300.84 194.649 299.874 194.649 298.32C194.649 296.766 192.913 295.8 190.253 295.8C187.593 295.8 185.857 296.766 185.857 298.32C185.857 299.874 187.593 300.84 190.253 300.84ZM187.173 304.088H186.025V307.756H194.705V306.804H187.173V304.088ZM184.569 301.848V302.786H189.777V305.32H190.939V302.786H195.951V301.848H184.569ZM203.426 307.14C201.438 307.14 200.276 306.65 200.276 305.768C200.276 304.886 201.438 304.396 203.426 304.396C205.386 304.396 206.548 304.886 206.548 305.768C206.548 306.65 205.386 307.14 203.426 307.14ZM203.426 303.5C200.738 303.5 199.114 304.312 199.114 305.768C199.114 307.224 200.738 308.036 203.426 308.036C206.086 308.036 207.71 307.224 207.71 305.768C207.71 304.312 206.086 303.5 203.426 303.5ZM204 301.68V300.224H207.78V299.3H200.318V296.976H207.696V296.052H199.17V300.224H202.852V301.68H197.742V302.604H209.11V301.68H204ZM215.559 296.836V297.76H220.277C220.039 300.742 218.359 303.15 214.985 304.76L215.601 305.698C219.773 303.654 221.439 300.462 221.439 296.836H215.559ZM223.973 295.478V308.036H225.121V295.478H223.973ZM229.236 305.222H236.824V307.924H237.972V304.284H229.236V305.222ZM234.248 302.38V301.064H238.168V300.168H230.566V298.852H237.902V295.8H229.404V296.696H236.768V297.998H229.432V301.064H233.086V302.38H227.962V303.318H239.358V302.38H234.248ZM241.499 296.836V297.788H243.809C243.683 300.308 242.955 302.632 241.093 304.564L241.989 305.208C244.271 302.8 244.901 299.86 244.901 296.836H241.499ZM245.321 296.836V297.788H247.253C247.155 300.448 246.595 303.192 244.663 305.418L245.587 306.048C247.897 303.318 248.331 299.86 248.331 296.836H245.321ZM252.867 300.658H251.005V295.478H249.857V308.036H251.005V301.61H252.867V300.658ZM258.774 297.718H261.728V296.766H254.714V297.718H257.626V299.314C257.626 301.484 256.1 303.85 254.294 304.704L254.966 305.628C256.394 304.9 257.626 303.318 258.2 301.484C258.802 303.206 260.034 304.648 261.49 305.32L262.134 304.396C260.286 303.612 258.774 301.442 258.774 299.314V297.718ZM263.422 295.492V308.036H264.57V295.492H263.422ZM278.818 297.018H275.682V295.478H274.534V297.018H271.412V297.942H278.818V297.018ZM273.204 300.966C273.204 300.098 273.974 299.538 275.108 299.538C276.242 299.538 277.026 300.098 277.026 300.966C277.026 301.848 276.242 302.408 275.108 302.408C273.974 302.408 273.204 301.848 273.204 300.966ZM278.118 300.966C278.118 299.566 276.886 298.642 275.108 298.642C273.33 298.642 272.112 299.566 272.112 300.966C272.112 302.38 273.33 303.304 275.108 303.304C276.886 303.304 278.118 302.38 278.118 300.966ZM274.45 304.158H273.302V307.756H281.674V306.818H274.45V304.158ZM281.114 299.622V295.478H279.966V304.9H281.114V300.588H282.962V299.622H281.114ZM289.681 301.708H286.293V299.44H289.681V301.708ZM290.815 299.958H293.713V304.774H294.875V295.478H293.713V299.02H290.815V296.318H289.681V298.53H286.293V296.318H285.159V302.632H290.815V299.958ZM287.945 306.818V303.864H286.797V307.756H295.169V306.818H287.945ZM300.529 304.214C299.521 304.214 298.891 302.94 298.891 300.882C298.891 298.866 299.521 297.592 300.529 297.592C301.509 297.592 302.153 298.866 302.153 300.882C302.153 302.94 301.509 304.214 300.529 304.214ZM304.771 300.364H303.189C303.049 297.998 302.041 296.528 300.529 296.528C298.891 296.528 297.841 298.208 297.841 300.882C297.841 303.598 298.891 305.278 300.529 305.278C302.069 305.278 303.091 303.766 303.189 301.302H304.771V307.42H305.863V295.758H304.771V300.364ZM307.263 295.478V308.036H308.355V295.478H307.263ZM312.554 304.032H311.504L311.154 297.004H312.904L312.554 304.032ZM311.056 306.174C311.056 305.81 311.15 305.553 311.336 305.404C311.523 305.255 311.752 305.18 312.022 305.18C312.274 305.18 312.494 305.255 312.68 305.404C312.876 305.553 312.974 305.81 312.974 306.174C312.974 306.538 312.876 306.799 312.68 306.958C312.494 307.117 312.274 307.196 312.022 307.196C311.752 307.196 311.523 307.117 311.336 306.958C311.15 306.799 311.056 306.538 311.056 306.174ZM69.4179 320.594C69.4179 319.152 70.8879 318.214 72.8899 318.214C74.8919 318.214 76.3479 319.152 76.3479 320.594C76.3479 322.036 74.8919 322.974 72.8899 322.974C70.8879 322.974 69.4179 322.036 69.4179 320.594ZM73.4639 326.474V323.856C75.8019 323.688 77.4399 322.442 77.4399 320.594C77.4399 318.592 75.5359 317.304 72.8899 317.304C70.2299 317.304 68.3119 318.592 68.3119 320.594C68.3119 322.442 69.9639 323.688 72.3019 323.856V326.474H67.1919V327.426H78.6019V326.474H73.4639ZM90.4168 319.474H83.0248V316.66H81.8908V320.398H90.4168V319.474ZM82.9408 326.642H90.3048V323.688H81.7648V324.584H89.1568V325.788H81.7928V328.868H90.7248V327.972H82.9408V326.642ZM80.3508 321.63V322.568H91.7468V321.63H80.3508ZM97.5977 317.402C95.6517 317.402 94.2377 318.592 94.2377 320.356C94.2377 322.106 95.6517 323.31 97.5977 323.31C99.5577 323.31 100.958 322.106 100.958 320.356C100.958 318.592 99.5577 317.402 97.5977 317.402ZM97.5977 318.382C98.8997 318.382 99.8377 319.18 99.8377 320.356C99.8377 321.518 98.8997 322.33 97.5977 322.33C96.3097 322.33 95.3577 321.518 95.3577 320.356C95.3577 319.18 96.3097 318.382 97.5977 318.382ZM102.61 316.478V329.064H103.758V316.478H102.61ZM93.7477 326.306C96.0157 326.306 99.0537 326.278 101.882 325.76L101.784 324.906C99.0397 325.326 95.8897 325.34 93.6077 325.34L93.7477 326.306ZM119.447 319.376H111.985V322.806H120.889V321.868H113.133V320.258H120.609V316.982H111.943V317.892H119.447V319.376ZM121.981 324.094H110.585V325.032H115.695V329.05H116.843V325.032H121.981V324.094ZM134.062 316.492H132.914V325.816H134.062V316.492ZM131.472 322.47C129.722 322.778 128.238 322.834 125.62 322.834V321.028H130.114V320.118H125.62V318.396H130.464V317.472H124.472V323.744H125.494C128.238 323.744 129.764 323.702 131.598 323.394L131.472 322.47ZM127.132 327.818V325.004H125.984V328.756H134.44V327.818H127.132ZM142.587 317.556C144.645 317.556 145.821 318.032 145.821 318.872C145.821 319.712 144.645 320.188 142.587 320.188C140.529 320.188 139.353 319.712 139.353 318.872C139.353 318.032 140.529 317.556 142.587 317.556ZM142.587 321.042C145.345 321.042 146.997 320.286 146.997 318.872C146.997 317.458 145.345 316.688 142.587 316.688C139.829 316.688 138.177 317.458 138.177 318.872C138.177 320.286 139.829 321.042 142.587 321.042ZM139.437 326.726H146.815V323.898H138.275V324.766H145.681V325.886H138.317V328.896H147.193V328H139.437V326.726ZM136.903 321.896V322.82H148.271V321.896H136.903ZM164.591 321C162.393 320.65 160.251 319.124 160.251 317.374V316.814H159.075V317.374C159.075 319.124 156.961 320.65 154.721 321L155.183 321.91C157.087 321.56 158.893 320.496 159.663 318.984C160.447 320.482 162.253 321.546 164.143 321.91L164.591 321ZM156.597 325.172H155.449V328.756H164.101V327.818H156.597V325.172ZM160.237 323.226V321.098H159.089V323.226H153.979V324.15H165.389V323.226H160.237ZM175.006 320.132C173.214 319.754 171.968 318.704 171.968 317.416V316.786H170.778V317.416C170.778 318.76 169.546 319.894 167.726 320.314L168.23 321.196C169.728 320.818 170.862 319.978 171.38 318.872C171.926 319.908 173.06 320.678 174.502 321.014L175.006 320.132ZM170.918 324.682H172.066V322.806C173.2 322.75 174.348 322.638 175.468 322.456L175.384 321.616C172.64 321.98 169.532 321.98 167.18 321.98L167.32 322.932C168.398 322.932 169.644 322.932 170.918 322.876V324.682ZM176.238 327.944H170.274V326.558H176.238V327.944ZM176.238 325.662H170.274V324.318H169.126V328.868H177.372V324.318H176.238V325.662ZM176.224 316.492V323.702H177.372V316.492H176.224ZM187.269 321.616H185.099C185.519 320.496 185.701 319.306 185.701 318.074H180.857V319.012H184.567C184.357 321.644 183.013 323.898 180.325 325.508L180.997 326.334C182.733 325.298 183.937 323.996 184.693 322.54H187.269V328.406H188.361V316.814H187.269V321.616ZM189.887 316.478V329.036H190.979V316.478H189.887ZM198.128 317.836V318.76H202.846C202.608 321.742 200.928 324.15 197.554 325.76L198.17 326.698C202.342 324.654 204.008 321.462 204.008 317.836H198.128ZM206.542 316.478V329.036H207.69V316.478H206.542ZM211.805 326.222H219.393V328.924H220.541V325.284H211.805V326.222ZM216.817 323.38V322.064H220.737V321.168H213.135V319.852H220.471V316.8H211.973V317.696H219.337V318.998H212.001V322.064H215.655V323.38H210.531V324.318H221.927V323.38H216.817ZM227.386 325.284C226.252 325.284 225.426 324.472 225.426 323.352C225.426 322.218 226.252 321.406 227.386 321.406C228.534 321.406 229.36 322.218 229.36 323.352C229.36 324.472 228.534 325.284 227.386 325.284ZM227.386 320.454C225.622 320.454 224.348 321.658 224.348 323.352C224.348 325.06 225.622 326.236 227.386 326.236C229.178 326.236 230.452 325.06 230.452 323.352C230.452 321.658 229.178 320.454 227.386 320.454ZM227.946 316.632H226.798V318.494H223.634V319.418H231.04V318.494H227.946V316.632ZM235.436 321.644H233.378V316.492H232.23V329.036H233.378V322.61H235.436V321.644ZM245.725 318.984C245.725 320.496 245.725 322.26 245.249 324.668L246.397 324.794C246.873 322.26 246.873 320.538 246.873 318.984V317.738H238.067V318.676H245.725V318.984ZM242.435 326.334V321.84H241.287V326.334H236.877V327.272H248.231V326.334H242.435ZM264.229 316.492H263.081V322.988H264.229V316.492ZM261.541 321.728C259.679 321.112 258.363 319.544 258.363 317.808V316.856H257.215V317.808C257.215 319.628 255.913 321.308 254.023 321.966L254.611 322.862C256.095 322.33 257.257 321.182 257.803 319.74C258.377 321.07 259.525 322.12 260.967 322.624L261.541 321.728ZM257.271 327.986V326.642H264.243V323.618H256.109V324.514H263.109V325.774H256.137V328.896H264.663V327.986H257.271ZM273.747 320.342V321.294H276.281V325.858H277.443V316.492H276.281V320.342H273.747ZM274.517 323.184C272.655 322.596 271.381 321.14 271.381 319.474V319.082H274.153V318.158H271.381V316.548H270.233V318.158H267.447V319.082H270.233V319.474C270.233 321.224 268.987 322.792 267.125 323.422L267.699 324.318C269.169 323.8 270.289 322.736 270.821 321.35C271.395 322.624 272.515 323.618 273.957 324.094L274.517 323.184ZM270.569 327.818V325.018H269.407V328.756H277.793V327.818H270.569ZM283.364 325.172C282.384 325.172 281.698 324.374 281.698 323.254C281.698 322.162 282.384 321.364 283.364 321.364C284.33 321.364 285.03 322.162 285.03 323.254C285.03 324.374 284.33 325.172 283.364 325.172ZM283.364 320.398C281.81 320.398 280.676 321.574 280.676 323.254C280.676 324.962 281.81 326.124 283.364 326.124C284.918 326.124 286.052 324.962 286.052 323.254C286.052 321.574 284.918 320.398 283.364 320.398ZM283.924 316.842H282.79V318.62H280.242V319.558H286.472V318.62H283.924V316.842ZM289.79 316.464V321.77H288.18V316.758H287.102V328.42H288.18V322.708H289.79V329.022H290.896V316.464H289.79ZM295.893 320.552H302.305V322.862H295.893V320.552ZM299.673 326.488V323.786H303.425V317.374H302.305V319.614H295.893V317.374H294.759V323.786H298.511V326.488H293.415V327.426H304.797V326.488H299.673ZM310.298 317.668H309.192V320.062C309.192 322.218 308.156 324.472 306.434 325.48L307.148 326.334C308.394 325.564 309.304 324.15 309.752 322.484C310.2 324.01 311.04 325.34 312.23 326.068L312.888 325.172C311.236 324.164 310.298 322.036 310.298 320.02V317.668ZM313.602 320.986H311.53V321.938H313.602V328.42H314.68V316.758H313.602V320.986ZM316.15 316.478V329.036H317.242V316.478H316.15ZM323.667 323.52C324.185 323.646 324.787 323.716 325.403 323.716C326.033 323.716 326.635 323.646 327.167 323.52V326.474H323.667V323.52ZM325.403 318.172C327.419 318.172 328.875 319.096 328.875 320.496C328.875 321.896 327.419 322.82 325.403 322.82C323.387 322.82 321.945 321.896 321.945 320.496C321.945 319.096 323.387 318.172 325.403 318.172ZM328.315 326.474V323.072C329.351 322.526 329.967 321.63 329.967 320.496C329.967 318.536 328.077 317.276 325.403 317.276C322.743 317.276 320.839 318.536 320.839 320.496C320.839 321.63 321.469 322.54 322.519 323.086V326.474H319.719V327.426H331.129V326.474H328.315ZM337.019 321.294C337.019 320.921 337.107 320.659 337.285 320.51C337.471 320.351 337.7 320.272 337.971 320.272C338.232 320.272 338.456 320.351 338.643 320.51C338.839 320.659 338.937 320.921 338.937 321.294C338.937 321.649 338.839 321.905 338.643 322.064C338.456 322.223 338.232 322.302 337.971 322.302C337.7 322.302 337.471 322.223 337.285 322.064C337.107 321.905 337.019 321.649 337.019 321.294ZM337.019 327.174C337.019 326.81 337.107 326.553 337.285 326.404C337.471 326.255 337.7 326.18 337.971 326.18C338.232 326.18 338.456 326.255 338.643 326.404C338.839 326.553 338.937 326.81 338.937 327.174C338.937 327.538 338.839 327.799 338.643 327.958C338.456 328.117 338.232 328.196 337.971 328.196C337.7 328.196 337.471 328.117 337.285 327.958C337.107 327.799 337.019 327.538 337.019 327.174ZM343.983 324.164C343.983 325.293 343.815 326.381 343.479 327.426C343.143 328.462 342.625 329.391 341.925 330.212H340.609C341.253 329.344 341.738 328.387 342.065 327.342C342.391 326.297 342.555 325.233 342.555 324.15C342.555 323.039 342.387 321.957 342.051 320.902C341.724 319.847 341.239 318.881 340.595 318.004H341.925C342.625 318.853 343.143 319.81 343.479 320.874C343.815 321.929 343.983 323.025 343.983 324.164Z" fill="black"/>
<path d="M169.609 250L165.769 243.328H163.681V250H160.945V233.32H166.705C167.985 233.32 169.065 233.544 169.945 233.992C170.841 234.44 171.505 235.04 171.937 235.792C172.385 236.544 172.609 237.384 172.609 238.312C172.609 239.4 172.289 240.392 171.649 241.288C171.025 242.168 170.057 242.768 168.745 243.088L172.873 250H169.609ZM163.681 241.144H166.705C167.729 241.144 168.497 240.888 169.009 240.376C169.537 239.864 169.801 239.176 169.801 238.312C169.801 237.448 169.545 236.776 169.033 236.296C168.521 235.8 167.745 235.552 166.705 235.552H163.681V241.144ZM181.845 250.216C180.597 250.216 179.469 249.936 178.461 249.376C177.453 248.8 176.661 248 176.085 246.976C175.509 245.936 175.221 244.736 175.221 243.376C175.221 242.032 175.517 240.84 176.109 239.8C176.701 238.76 177.509 237.96 178.533 237.4C179.557 236.84 180.701 236.56 181.965 236.56C183.229 236.56 184.373 236.84 185.397 237.4C186.421 237.96 187.229 238.76 187.821 239.8C188.413 240.84 188.709 242.032 188.709 243.376C188.709 244.72 188.405 245.912 187.797 246.952C187.189 247.992 186.357 248.8 185.301 249.376C184.261 249.936 183.109 250.216 181.845 250.216ZM181.845 247.84C182.549 247.84 183.205 247.672 183.813 247.336C184.437 247 184.941 246.496 185.325 245.824C185.709 245.152 185.901 244.336 185.901 243.376C185.901 242.416 185.717 241.608 185.349 240.952C184.981 240.28 184.493 239.776 183.885 239.44C183.277 239.104 182.621 238.936 181.917 238.936C181.213 238.936 180.557 239.104 179.949 239.44C179.357 239.776 178.885 240.28 178.533 240.952C178.181 241.608 178.005 242.416 178.005 243.376C178.005 244.8 178.365 245.904 179.085 246.688C179.821 247.456 180.741 247.84 181.845 247.84ZM203.389 236.776V250H200.653V248.44C200.221 248.984 199.653 249.416 198.949 249.736C198.261 250.04 197.525 250.192 196.741 250.192C195.701 250.192 194.765 249.976 193.933 249.544C193.117 249.112 192.469 248.472 191.989 247.624C191.525 246.776 191.293 245.752 191.293 244.552V236.776H194.005V244.144C194.005 245.328 194.301 246.24 194.893 246.88C195.485 247.504 196.293 247.816 197.317 247.816C198.341 247.816 199.149 247.504 199.741 246.88C200.349 246.24 200.653 245.328 200.653 244.144V236.776H203.389ZM210.191 239.008V246.328C210.191 246.824 210.303 247.184 210.527 247.408C210.767 247.616 211.167 247.72 211.727 247.72H213.407V250H211.247C210.015 250 209.071 249.712 208.415 249.136C207.759 248.56 207.431 247.624 207.431 246.328V239.008H205.871V236.776H207.431V233.488H210.191V236.776H213.407V239.008H210.191ZM217.321 235.024C216.825 235.024 216.409 234.856 216.073 234.52C215.737 234.184 215.569 233.768 215.569 233.272C215.569 232.776 215.737 232.36 216.073 232.024C216.409 231.688 216.825 231.52 217.321 231.52C217.801 231.52 218.209 231.688 218.545 232.024C218.881 232.36 219.049 232.776 219.049 233.272C219.049 233.768 218.881 234.184 218.545 234.52C218.209 234.856 217.801 235.024 217.321 235.024ZM218.665 236.776V250H215.929V236.776H218.665ZM228.929 236.56C229.969 236.56 230.897 236.776 231.713 237.208C232.545 237.64 233.193 238.28 233.657 239.128C234.121 239.976 234.353 241 234.353 242.2V250H231.641V242.608C231.641 241.424 231.345 240.52 230.753 239.896C230.161 239.256 229.353 238.936 228.329 238.936C227.305 238.936 226.489 239.256 225.881 239.896C225.289 240.52 224.993 241.424 224.993 242.608V250H222.257V236.776H224.993V238.288C225.441 237.744 226.009 237.32 226.697 237.016C227.401 236.712 228.145 236.56 228.929 236.56ZM249.963 243.064C249.963 243.56 249.931 244.008 249.867 244.408H239.763C239.843 245.464 240.235 246.312 240.939 246.952C241.643 247.592 242.507 247.912 243.531 247.912C245.003 247.912 246.043 247.296 246.651 246.064H249.603C249.203 247.28 248.475 248.28 247.419 249.064C246.379 249.832 245.083 250.216 243.531 250.216C242.267 250.216 241.131 249.936 240.123 249.376C239.131 248.8 238.347 248 237.771 246.976C237.211 245.936 236.931 244.736 236.931 243.376C236.931 242.016 237.203 240.824 237.747 239.8C238.307 238.76 239.083 237.96 240.075 237.4C241.083 236.84 242.235 236.56 243.531 236.56C244.779 236.56 245.891 236.832 246.867 237.376C247.843 237.92 248.603 238.688 249.147 239.68C249.691 240.656 249.963 241.784 249.963 243.064ZM247.107 242.2C247.091 241.192 246.731 240.384 246.027 239.776C245.323 239.168 244.451 238.864 243.411 238.864C242.467 238.864 241.659 239.168 240.987 239.776C240.315 240.368 239.915 241.176 239.787 242.2H247.107Z" fill="black"/>
<rect x="185" y="738" width="8" height="8" fill="#4A40FF"/>
<rect x="201" y="738" width="8" height="8" fill="#E9E8FF"/>
<rect x="217" y="738" width="8" height="8" fill="#E9E8FF"/>
</g>
<g filter="url(#filter0_d)">
<rect x="117" y="519" width="278" height="64" fill="white"/>
</g>
<g filter="url(#filter1_d)">
<rect x="117" y="602" width="278" height="64" fill="white"/>
</g>
<rect x="140" y="543" width="39" height="16" fill="#4A40FF" fill-opacity="0.2"/>
<rect x="140" y="626" width="39" height="16" fill="#4A40FF" fill-opacity="0.2"/>
<g filter="url(#filter2_d)">
<rect x="17" y="436" width="378" height="64" fill="white"/>
</g>
<rect x="42" y="460" width="51" height="16" fill="#4A40FF" fill-opacity="0.2"/>
<rect x="160" y="230" width="91" height="24" fill="#4A40FF" fill-opacity="0.2"/>
<path d="M52.564 466.792C50.366 466.372 47.986 464.468 47.986 462.326V461.36H46.782V462.326C46.782 464.468 44.416 466.358 42.218 466.792L42.736 467.744C44.626 467.296 46.586 465.952 47.384 464.118C48.182 465.966 50.142 467.31 52.046 467.744L52.564 466.792ZM41.742 470.404V471.356H53.124V470.404H41.742ZM62.8389 466.4C62.3209 466.47 61.8169 466.512 61.2709 466.568C61.6769 464.426 61.6769 462.928 61.6769 462.06V461.5H55.5869V462.438H60.5569C60.5569 462.83 60.5429 463.292 60.5009 463.866L55.3209 464.146L55.4889 465.126L60.4169 464.72C60.3749 465.294 60.2769 465.938 60.1229 466.666C58.1489 466.792 56.1469 466.806 54.5089 466.82L54.6769 467.758C55.6569 467.758 56.7489 467.744 57.9109 467.702V472.364H59.0589V467.646C60.3329 467.576 61.6629 467.45 62.9229 467.24L62.8389 466.4ZM63.8049 460.492V468.738H60.9629V469.648H63.8049V473.05H64.9529V460.492H63.8049ZM77.5798 467.254H70.1178V465.266H77.1738V464.356H70.1178V462.494H77.4538V461.57H68.9558V468.178H77.5798V467.254ZM67.4858 470.474V471.412H78.8818V470.474H67.4858Z" fill="#2F2E41"/>
<path d="M52.564 466.792L52.7397 466.888L52.8706 466.647L52.6015 466.596L52.564 466.792ZM47.986 461.36H48.186V461.16H47.986V461.36ZM46.782 461.36V461.16H46.582V461.36H46.782ZM42.218 466.792L42.1793 466.596L41.9122 466.649L42.0423 466.888L42.218 466.792ZM42.736 467.744L42.5603 467.84L42.6334 467.974L42.7821 467.939L42.736 467.744ZM47.384 464.118L47.5676 464.039L47.3847 463.615L47.2006 464.038L47.384 464.118ZM52.046 467.744L52.0016 467.939L52.1493 467.973L52.2217 467.84L52.046 467.744ZM41.742 470.404V470.204H41.542V470.404H41.742ZM41.742 471.356H41.542V471.556H41.742V471.356ZM53.124 471.356V471.556H53.324V471.356H53.124ZM53.124 470.404H53.324V470.204H53.124V470.404ZM52.6015 466.596C51.5406 466.393 50.4294 465.83 49.5858 465.057C48.7407 464.284 48.186 463.322 48.186 462.326H47.786C47.786 463.472 48.4213 464.533 49.3157 465.352C50.2116 466.172 51.3894 466.771 52.5265 466.988L52.6015 466.596ZM48.186 462.326V461.36H47.786V462.326H48.186ZM47.986 461.16H46.782V461.56H47.986V461.16ZM46.582 461.36V462.326H46.982V461.36H46.582ZM46.582 462.326C46.582 463.322 46.0306 464.28 45.1891 465.052C44.349 465.823 43.241 466.386 42.1793 466.596L42.2567 466.988C43.393 466.764 44.567 466.165 45.4594 465.347C46.3504 464.53 46.982 463.472 46.982 462.326H46.582ZM42.0423 466.888L42.5603 467.84L42.9117 467.648L42.3937 466.696L42.0423 466.888ZM42.7821 467.939C44.7176 467.48 46.7384 466.103 47.5674 464.198L47.2006 464.038C46.4336 465.801 44.5344 467.112 42.6899 467.549L42.7821 467.939ZM47.2004 464.197C48.0293 466.117 50.0506 467.494 52.0016 467.939L52.0904 467.549C50.2334 467.126 48.3347 465.815 47.5676 464.039L47.2004 464.197ZM52.2217 467.84L52.7397 466.888L52.3883 466.696L51.8703 467.648L52.2217 467.84ZM41.542 470.404V471.356H41.942V470.404H41.542ZM41.742 471.556H53.124V471.156H41.742V471.556ZM53.324 471.356V470.404H52.924V471.356H53.324ZM53.124 470.204H41.742V470.604H53.124V470.204ZM62.8389 466.4L63.0379 466.38L63.0173 466.174L62.8121 466.202L62.8389 466.4ZM61.2709 466.568L61.0744 466.531L61.0244 466.794L61.2913 466.767L61.2709 466.568ZM61.6769 461.5H61.8769V461.3H61.6769V461.5ZM55.5869 461.5V461.3H55.3869V461.5H55.5869ZM55.5869 462.438H55.3869V462.638H55.5869V462.438ZM60.5569 462.438H60.7569V462.238H60.5569V462.438ZM60.5009 463.866L60.5117 464.066L60.6875 464.056L60.7004 463.881L60.5009 463.866ZM55.3209 464.146L55.3101 463.946L55.0858 463.958L55.1238 464.18L55.3209 464.146ZM55.4889 465.126L55.2918 465.16L55.3227 465.34L55.5053 465.325L55.4889 465.126ZM60.4169 464.72L60.6164 464.735L60.6334 464.501L60.4005 464.521L60.4169 464.72ZM60.1229 466.666L60.1356 466.866L60.2872 466.856L60.3186 466.707L60.1229 466.666ZM54.5089 466.82L54.5072 466.62L54.2703 466.622L54.312 466.855L54.5089 466.82ZM54.6769 467.758L54.48 467.793L54.5095 467.958H54.6769V467.758ZM57.9109 467.702H58.1109V467.495L57.9037 467.502L57.9109 467.702ZM57.9109 472.364H57.7109V472.564H57.9109V472.364ZM59.0589 472.364V472.564H59.2589V472.364H59.0589ZM59.0589 467.646L59.0479 467.446L58.8589 467.457V467.646H59.0589ZM62.9229 467.24L62.9558 467.437L63.1406 467.406L63.1219 467.22L62.9229 467.24ZM63.8049 460.492V460.292H63.6049V460.492H63.8049ZM63.8049 468.738V468.938H64.0049V468.738H63.8049ZM60.9629 468.738V468.538H60.7629V468.738H60.9629ZM60.9629 469.648H60.7629V469.848H60.9629V469.648ZM63.8049 469.648H64.0049V469.448H63.8049V469.648ZM63.8049 473.05H63.6049V473.25H63.8049V473.05ZM64.9529 473.05V473.25H65.1529V473.05H64.9529ZM64.9529 460.492H65.1529V460.292H64.9529V460.492ZM62.8121 466.202C62.2984 466.271 61.8014 466.313 61.2505 466.369L61.2913 466.767C61.8324 466.711 62.3435 466.669 62.8657 466.598L62.8121 466.202ZM61.4674 466.605C61.8769 464.445 61.8769 462.933 61.8769 462.06H61.4769C61.4769 462.923 61.477 464.407 61.0744 466.531L61.4674 466.605ZM61.8769 462.06V461.5H61.4769V462.06H61.8769ZM61.6769 461.3H55.5869V461.7H61.6769V461.3ZM55.3869 461.5V462.438H55.7869V461.5H55.3869ZM55.5869 462.638H60.5569V462.238H55.5869V462.638ZM60.3569 462.438C60.3569 462.825 60.3431 463.282 60.3014 463.851L60.7004 463.881C60.7427 463.302 60.7569 462.835 60.7569 462.438H60.3569ZM60.4901 463.666L55.3101 463.946L55.3317 464.346L60.5117 464.066L60.4901 463.666ZM55.1238 464.18L55.2918 465.16L55.686 465.092L55.518 464.112L55.1238 464.18ZM55.5053 465.325L60.4333 464.919L60.4005 464.521L55.4725 464.927L55.5053 465.325ZM60.2174 464.705C60.1763 465.268 60.0799 465.903 59.9272 466.625L60.3186 466.707C60.4739 465.973 60.5735 465.32 60.6164 464.735L60.2174 464.705ZM60.1102 466.466C58.1426 466.592 56.1462 466.606 54.5072 466.62L54.5106 467.02C56.1476 467.006 58.1552 466.992 60.1356 466.866L60.1102 466.466ZM54.312 466.855L54.48 467.793L54.8738 467.723L54.7058 466.785L54.312 466.855ZM54.6769 467.958C55.6588 467.958 56.7532 467.944 57.9181 467.902L57.9037 467.502C56.7446 467.544 55.655 467.558 54.6769 467.558V467.958ZM57.7109 467.702V472.364H58.1109V467.702H57.7109ZM57.9109 472.564H59.0589V472.164H57.9109V472.564ZM59.2589 472.364V467.646H58.8589V472.364H59.2589ZM59.0699 467.846C60.3489 467.775 61.6866 467.649 62.9558 467.437L62.89 467.043C61.6392 467.251 60.3169 467.377 59.0479 467.446L59.0699 467.846ZM63.1219 467.22L63.0379 466.38L62.6399 466.42L62.7239 467.26L63.1219 467.22ZM63.6049 460.492V468.738H64.0049V460.492H63.6049ZM63.8049 468.538H60.9629V468.938H63.8049V468.538ZM60.7629 468.738V469.648H61.1629V468.738H60.7629ZM60.9629 469.848H63.8049V469.448H60.9629V469.848ZM63.6049 469.648V473.05H64.0049V469.648H63.6049ZM63.8049 473.25H64.9529V472.85H63.8049V473.25ZM65.1529 473.05V460.492H64.7529V473.05H65.1529ZM64.9529 460.292H63.8049V460.692H64.9529V460.292ZM77.5798 467.254H77.7798V467.054H77.5798V467.254ZM70.1178 467.254H69.9178V467.454H70.1178V467.254ZM70.1178 465.266V465.066H69.9178V465.266H70.1178ZM77.1738 465.266V465.466H77.3738V465.266H77.1738ZM77.1738 464.356H77.3738V464.156H77.1738V464.356ZM70.1178 464.356H69.9178V464.556H70.1178V464.356ZM70.1178 462.494V462.294H69.9178V462.494H70.1178ZM77.4538 462.494V462.694H77.6538V462.494H77.4538ZM77.4538 461.57H77.6538V461.37H77.4538V461.57ZM68.9558 461.57V461.37H68.7558V461.57H68.9558ZM68.9558 468.178H68.7558V468.378H68.9558V468.178ZM77.5798 468.178V468.378H77.7798V468.178H77.5798ZM67.4858 470.474V470.274H67.2858V470.474H67.4858ZM67.4858 471.412H67.2858V471.612H67.4858V471.412ZM78.8818 471.412V471.612H79.0818V471.412H78.8818ZM78.8818 470.474H79.0818V470.274H78.8818V470.474ZM77.5798 467.054H70.1178V467.454H77.5798V467.054ZM70.3178 467.254V465.266H69.9178V467.254H70.3178ZM70.1178 465.466H77.1738V465.066H70.1178V465.466ZM77.3738 465.266V464.356H76.9738V465.266H77.3738ZM77.1738 464.156H70.1178V464.556H77.1738V464.156ZM70.3178 464.356V462.494H69.9178V464.356H70.3178ZM70.1178 462.694H77.4538V462.294H70.1178V462.694ZM77.6538 462.494V461.57H77.2538V462.494H77.6538ZM77.4538 461.37H68.9558V461.77H77.4538V461.37ZM68.7558 461.57V468.178H69.1558V461.57H68.7558ZM68.9558 468.378H77.5798V467.978H68.9558V468.378ZM77.7798 468.178V467.254H77.3798V468.178H77.7798ZM67.2858 470.474V471.412H67.6858V470.474H67.2858ZM67.4858 471.612H78.8818V471.212H67.4858V471.612ZM79.0818 471.412V470.474H78.6818V471.412H79.0818ZM78.8818 470.274H67.4858V470.674H78.8818V470.274Z" fill="black"/>
<path d="M150.926 552.69H152.088V543.492H150.926V546.754H148.588V547.734H150.926V552.69ZM148.812 549.694C147.146 549.974 145.732 550.044 143.394 550.044V548.028H147.804V544.36H142.232V545.284H146.656V547.146H142.26V550.982H143.212C145.69 550.982 147.16 550.926 148.924 550.632L148.812 549.694ZM145.13 554.818V552.004H143.982V555.756H152.466V554.818H145.13ZM159.101 545.718H162.055V544.766H155.041V545.718H157.953V547.314C157.953 549.484 156.427 551.85 154.621 552.704L155.293 553.628C156.721 552.9 157.953 551.318 158.527 549.484C159.129 551.206 160.361 552.648 161.817 553.32L162.461 552.396C160.613 551.612 159.101 549.442 159.101 547.314V545.718ZM163.749 543.492V556.036H164.897V543.492H163.749Z" fill="#2F2E41"/>
<path d="M150.926 552.69H150.726V552.89H150.926V552.69ZM152.088 552.69V552.89H152.288V552.69H152.088ZM152.088 543.492H152.288V543.292H152.088V543.492ZM150.926 543.492V543.292H150.726V543.492H150.926ZM150.926 546.754V546.954H151.126V546.754H150.926ZM148.588 546.754V546.554H148.388V546.754H148.588ZM148.588 547.734H148.388V547.934H148.588V547.734ZM150.926 547.734H151.126V547.534H150.926V547.734ZM148.812 549.694L149.011 549.67L148.986 549.462L148.779 549.497L148.812 549.694ZM143.394 550.044H143.194V550.244H143.394V550.044ZM143.394 548.028V547.828H143.194V548.028H143.394ZM147.804 548.028V548.228H148.004V548.028H147.804ZM147.804 544.36H148.004V544.16H147.804V544.36ZM142.232 544.36V544.16H142.032V544.36H142.232ZM142.232 545.284H142.032V545.484H142.232V545.284ZM146.656 545.284H146.856V545.084H146.656V545.284ZM146.656 547.146V547.346H146.856V547.146H146.656ZM142.26 547.146V546.946H142.06V547.146H142.26ZM142.26 550.982H142.06V551.182H142.26V550.982ZM148.924 550.632L148.957 550.829L149.145 550.798L149.123 550.608L148.924 550.632ZM145.13 554.818H144.93V555.018H145.13V554.818ZM145.13 552.004H145.33V551.804H145.13V552.004ZM143.982 552.004V551.804H143.782V552.004H143.982ZM143.982 555.756H143.782V555.956H143.982V555.756ZM152.466 555.756V555.956H152.666V555.756H152.466ZM152.466 554.818H152.666V554.618H152.466V554.818ZM150.926 552.89H152.088V552.49H150.926V552.89ZM152.288 552.69V543.492H151.888V552.69H152.288ZM152.088 543.292H150.926V543.692H152.088V543.292ZM150.726 543.492V546.754H151.126V543.492H150.726ZM150.926 546.554H148.588V546.954H150.926V546.554ZM148.388 546.754V547.734H148.788V546.754H148.388ZM148.588 547.934H150.926V547.534H148.588V547.934ZM150.726 547.734V552.69H151.126V547.734H150.726ZM148.779 549.497C147.129 549.774 145.728 549.844 143.394 549.844V550.244C145.736 550.244 147.163 550.174 148.845 549.891L148.779 549.497ZM143.594 550.044V548.028H143.194V550.044H143.594ZM143.394 548.228H147.804V547.828H143.394V548.228ZM148.004 548.028V544.36H147.604V548.028H148.004ZM147.804 544.16H142.232V544.56H147.804V544.16ZM142.032 544.36V545.284H142.432V544.36H142.032ZM142.232 545.484H146.656V545.084H142.232V545.484ZM146.456 545.284V547.146H146.856V545.284H146.456ZM146.656 546.946H142.26V547.346H146.656V546.946ZM142.06 547.146V550.982H142.46V547.146H142.06ZM142.26 551.182H143.212V550.782H142.26V551.182ZM143.212 551.182C145.693 551.182 147.176 551.126 148.957 550.829L148.891 550.435C147.144 550.726 145.687 550.782 143.212 550.782V551.182ZM149.123 550.608L149.011 549.67L148.613 549.718L148.725 550.656L149.123 550.608ZM145.33 554.818V552.004H144.93V554.818H145.33ZM145.13 551.804H143.982V552.204H145.13V551.804ZM143.782 552.004V555.756H144.182V552.004H143.782ZM143.982 555.956H152.466V555.556H143.982V555.956ZM152.666 555.756V554.818H152.266V555.756H152.666ZM152.466 554.618H145.13V555.018H152.466V554.618ZM159.101 545.718V545.518H158.901V545.718H159.101ZM162.055 545.718V545.918H162.255V545.718H162.055ZM162.055 544.766H162.255V544.566H162.055V544.766ZM155.041 544.766V544.566H154.841V544.766H155.041ZM155.041 545.718H154.841V545.918H155.041V545.718ZM157.953 545.718H158.153V545.518H157.953V545.718ZM154.621 552.704L154.535 552.523L154.317 552.626L154.459 552.822L154.621 552.704ZM155.293 553.628L155.131 553.746L155.232 553.884L155.384 553.806L155.293 553.628ZM158.527 549.484L158.716 549.418L158.516 548.848L158.336 549.424L158.527 549.484ZM161.817 553.32L161.733 553.502L161.885 553.572L161.981 553.434L161.817 553.32ZM162.461 552.396L162.625 552.51L162.766 552.308L162.539 552.212L162.461 552.396ZM163.749 543.492V543.292H163.549V543.492H163.749ZM163.749 556.036H163.549V556.236H163.749V556.036ZM164.897 556.036V556.236H165.097V556.036H164.897ZM164.897 543.492H165.097V543.292H164.897V543.492ZM159.101 545.918H162.055V545.518H159.101V545.918ZM162.255 545.718V544.766H161.855V545.718H162.255ZM162.055 544.566H155.041V544.966H162.055V544.566ZM154.841 544.766V545.718H155.241V544.766H154.841ZM155.041 545.918H157.953V545.518H155.041V545.918ZM157.753 545.718V547.314H158.153V545.718H157.753ZM157.753 547.314C157.753 548.354 157.386 549.452 156.795 550.396C156.203 551.341 155.396 552.116 154.535 552.523L154.706 552.885C155.651 552.438 156.511 551.603 157.134 550.609C157.757 549.614 158.153 548.444 158.153 547.314H157.753ZM154.459 552.822L155.131 553.746L155.455 553.51L154.783 552.586L154.459 552.822ZM155.384 553.806C156.869 553.049 158.131 551.418 158.718 549.544L158.336 549.424C157.775 551.218 156.573 552.751 155.202 553.45L155.384 553.806ZM158.338 549.55C158.955 551.315 160.221 552.803 161.733 553.502L161.901 553.138C160.501 552.493 159.303 551.097 158.716 549.418L158.338 549.55ZM161.981 553.434L162.625 552.51L162.297 552.282L161.653 553.206L161.981 553.434ZM162.539 552.212C160.763 551.458 159.301 549.36 159.301 547.314H158.901C158.901 549.524 160.463 551.766 162.383 552.58L162.539 552.212ZM159.301 547.314V545.718H158.901V547.314H159.301ZM163.549 543.492V556.036H163.949V543.492H163.549ZM163.749 556.236H164.897V555.836H163.749V556.236ZM165.097 556.036V543.492H164.697V556.036H165.097ZM164.897 543.292H163.749V543.692H164.897V543.292Z" fill="black"/>
<path d="M150.926 635.69H152.088V626.492H150.926V629.754H148.588V630.734H150.926V635.69ZM148.812 632.694C147.146 632.974 145.732 633.044 143.394 633.044V631.028H147.804V627.36H142.232V628.284H146.656V630.146H142.26V633.982H143.212C145.69 633.982 147.16 633.926 148.924 633.632L148.812 632.694ZM145.13 637.818V635.004H143.982V638.756H152.466V637.818H145.13ZM159.101 628.718H162.055V627.766H155.041V628.718H157.953V630.314C157.953 632.484 156.427 634.85 154.621 635.704L155.293 636.628C156.721 635.9 157.953 634.318 158.527 632.484C159.129 634.206 160.361 635.648 161.817 636.32L162.461 635.396C160.613 634.612 159.101 632.442 159.101 630.314V628.718ZM163.749 626.492V639.036H164.897V626.492H163.749Z" fill="#2F2E41"/>
<path d="M150.926 635.69H150.726V635.89H150.926V635.69ZM152.088 635.69V635.89H152.288V635.69H152.088ZM152.088 626.492H152.288V626.292H152.088V626.492ZM150.926 626.492V626.292H150.726V626.492H150.926ZM150.926 629.754V629.954H151.126V629.754H150.926ZM148.588 629.754V629.554H148.388V629.754H148.588ZM148.588 630.734H148.388V630.934H148.588V630.734ZM150.926 630.734H151.126V630.534H150.926V630.734ZM148.812 632.694L149.011 632.67L148.986 632.462L148.779 632.497L148.812 632.694ZM143.394 633.044H143.194V633.244H143.394V633.044ZM143.394 631.028V630.828H143.194V631.028H143.394ZM147.804 631.028V631.228H148.004V631.028H147.804ZM147.804 627.36H148.004V627.16H147.804V627.36ZM142.232 627.36V627.16H142.032V627.36H142.232ZM142.232 628.284H142.032V628.484H142.232V628.284ZM146.656 628.284H146.856V628.084H146.656V628.284ZM146.656 630.146V630.346H146.856V630.146H146.656ZM142.26 630.146V629.946H142.06V630.146H142.26ZM142.26 633.982H142.06V634.182H142.26V633.982ZM148.924 633.632L148.957 633.829L149.145 633.798L149.123 633.608L148.924 633.632ZM145.13 637.818H144.93V638.018H145.13V637.818ZM145.13 635.004H145.33V634.804H145.13V635.004ZM143.982 635.004V634.804H143.782V635.004H143.982ZM143.982 638.756H143.782V638.956H143.982V638.756ZM152.466 638.756V638.956H152.666V638.756H152.466ZM152.466 637.818H152.666V637.618H152.466V637.818ZM150.926 635.89H152.088V635.49H150.926V635.89ZM152.288 635.69V626.492H151.888V635.69H152.288ZM152.088 626.292H150.926V626.692H152.088V626.292ZM150.726 626.492V629.754H151.126V626.492H150.726ZM150.926 629.554H148.588V629.954H150.926V629.554ZM148.388 629.754V630.734H148.788V629.754H148.388ZM148.588 630.934H150.926V630.534H148.588V630.934ZM150.726 630.734V635.69H151.126V630.734H150.726ZM148.779 632.497C147.129 632.774 145.728 632.844 143.394 632.844V633.244C145.736 633.244 147.163 633.174 148.845 632.891L148.779 632.497ZM143.594 633.044V631.028H143.194V633.044H143.594ZM143.394 631.228H147.804V630.828H143.394V631.228ZM148.004 631.028V627.36H147.604V631.028H148.004ZM147.804 627.16H142.232V627.56H147.804V627.16ZM142.032 627.36V628.284H142.432V627.36H142.032ZM142.232 628.484H146.656V628.084H142.232V628.484ZM146.456 628.284V630.146H146.856V628.284H146.456ZM146.656 629.946H142.26V630.346H146.656V629.946ZM142.06 630.146V633.982H142.46V630.146H142.06ZM142.26 634.182H143.212V633.782H142.26V634.182ZM143.212 634.182C145.693 634.182 147.176 634.126 148.957 633.829L148.891 633.435C147.144 633.726 145.687 633.782 143.212 633.782V634.182ZM149.123 633.608L149.011 632.67L148.613 632.718L148.725 633.656L149.123 633.608ZM145.33 637.818V635.004H144.93V637.818H145.33ZM145.13 634.804H143.982V635.204H145.13V634.804ZM143.782 635.004V638.756H144.182V635.004H143.782ZM143.982 638.956H152.466V638.556H143.982V638.956ZM152.666 638.756V637.818H152.266V638.756H152.666ZM152.466 637.618H145.13V638.018H152.466V637.618ZM159.101 628.718V628.518H158.901V628.718H159.101ZM162.055 628.718V628.918H162.255V628.718H162.055ZM162.055 627.766H162.255V627.566H162.055V627.766ZM155.041 627.766V627.566H154.841V627.766H155.041ZM155.041 628.718H154.841V628.918H155.041V628.718ZM157.953 628.718H158.153V628.518H157.953V628.718ZM154.621 635.704L154.535 635.523L154.317 635.626L154.459 635.822L154.621 635.704ZM155.293 636.628L155.131 636.746L155.232 636.884L155.384 636.806L155.293 636.628ZM158.527 632.484L158.716 632.418L158.516 631.848L158.336 632.424L158.527 632.484ZM161.817 636.32L161.733 636.502L161.885 636.572L161.981 636.434L161.817 636.32ZM162.461 635.396L162.625 635.51L162.766 635.308L162.539 635.212L162.461 635.396ZM163.749 626.492V626.292H163.549V626.492H163.749ZM163.749 639.036H163.549V639.236H163.749V639.036ZM164.897 639.036V639.236H165.097V639.036H164.897ZM164.897 626.492H165.097V626.292H164.897V626.492ZM159.101 628.918H162.055V628.518H159.101V628.918ZM162.255 628.718V627.766H161.855V628.718H162.255ZM162.055 627.566H155.041V627.966H162.055V627.566ZM154.841 627.766V628.718H155.241V627.766H154.841ZM155.041 628.918H157.953V628.518H155.041V628.918ZM157.753 628.718V630.314H158.153V628.718H157.753ZM157.753 630.314C157.753 631.354 157.386 632.452 156.795 633.396C156.203 634.341 155.396 635.116 154.535 635.523L154.706 635.885C155.651 635.438 156.511 634.603 157.134 633.609C157.757 632.614 158.153 631.444 158.153 630.314H157.753ZM154.459 635.822L155.131 636.746L155.455 636.51L154.783 635.586L154.459 635.822ZM155.384 636.806C156.869 636.049 158.131 634.418 158.718 632.544L158.336 632.424C157.775 634.218 156.573 635.751 155.202 636.45L155.384 636.806ZM158.338 632.55C158.955 634.315 160.221 635.803 161.733 636.502L161.901 636.138C160.501 635.493 159.303 634.097 158.716 632.418L158.338 632.55ZM161.981 636.434L162.625 635.51L162.297 635.282L161.653 636.206L161.981 636.434ZM162.539 635.212C160.763 634.458 159.301 632.36 159.301 630.314H158.901C158.901 632.524 160.463 634.766 162.383 635.58L162.539 635.212ZM159.301 630.314V628.718H158.901V630.314H159.301ZM163.549 626.492V639.036H163.949V626.492H163.549ZM163.749 639.236H164.897V638.836H163.749V639.236ZM165.097 639.036V626.492H164.697V639.036H165.097ZM164.897 626.292H163.749V626.692H164.897V626.292Z" fill="black"/>
<path d="M169.448 474H161.063V472.831L165.493 467.909C166.149 467.165 166.601 466.562 166.847 466.099C167.099 465.63 167.225 465.146 167.225 464.648C167.225 463.98 167.022 463.433 166.618 463.005C166.214 462.577 165.675 462.363 165.001 462.363C164.192 462.363 163.562 462.595 163.111 463.058C162.666 463.515 162.443 464.153 162.443 464.974H160.817C160.817 463.796 161.195 462.844 161.951 462.117C162.713 461.391 163.729 461.027 165.001 461.027C166.19 461.027 167.131 461.341 167.822 461.968C168.514 462.589 168.859 463.418 168.859 464.455C168.859 465.715 168.057 467.215 166.451 468.955L163.023 472.673H169.448V474ZM174.573 463.668H173.467V466.062C173.467 468.218 172.431 470.472 170.709 471.48L171.423 472.334C172.669 471.564 173.579 470.15 174.027 468.484C174.475 470.01 175.315 471.34 176.505 472.068L177.163 471.172C175.511 470.164 174.573 468.036 174.573 466.02V463.668ZM177.877 466.986H175.805V467.938H177.877V474.42H178.955V462.758H177.877V466.986ZM180.425 462.478V475.036H181.517V462.478H180.425ZM193.808 469.254H186.346V467.266H193.402V466.356H186.346V464.494H193.682V463.57H185.184V470.178H193.808V469.254ZM183.714 472.474V473.412H195.11V472.474H183.714Z" fill="black"/>
<path d="M260.811 467.584L261.461 461.203H268.018V462.706H262.841L262.454 466.195C263.081 465.826 263.793 465.642 264.59 465.642C265.756 465.642 266.682 466.028 267.367 466.802C268.053 467.569 268.396 468.609 268.396 469.922C268.396 471.24 268.038 472.28 267.323 473.042C266.614 473.798 265.621 474.176 264.344 474.176C263.213 474.176 262.29 473.862 261.575 473.235C260.86 472.608 260.453 471.741 260.354 470.634H261.892C261.991 471.366 262.252 471.92 262.674 472.295C263.096 472.664 263.652 472.849 264.344 472.849C265.1 472.849 265.691 472.591 266.119 472.075C266.553 471.56 266.77 470.848 266.77 469.939C266.77 469.084 266.535 468.398 266.066 467.883C265.604 467.361 264.985 467.101 264.212 467.101C263.503 467.101 262.946 467.256 262.542 467.566L262.111 467.918L260.811 467.584ZM272.129 470.575L271.336 471.402V474H270.071V463.5H271.336V469.851L272.013 469.037L274.316 466.604H275.854L272.977 469.693L276.189 474H274.706L272.129 470.575ZM276.723 470.24C276.723 469.087 276.989 468.171 277.522 467.492C278.056 466.809 278.762 466.467 279.642 466.467C280.544 466.467 281.248 466.786 281.754 467.424L281.815 466.604H282.971V473.822C282.971 474.779 282.686 475.534 282.116 476.085C281.551 476.636 280.79 476.912 279.833 476.912C279.3 476.912 278.778 476.798 278.268 476.57C277.757 476.342 277.368 476.03 277.099 475.634L277.755 474.875C278.297 475.545 278.96 475.88 279.744 475.88C280.359 475.88 280.838 475.707 281.18 475.36C281.526 475.014 281.699 474.526 281.699 473.897V473.262C281.193 473.845 280.503 474.137 279.628 474.137C278.762 474.137 278.06 473.788 277.522 473.091C276.989 472.394 276.723 471.443 276.723 470.24ZM277.994 470.384C277.994 471.218 278.165 471.874 278.507 472.353C278.849 472.826 279.327 473.063 279.942 473.063C280.74 473.063 281.326 472.701 281.699 471.977V468.6C281.312 467.893 280.731 467.54 279.956 467.54C279.341 467.54 278.86 467.779 278.514 468.258C278.167 468.736 277.994 469.445 277.994 470.384Z" fill="black"/>
<path d="M349.811 467.584L350.461 461.203H357.018V462.706H351.841L351.454 466.195C352.081 465.826 352.793 465.642 353.59 465.642C354.756 465.642 355.682 466.028 356.367 466.802C357.053 467.569 357.396 468.609 357.396 469.922C357.396 471.24 357.038 472.28 356.323 473.042C355.614 473.798 354.621 474.176 353.344 474.176C352.213 474.176 351.29 473.862 350.575 473.235C349.86 472.608 349.453 471.741 349.354 470.634H350.892C350.991 471.366 351.252 471.92 351.674 472.295C352.096 472.664 352.652 472.849 353.344 472.849C354.1 472.849 354.691 472.591 355.119 472.075C355.553 471.56 355.77 470.848 355.77 469.939C355.77 469.084 355.535 468.398 355.066 467.883C354.604 467.361 353.985 467.101 353.212 467.101C352.503 467.101 351.946 467.256 351.542 467.566L351.111 467.918L349.811 467.584ZM366.815 464.018H363.581V462.478H362.433V464.018H359.185V464.942H366.815V464.018ZM361.075 467.98C361.075 467.098 361.859 466.538 363.007 466.538C364.141 466.538 364.925 467.098 364.925 467.98C364.925 468.848 364.141 469.408 363.007 469.408C361.859 469.408 361.075 468.848 361.075 467.98ZM363.581 470.276C365.065 470.094 366.017 469.226 366.017 467.98C366.017 466.566 364.799 465.656 363.007 465.656C361.215 465.656 359.983 466.566 359.983 467.98C359.983 469.24 360.949 470.108 362.433 470.29V471.634C361.187 471.676 359.983 471.69 358.919 471.69L359.087 472.656C361.397 472.656 364.421 472.614 367.221 472.152L367.137 471.298C365.989 471.452 364.771 471.536 363.581 471.592V470.276ZM367.935 462.478V475.036H369.083V462.478H367.935Z" fill="black"/>
<defs>
<filter id="filter0_d" x="113" y="519" width="286" height="72" filterUnits="userSpaceOnUse" color-interpolation-filters="sRGB">
<feFlood flood-opacity="0" result="BackgroundImageFix"/>
<feColorMatrix in="SourceAlpha" type="matrix" values="0 0 0 0 0 0 0 0 0 0 0 0 0 0 0 0 0 0 127 0" result="hardAlpha"/>
<feOffset dy="4"/>
<feGaussianBlur stdDeviation="2"/>
<feComposite in2="hardAlpha" operator="out"/>
<feColorMatrix type="matrix" values="0 0 0 0 0 0 0 0 0 0 0 0 0 0 0 0 0 0 0.05 0"/>
<feBlend mode="normal" in2="BackgroundImageFix" result="effect1_dropShadow"/>
<feBlend mode="normal" in="SourceGraphic" in2="effect1_dropShadow" result="shape"/>
</filter>
<filter id="filter1_d" x="113" y="602" width="286" height="72" filterUnits="userSpaceOnUse" color-interpolation-filters="sRGB">
<feFlood flood-opacity="0" result="BackgroundImageFix"/>
<feColorMatrix in="SourceAlpha" type="matrix" values="0 0 0 0 0 0 0 0 0 0 0 0 0 0 0 0 0 0 127 0" result="hardAlpha"/>
<feOffset dy="4"/>
<feGaussianBlur stdDeviation="2"/>
<feComposite in2="hardAlpha" operator="out"/>
<feColorMatrix type="matrix" values="0 0 0 0 0 0 0 0 0 0 0 0 0 0 0 0 0 0 0.05 0"/>
<feBlend mode="normal" in2="BackgroundImageFix" result="effect1_dropShadow"/>
<feBlend mode="normal" in="SourceGraphic" in2="effect1_dropShadow" result="shape"/>
</filter>
<filter id="filter2_d" x="13" y="436" width="386" height="72" filterUnits="userSpaceOnUse" color-interpolation-filters="sRGB">
<feFlood flood-opacity="0" result="BackgroundImageFix"/>
<feColorMatrix in="SourceAlpha" type="matrix" values="0 0 0 0 0 0 0 0 0 0 0 0 0 0 0 0 0 0 127 0" result="hardAlpha"/>
<feOffset dy="4"/>
<feGaussianBlur stdDeviation="2"/>
<feComposite in2="hardAlpha" operator="out"/>
<feColorMatrix type="matrix" values="0 0 0 0 0 0 0 0 0 0 0 0 0 0 0 0 0 0 0.05 0"/>
<feBlend mode="normal" in2="BackgroundImageFix" result="effect1_dropShadow"/>
<feBlend mode="normal" in="SourceGraphic" in2="effect1_dropShadow" result="shape"/>
</filter>
<clipPath id="clip0">
<rect width="411" height="823" fill="white"/>
</clipPath>
</defs>
</svg>
