<svg width="32" height="32" viewBox="0 0 32 32" fill="none" xmlns="http://www.w3.org/2000/svg">
<rect x="31.5" y="0.5" width="31" height="31" rx="15.5" transform="rotate(90 31.5 0.5)" stroke="black" stroke-opacity="0.6"/>
<path d="M13.75 13.0527C13.75 13.3626 13.6611 13.6019 13.4834 13.7705C13.3102 13.9391 13.0915 14.0234 12.8271 14.0234C12.5674 14.0234 12.3509 13.9391 12.1777 13.7705C12.0091 13.6019 11.9248 13.3626 11.9248 13.0527C11.9248 12.7565 12.0091 12.5218 12.1777 12.3486C12.3464 12.1755 12.5628 12.0889 12.8271 12.0889C13.0915 12.0889 13.3102 12.1732 13.4834 12.3418C13.6611 12.5104 13.75 12.7474 13.75 13.0527ZM19.5537 13.0527C19.5537 13.3626 19.4648 13.6019 19.2871 13.7705C19.1139 13.9391 18.8952 14.0234 18.6309 14.0234C18.3711 14.0234 18.1546 13.9391 17.9814 13.7705C17.8128 13.6019 17.7285 13.3626 17.7285 13.0527C17.7285 12.7565 17.8128 12.5218 17.9814 12.3486C18.1501 12.1755 18.3665 12.0889 18.6309 12.0889C18.8952 12.0889 19.1139 12.1732 19.2871 12.3418C19.4648 12.5104 19.5537 12.7474 19.5537 13.0527ZM16.0469 15.7939C17.0996 15.7939 18.0977 15.9352 19.041 16.2178C19.9889 16.5003 20.8343 16.915 21.5771 17.4619C22.3245 18.0088 22.8486 18.5876 23.1494 19.1982L22.1787 19.5264C21.6911 18.8838 20.946 18.362 19.9434 17.9609C18.9453 17.5645 17.8014 17.348 16.5117 17.3115L15.9238 17.3047C14.543 17.3047 13.3102 17.4984 12.2256 17.8857C11.1455 18.2777 10.3229 18.8245 9.75781 19.5264L8.83496 19.1982C9.13574 18.5876 9.66211 18.0065 10.4141 17.4551C11.1615 16.9082 12.0046 16.4935 12.9434 16.2109C13.8867 15.9329 14.9212 15.7939 16.0469 15.7939Z" fill="black" fill-opacity="0.6"/>
</svg>
